<svg width="198" height="34" viewBox="0 0 198 34" fill="none" xmlns="http://www.w3.org/2000/svg">
<path d="M14.674 13.283C14.3453 12.7417 13.891 12.326 13.311 12.036C12.7503 11.746 12.0833 11.601 11.31 11.601C9.87933 11.601 8.74833 12.065 7.917 12.993C7.105 13.921 6.699 15.168 6.699 16.734C6.699 18.4933 7.134 19.837 8.004 20.765C8.89333 21.6737 10.179 22.128 11.861 22.128C13.8523 22.128 15.2733 21.229 16.124 19.431H10.411V15.342H21.025V20.852C20.5803 21.9347 19.923 22.9497 19.053 23.897C18.2023 24.8443 17.1197 25.6273 15.805 26.246C14.4903 26.8453 12.992 27.145 11.31 27.145C9.26067 27.145 7.44333 26.71 5.858 25.84C4.292 24.9507 3.074 23.723 2.204 22.157C1.35333 20.5717 0.928 18.764 0.928 16.734C0.928 14.7233 1.35333 12.935 2.204 11.369C3.074 9.78367 4.292 8.556 5.858 7.686C7.424 6.79667 9.23167 6.352 11.281 6.352C13.8523 6.352 15.979 6.97067 17.661 8.208C19.343 9.44533 20.387 11.137 20.793 13.283H14.674ZM22.6442 18.851C22.6442 17.169 22.9439 15.6997 23.5432 14.443C24.1619 13.1863 24.9932 12.2197 26.0372 11.543C27.1006 10.8663 28.2799 10.528 29.5752 10.528C30.6966 10.528 31.6632 10.7503 32.4752 11.195C33.2872 11.6397 33.9156 12.239 34.3602 12.993V10.731H40.0442V27H34.3602V24.738C33.9156 25.492 33.2776 26.0913 32.4462 26.536C31.6342 26.9807 30.6772 27.203 29.5752 27.203C28.2799 27.203 27.1006 26.8647 26.0372 26.188C24.9932 25.5113 24.1619 24.5447 23.5432 23.288C22.9439 22.012 22.6442 20.533 22.6442 18.851ZM34.3602 18.851C34.3602 17.807 34.0702 16.9853 33.4902 16.386C32.9296 15.7867 32.2336 15.487 31.4022 15.487C30.5516 15.487 29.8459 15.7867 29.2852 16.386C28.7246 16.966 28.4442 17.7877 28.4442 18.851C28.4442 19.895 28.7246 20.7263 29.2852 21.345C29.8459 21.9443 30.5516 22.244 31.4022 22.244C32.2336 22.244 32.9296 21.9443 33.4902 21.345C34.0702 20.7457 34.3602 19.9143 34.3602 18.851ZM64.5402 10.586C66.5895 10.586 68.1942 11.2047 69.3542 12.442C70.5335 13.6793 71.1232 15.371 71.1232 17.517V27H65.4392V18.271C65.4392 17.401 65.1975 16.7243 64.7142 16.241C64.2308 15.7577 63.5735 15.516 62.7422 15.516C61.9108 15.516 61.2535 15.7577 60.7702 16.241C60.2868 16.7243 60.0452 17.401 60.0452 18.271V27H54.3612V18.271C54.3612 17.401 54.1195 16.7243 53.6362 16.241C53.1722 15.7577 52.5245 15.516 51.6932 15.516C50.8425 15.516 50.1755 15.7577 49.6922 16.241C49.2088 16.7243 48.9672 17.401 48.9672 18.271V27H43.2832V10.731H48.9672V12.877C49.4698 12.181 50.1175 11.63 50.9102 11.224C51.7222 10.7987 52.6502 10.586 53.6942 10.586C54.8928 10.586 55.9562 10.847 56.8842 11.369C57.8315 11.891 58.5758 12.6257 59.1172 13.573C59.6972 12.6837 60.4608 11.9683 61.4082 11.427C62.3555 10.8663 63.3995 10.586 64.5402 10.586ZM89.7813 18.677C89.7813 19.1217 89.7523 19.5663 89.6943 20.011H78.9353C78.9933 20.9003 79.2349 21.5673 79.6603 22.012C80.1049 22.4373 80.6656 22.65 81.3423 22.65C82.2896 22.65 82.9663 22.2247 83.3723 21.374H89.4333C89.1819 22.4953 88.6889 23.5007 87.9543 24.39C87.2389 25.26 86.3303 25.9463 85.2283 26.449C84.1263 26.9517 82.9083 27.203 81.5743 27.203C79.9696 27.203 78.5389 26.8647 77.2823 26.188C76.0449 25.5113 75.0686 24.5447 74.3533 23.288C73.6573 22.0313 73.3093 20.5523 73.3093 18.851C73.3093 17.1497 73.6573 15.6803 74.3533 14.443C75.0493 13.1863 76.0159 12.2197 77.2533 11.543C78.5099 10.8663 79.9503 10.528 81.5743 10.528C83.1789 10.528 84.5999 10.8567 85.8373 11.514C87.0746 12.1713 88.0413 13.1187 88.7373 14.356C89.4333 15.574 89.7813 17.0143 89.7813 18.677ZM83.9813 17.256C83.9813 16.56 83.7493 16.0187 83.2853 15.632C82.8213 15.226 82.2413 15.023 81.5453 15.023C80.8493 15.023 80.2789 15.2163 79.8343 15.603C79.3896 15.9703 79.0996 16.5213 78.9643 17.256H83.9813ZM102.46 27L98.4004 19.46H97.7914V27H92.1074V6.555H101.068C102.712 6.555 104.104 6.845 105.244 7.425C106.385 7.98567 107.245 8.76867 107.825 9.774C108.405 10.76 108.695 11.8717 108.695 13.109C108.695 14.501 108.309 15.7287 107.535 16.792C106.781 17.836 105.67 18.5803 104.2 19.025L108.811 27H102.46ZM97.7914 15.574H100.604C101.378 15.574 101.958 15.3903 102.344 15.023C102.731 14.6557 102.924 14.124 102.924 13.428C102.924 12.7707 102.721 12.2583 102.315 11.891C101.929 11.5043 101.358 11.311 100.604 11.311H97.7914V15.574ZM126.824 18.677C126.824 19.1217 126.795 19.5663 126.737 20.011H115.978C116.036 20.9003 116.278 21.5673 116.703 22.012C117.148 22.4373 117.709 22.65 118.385 22.65C119.333 22.65 120.009 22.2247 120.415 21.374H126.476C126.225 22.4953 125.732 23.5007 124.997 24.39C124.282 25.26 123.373 25.9463 122.271 26.449C121.169 26.9517 119.951 27.203 118.617 27.203C117.013 27.203 115.582 26.8647 114.325 26.188C113.088 25.5113 112.112 24.5447 111.396 23.288C110.7 22.0313 110.352 20.5523 110.352 18.851C110.352 17.1497 110.7 15.6803 111.396 14.443C112.092 13.1863 113.059 12.2197 114.296 11.543C115.553 10.8663 116.993 10.528 118.617 10.528C120.222 10.528 121.643 10.8567 122.88 11.514C124.118 12.1713 125.084 13.1187 125.78 14.356C126.476 15.574 126.824 17.0143 126.824 18.677ZM121.024 17.256C121.024 16.56 120.792 16.0187 120.328 15.632C119.864 15.226 119.284 15.023 118.588 15.023C117.892 15.023 117.322 15.2163 116.877 15.603C116.433 15.9703 116.143 16.5213 116.007 17.256H121.024ZM138.749 22.157V27H136.284C132.128 27 130.049 24.941 130.049 20.823V15.458H128.048V10.731H130.049V6.787H135.762V10.731H138.72V15.458H135.762V20.91C135.762 21.3547 135.859 21.6737 136.052 21.867C136.265 22.0603 136.613 22.157 137.096 22.157H138.749ZM147.04 13.602C147.678 12.674 148.452 11.9393 149.36 11.398C150.269 10.8567 151.245 10.586 152.289 10.586V16.647H150.694C149.457 16.647 148.539 16.8887 147.939 17.372C147.34 17.8553 147.04 18.6963 147.04 19.895V27H141.356V10.731H147.04V13.602ZM161.896 27.203C160.272 27.203 158.812 26.8647 157.517 26.188C156.241 25.5113 155.236 24.5447 154.501 23.288C153.766 22.0313 153.399 20.5523 153.399 18.851C153.399 17.169 153.766 15.6997 154.501 14.443C155.255 13.1863 156.27 12.2197 157.546 11.543C158.841 10.8663 160.301 10.528 161.925 10.528C163.549 10.528 164.999 10.8663 166.275 11.543C167.57 12.2197 168.585 13.1863 169.32 14.443C170.074 15.6997 170.451 17.169 170.451 18.851C170.451 20.533 170.074 22.012 169.32 23.288C168.585 24.5447 167.57 25.5113 166.275 26.188C164.98 26.8647 163.52 27.203 161.896 27.203ZM161.896 22.273C162.689 22.273 163.346 21.983 163.868 21.403C164.409 20.8037 164.68 19.953 164.68 18.851C164.68 17.749 164.409 16.908 163.868 16.328C163.346 15.748 162.698 15.458 161.925 15.458C161.152 15.458 160.504 15.748 159.982 16.328C159.46 16.908 159.199 17.749 159.199 18.851C159.199 19.9723 159.45 20.823 159.953 21.403C160.456 21.983 161.103 22.273 161.896 22.273ZM173.344 14.762C174.31 14.7427 174.997 14.5687 175.403 14.24C175.828 13.9113 176.041 13.4183 176.041 12.761C176.041 12.297 175.944 11.369 175.751 9.977C175.654 9.37767 175.567 8.759 175.49 8.121C175.412 7.46367 175.374 6.88367 175.374 6.381C175.374 4.60233 175.915 3.22 176.998 2.234C178.1 1.248 179.579 0.754999 181.435 0.754999H183.581V5.366H182.537C181.918 5.366 181.473 5.50133 181.203 5.772C180.932 6.04267 180.797 6.44867 180.797 6.99C180.797 7.35733 180.874 8.21767 181.029 9.571C181.203 11.311 181.29 12.442 181.29 12.964C181.29 14.066 181.029 14.9747 180.507 15.69C180.004 16.4053 179.231 16.8597 178.187 17.053V17.111C179.231 17.3043 180.004 17.7587 180.507 18.474C181.029 19.1893 181.29 20.098 181.29 21.2C181.29 21.722 181.203 22.853 181.029 24.593C180.874 25.9463 180.797 26.8163 180.797 27.203C180.797 27.725 180.932 28.1213 181.203 28.392C181.473 28.6627 181.918 28.798 182.537 28.798H183.581V33.409H181.435C179.579 33.409 178.1 32.916 176.998 31.93C175.915 30.944 175.374 29.5617 175.374 27.783C175.374 27.2803 175.412 26.71 175.49 26.072C175.567 25.4147 175.654 24.7863 175.751 24.187C175.944 22.795 176.041 21.8767 176.041 21.432C176.041 20.1173 175.142 19.431 173.344 19.373V14.762ZM197.477 19.373C195.679 19.431 194.78 20.1173 194.78 21.432C194.78 21.8767 194.877 22.795 195.07 24.187C195.167 24.7863 195.254 25.4147 195.331 26.072C195.408 26.71 195.447 27.2803 195.447 27.783C195.447 29.5617 194.896 30.944 193.794 31.93C192.711 32.916 191.242 33.409 189.386 33.409H187.24V28.798H188.284C188.903 28.798 189.347 28.6627 189.618 28.392C189.889 28.1213 190.024 27.725 190.024 27.203C190.024 26.8163 189.947 25.9463 189.792 24.593C189.618 22.853 189.531 21.722 189.531 21.2C189.531 20.098 189.782 19.1893 190.285 18.474C190.807 17.7587 191.59 17.3043 192.634 17.111V17.053C191.59 16.8597 190.807 16.4053 190.285 15.69C189.782 14.9747 189.531 14.066 189.531 12.964C189.531 12.442 189.618 11.311 189.792 9.571C189.947 8.21767 190.024 7.35733 190.024 6.99C190.024 6.44867 189.889 6.04267 189.618 5.772C189.347 5.50133 188.903 5.366 188.284 5.366H187.24V0.754999H189.386C191.242 0.754999 192.711 1.248 193.794 2.234C194.896 3.22 195.447 4.60233 195.447 6.381C195.447 6.88367 195.408 7.46367 195.331 8.121C195.254 8.759 195.167 9.37767 195.07 9.977C194.877 11.369 194.78 12.297 194.78 12.761C194.78 13.4183 194.983 13.9113 195.389 14.24C195.814 14.5687 196.51 14.7427 197.477 14.762V19.373Z" fill="white"/>
</svg>
