<svg width="135" height="100" viewBox="0 0 135 100" fill="none" xmlns="http://www.w3.org/2000/svg">
<g id="header__logo">
<path id="Vector" d="M59.8832 80.2139C81.5089 80.2139 99.04 73.5257 99.04 65.2754C99.04 57.0251 81.5089 50.3369 59.8832 50.3369C38.2575 50.3369 20.7264 57.0251 20.7264 65.2754C20.7264 73.5257 38.2575 80.2139 59.8832 80.2139Z" fill="url(#paint0_linear_415_562)"/>
<path id="Vector_2" d="M107.46 30.5611C113.092 24.935 113.092 15.8132 107.46 10.187C101.827 4.56087 92.6957 4.56087 87.0634 10.187C81.4311 15.8132 81.4311 24.935 87.0634 30.5611C92.6957 36.1873 101.827 36.1873 107.46 30.5611Z" fill="url(#paint1_linear_415_562)"/>
<path id="Vector_3" d="M100.675 9.16931C97.4984 8.0587 96.1029 10.3077 96.1029 10.3077H95.1311C95.1311 10.3077 93.7356 8.05749 90.5594 9.16931C90.7502 9.07405 93.4072 7.80787 95.6164 9.81446C97.8256 7.80787 100.484 9.07405 100.673 9.16931H100.675Z" fill="white"/>
<path id="Vector_4" d="M106.336 13.4128C103.689 12.4867 102.526 14.3618 102.526 14.3618H101.716C101.716 14.3618 100.554 12.4867 97.9065 13.4128C98.0658 13.3332 100.28 12.278 102.121 13.9506C103.962 12.278 106.177 13.3332 106.335 13.4128H106.336Z" fill="white"/>
<path id="Vector_5" d="M96.4916 16.1839C93.8829 15.2722 92.7372 17.1184 92.7372 17.1184H91.9393C91.9393 17.1184 90.7936 15.271 88.1849 16.1839C88.3418 16.1055 90.5232 15.066 92.3377 16.7133C94.1521 15.0648 96.3347 16.1055 96.4904 16.1839H96.4916Z" fill="white"/>
<path id="Vector_6" d="M108.466 60.1323C108.524 59.5619 108.565 58.9867 108.583 58.4091C108.457 58.4115 108.332 58.4211 108.209 58.4464C107.673 58.5562 107.253 58.8685 106.805 59.1229C102.376 61.642 98.7213 59.1386 95.4209 56.9511C94.3561 56.2457 93.1356 55.6271 91.7558 55.4486C90.3047 55.2617 88.8344 55.5789 87.4111 55.8683C85.9878 56.1577 84.486 56.423 83.0615 56.136C81.637 55.849 80.3489 54.8252 80.5252 53.6904C80.6701 52.7619 81.7433 52.0504 82.8986 51.79C84.0538 51.5283 85.3214 51.4885 86.5177 51.5886C84.3194 49.9414 80.8499 49.4132 78.0154 50.2947C75.4839 51.0821 73.6079 52.8258 71.1018 53.6603C68.4725 54.5358 65.446 54.3079 62.6816 53.7399C59.9159 53.1719 57.2624 52.2832 54.4557 51.8527C50.0615 51.1786 45.3824 51.6875 41.3938 53.272C40.2288 53.7351 39.1182 54.2874 37.8941 54.6479C36.6712 55.0085 35.2865 55.1652 34.06 54.8119C32.8335 54.4574 31.846 53.4915 31.9909 52.4809C32.1369 51.4704 34.0419 50.5202 35.2044 50.9869C33.425 49.7798 30.4915 49.781 28.7133 50.9893C26.2567 52.6582 26.4607 55.7067 24.6728 57.8278C23.3123 59.4425 20.9715 60.3373 18.8795 61.39V67.3965C19.5482 67.5509 20.217 67.7028 20.8907 67.8463H55.3297C57.8274 67.37 60.3311 66.9238 62.8735 66.6525C71.7138 65.7107 80.594 66.9178 89.4887 67.8463H106.836C107.408 65.7891 107.946 63.727 108.272 61.6264C108.08 61.3767 107.965 61.1018 107.971 60.8015C107.975 60.5712 108.171 60.3385 108.465 60.1335L108.466 60.1323Z" fill="#6AD4FE"/>
<path id="Vector_7" d="M63.7885 58.2234C46.6462 58.2234 30.9611 59.1821 18.8806 60.769V68.6338H106.616C107.35 66.023 108.064 63.4123 108.398 60.7304C96.3588 59.1664 80.7919 58.2234 63.7897 58.2234H63.7885Z" fill="#FEDD74"/>
<path id="Vector_8" d="M63.7885 63.2796C46.1766 63.2796 30.2645 64.2178 18.8806 65.7276V68.6338H106.616C106.904 67.6124 107.187 66.5922 107.447 65.566C96.162 64.1503 80.7654 63.2784 63.7885 63.2784V63.2796Z" fill="#FFA834"/>
<path id="Vector_9" d="M103.408 50.1175C103.408 50.0644 103.364 50.0222 103.312 50.0222H103.052V49.605C103.052 49.5772 103.03 49.5567 103.003 49.5567H100.56C100.572 49.5459 100.584 49.5362 100.594 49.5254C100.596 49.523 100.597 49.5193 100.6 49.5157C100.615 49.4952 100.626 49.4747 100.624 49.4542C100.554 48.7391 100.486 48.0325 100.417 47.327C100.729 46.9701 101.091 46.5227 101.231 45.962C101.293 45.7196 101.336 45.4627 101.371 45.1999C101.759 44.8104 102.07 44.2086 102.136 43.2705C102.339 40.4077 100.775 37.4352 100.085 35.5757C99.7318 34.6207 99.4227 33.5161 99.168 32.4742C99.3382 31.8507 99.3998 31.0693 99.3189 30.2325C99.2175 29.1833 98.9109 28.2669 98.5101 27.6603C98.4787 27.3432 98.4485 27.0272 98.4171 26.7089C98.4159 26.6968 98.4147 26.6847 98.4147 26.6727C98.4135 26.6655 98.4231 26.6184 98.4244 26.6112C98.4352 26.5244 98.4388 26.4556 98.4304 26.3688C98.4243 26.2989 98.4099 26.2374 98.393 26.1722C98.3869 26.1481 98.3809 26.124 98.3749 26.0987C98.3712 26.0854 98.3628 26.0722 98.3543 26.0625C98.2831 25.9142 98.0501 25.7767 97.7785 25.6778C97.7676 25.5633 97.7568 25.4499 97.7459 25.3354C97.7471 25.3342 97.7495 25.3354 97.7507 25.333C97.7507 25.3281 97.7507 25.3245 97.7507 25.3185C97.7387 25.0978 97.7314 24.9181 97.7302 24.8036C97.7302 24.7951 97.7302 24.7903 97.7302 24.7855V24.7795L97.6892 24.2682C97.6916 24.267 97.6928 24.2657 97.6964 24.2633C97.7 24.2609 97.7012 24.2573 97.7037 24.2561C97.7399 24.2308 97.7749 24.2006 97.8063 24.1488C97.8075 24.1464 97.8087 24.144 97.8099 24.1415C97.8123 24.1379 97.8135 24.1343 97.8159 24.1307C97.8195 24.1247 97.8232 24.1174 97.8256 24.1102C97.8377 24.0788 97.8461 24.0402 97.8485 23.998C97.8509 23.9582 97.8485 23.9136 97.8425 23.8678C97.8884 23.857 97.9342 23.8461 97.9753 23.8365C97.9982 23.8304 98.026 23.8232 98.0549 23.8147C98.1044 23.8003 98.1624 23.781 98.2215 23.7605C98.2336 23.7569 98.2445 23.7532 98.2553 23.7496C98.265 23.746 98.2747 23.7424 98.2831 23.7388C98.4183 23.6917 98.5584 23.6363 98.6537 23.5917C98.6791 23.5796 98.7008 23.5687 98.7177 23.5591C98.7189 23.5579 98.7274 23.5543 98.7286 23.5543C98.731 23.5543 98.7346 23.5495 98.737 23.5495C98.7382 23.5482 98.7455 23.5446 98.7527 23.5398C98.7551 23.5374 98.7563 23.5338 98.76 23.5326C98.7781 23.5193 98.7962 23.5036 98.8131 23.4855C98.8589 23.4747 98.906 23.4638 98.9483 23.453C98.9652 23.4494 98.9857 23.4433 99.0074 23.4373C99.0364 23.4289 99.069 23.4192 99.104 23.4084C99.11 23.406 99.1161 23.4047 99.1221 23.4023C99.1402 23.3963 99.1583 23.3903 99.1764 23.3842C99.1945 23.3782 99.2114 23.3722 99.2296 23.3662C99.2356 23.3637 99.2428 23.3613 99.2489 23.3589C99.3865 23.3107 99.5302 23.254 99.6267 23.2082C99.6521 23.1973 99.6738 23.1865 99.6907 23.1756C99.6919 23.1756 99.7004 23.172 99.7016 23.1708C99.704 23.1696 99.7076 23.1672 99.71 23.166C99.71 23.166 99.7185 23.1612 99.7257 23.1563C99.7281 23.1551 99.7293 23.1515 99.733 23.1491C99.768 23.125 99.8042 23.0948 99.8344 23.043C99.8356 23.0406 99.8368 23.0382 99.838 23.0357C99.8404 23.0321 99.8428 23.0285 99.844 23.0249C99.8476 23.0177 99.8513 23.0104 99.8537 23.0032C99.867 22.9718 99.8742 22.9345 99.8766 22.891C99.8802 22.8488 99.8778 22.8006 99.8706 22.75C99.8621 22.6836 99.8452 22.6125 99.8199 22.5401C99.7945 22.4666 99.7631 22.3942 99.7245 22.3243C99.6883 22.2567 99.6472 22.194 99.6026 22.1374C99.5495 22.0686 99.4939 22.012 99.4372 21.9685C99.4118 21.948 99.3889 21.936 99.3648 21.9215C99.3249 21.8986 99.2851 21.8805 99.2428 21.8697C99.2356 21.8672 99.2295 21.8636 99.2223 21.8624C99.2223 21.8624 99.2078 21.8588 99.2054 21.8576C99.1982 21.8576 99.1945 21.8564 99.1897 21.8552C99.1873 21.8552 99.1837 21.8552 99.1825 21.854H99.1704C99.1632 21.8516 99.1535 21.8516 99.1451 21.8516C99.1426 21.8504 99.1378 21.8504 99.1354 21.8504C99.1269 21.8504 99.1173 21.8516 99.1088 21.8516C99.075 21.8516 99.0388 21.8516 98.9978 21.8564C98.9471 21.8648 98.8903 21.8793 98.8264 21.907C98.8227 21.9082 98.8203 21.9095 98.8167 21.9107C98.7962 21.9215 98.7684 21.9372 98.737 21.9541C98.7274 21.9601 98.7153 21.9661 98.7044 21.9734C98.6839 21.9854 98.6622 21.9975 98.6392 22.0107C98.6247 22.0192 98.6115 22.0276 98.597 22.0373C98.5704 22.053 98.5451 22.0686 98.5173 22.0855C98.4956 22.1 98.4739 22.1132 98.4509 22.1277C98.4292 22.1422 98.4062 22.1555 98.3845 22.1699C98.3797 22.1723 98.3737 22.176 98.3688 22.1796C98.3604 22.1856 98.3531 22.1904 98.3447 22.1965C98.3157 22.2145 98.2891 22.2326 98.2626 22.2495C98.2578 22.2483 98.2541 22.2459 98.2505 22.2447C98.2481 22.2447 98.2348 22.2411 98.2324 22.2411C98.2252 22.2399 98.2215 22.2387 98.2167 22.2387H98.2155L98.1974 22.2362C98.1889 22.235 98.1781 22.2338 98.1696 22.2338H98.1624C98.1624 22.2338 98.1491 22.2338 98.1443 22.2338C98.1081 22.2338 98.0694 22.2338 98.0248 22.2399C97.9741 22.2471 97.9173 22.2616 97.8533 22.2893C97.8497 22.2905 97.8473 22.2929 97.8437 22.2941C97.8232 22.305 97.7942 22.3195 97.764 22.3375C97.7544 22.3424 97.7435 22.3484 97.7338 22.3544C97.7109 22.3677 97.6867 22.3822 97.6614 22.3966C97.6505 22.4039 97.6397 22.4111 97.6276 22.4183C97.5564 22.4617 97.4791 22.5088 97.4055 22.5558C97.4031 22.5582 97.3994 22.5606 97.3958 22.563C97.3898 22.5667 97.3837 22.5703 97.3777 22.5751C97.3475 22.5944 97.3198 22.6125 97.2932 22.6294C97.2835 22.6366 97.2739 22.6426 97.2642 22.6499C97.2304 22.6716 97.2003 22.6921 97.1749 22.7102C97.094 22.7668 97.0228 22.8259 96.9492 22.885C96.9081 22.9176 96.8634 22.9477 96.8236 22.9815C96.8103 22.9935 96.7971 23.008 96.7838 23.0201C96.7632 23.0297 96.7379 23.0442 96.7101 23.0599C96.6981 23.0659 96.6872 23.0731 96.6751 23.0792C96.6546 23.0912 96.6341 23.1045 96.6111 23.1177L96.5677 23.1431C96.5435 23.1575 96.5194 23.1732 96.4952 23.1877C96.4651 23.207 96.4361 23.2251 96.4071 23.2432C96.3914 23.254 96.3757 23.2637 96.36 23.2733C96.354 23.2781 96.3468 23.2817 96.3407 23.2854C96.3287 23.2938 96.319 23.2998 96.3081 23.3071C96.2852 23.3227 96.2635 23.336 96.2417 23.3505C96.2297 23.3589 96.2188 23.3662 96.2079 23.3734C96.1741 23.3951 96.144 23.4156 96.1198 23.4337C96.045 23.4843 95.981 23.5386 95.9146 23.5917C95.8663 23.6302 95.8144 23.6652 95.7685 23.705C95.6756 23.7846 95.5886 23.8702 95.5029 23.9595V23.9498C95.5017 23.9365 95.4993 23.9281 95.4993 23.9209C95.4993 23.916 95.4993 23.9124 95.4969 23.9052C95.4848 23.8087 95.451 23.5796 95.4196 23.3408C95.4184 23.3348 95.4184 23.3276 95.4172 23.3215C95.3665 22.9815 95.3774 23.0056 95.3279 22.6462C95.3134 22.5425 95.3206 22.2917 95.3255 22.1868C95.3327 22.0276 95.3182 21.8709 95.2615 21.7129C95.2542 21.69 95.2446 21.6659 95.2349 21.643C95.2253 21.62 95.2144 21.5971 95.2023 21.5754C95.1661 21.5055 95.1239 21.4355 95.0732 21.3668C94.7641 20.9568 94.2016 20.6782 93.6933 20.4841C93.2068 20.2984 92.6201 20.1597 92.1071 20.255C91.8113 20.3092 91.5723 20.5263 91.4419 20.7916C91.3707 20.7964 91.3007 20.8037 91.2319 20.8169C90.8987 20.8784 90.6319 21.1377 90.5136 21.4452C90.5136 21.4452 90.5136 21.446 90.5136 21.4476C90.5136 21.4476 90.5172 21.4597 90.5196 21.4657C90.5196 21.4693 90.5232 21.4717 90.5244 21.4753C90.6379 21.7129 91.3815 22.1253 92.1964 22.4376C92.5332 22.5655 92.8097 22.6619 93.1827 22.7572C93.435 22.8223 93.6632 22.8874 93.8442 23.0177C93.9299 23.0792 93.9734 23.1841 93.9891 23.289C94.006 23.3999 94.0157 23.4723 94.0241 23.5338C93.9275 23.4916 93.8225 23.4457 93.7477 23.4144C93.6933 23.3903 93.6378 23.3662 93.5823 23.342C93.5738 23.3384 93.5666 23.3348 93.5581 23.3312C93.3167 23.2263 93.0752 23.1214 92.835 23.0165C92.3727 22.8151 91.8379 22.6257 91.396 22.5727C91.396 22.5727 91.3924 22.5715 91.3912 22.5715C91.3876 22.5715 91.3852 22.5715 91.3815 22.5703C91.3586 22.5679 91.3357 22.5655 91.3139 22.5642C91.2982 22.5642 91.2838 22.5727 91.2705 22.5884C91.2379 22.627 91.1993 22.7403 91.1727 22.8597C91.1546 22.9369 91.1413 23.0165 91.1365 23.0816C91.1341 23.1202 91.1353 23.1527 91.1401 23.1768C91.1437 23.1985 91.1498 23.2166 91.157 23.2299C91.1727 23.2588 91.1932 23.2805 91.2174 23.2926C91.2198 23.295 91.2234 23.2962 91.227 23.2974C91.2282 23.2986 91.2306 23.2998 91.2331 23.2998C91.693 23.5 92.0226 23.617 92.4849 23.8184C92.7264 23.9233 92.9726 24.0089 93.2165 24.115C93.2237 24.1186 93.2346 24.1259 93.2418 24.121C93.2937 24.0885 93.3601 24.0668 93.4386 24.0957C93.4857 24.1198 93.5195 24.1657 93.5231 24.191C93.5255 24.2115 93.5159 24.2296 93.5098 24.2428C93.3517 24.6082 93.1923 24.923 93.0342 25.2871C93.0282 25.2992 93.0233 25.31 93.0185 25.3221C93.0125 25.3354 92.9907 25.3969 92.9799 25.4355C92.9775 25.4415 92.9762 25.4475 92.975 25.4523C92.9714 25.462 92.9702 25.4728 92.9702 25.4825C92.9702 25.4873 92.9702 25.4909 92.9702 25.4945C92.9678 25.4957 92.9666 25.4957 92.9642 25.4957C92.9557 25.497 92.9473 25.497 92.9388 25.4982C92.934 25.4994 92.9292 25.4994 92.9243 25.4994C92.9243 25.5066 92.9256 25.515 92.9268 25.5283C92.9364 25.62 92.963 25.8418 92.9883 26.0697C92.7481 26.1915 92.5356 26.3543 92.4173 26.5461C92.4089 26.5617 92.404 26.5847 92.4016 26.5979C92.3968 26.6245 92.3944 26.651 92.392 26.6763C92.3847 26.7475 92.3847 26.8162 92.3908 26.8861C92.3992 26.973 92.4173 27.0923 92.4572 27.143C92.462 27.149 92.4765 27.149 92.4765 27.1562C92.4801 27.1924 92.4837 27.2286 92.4873 27.2648C92.5574 27.9871 92.637 28.8107 92.7095 29.5608C92.2133 30.5424 91.7582 31.5842 91.4902 32.4091C91.2536 32.8323 91.0544 33.2713 91.0133 33.5161C91.0109 33.5305 91.0061 33.5486 91.0049 33.5619C91.0025 33.5836 91.0013 33.6065 91.0001 33.6282C90.9977 33.6572 90.994 33.6861 90.994 33.7162C90.9916 33.7681 90.9916 33.8212 90.9977 33.8754C91.0109 34.0165 91.0254 34.1672 91.0411 34.3204H87.0127L85.721 21.1112C85.7125 21.0316 85.6968 20.952 85.6739 20.8748L85.0039 18.6439C84.9894 18.5933 84.9653 18.5475 84.9447 18.5004H84.9568L85.5423 17.2186C85.6763 16.9243 85.4626 16.5879 85.1403 16.5879H56.5393C56.4162 16.5879 56.316 16.688 56.316 16.8122V17.7504C56.316 17.8239 56.351 17.8927 56.4101 17.9337L57.7163 18.8622L58.8342 19.769C51.626 26.2615 49.6993 35.9568 49.208 41.5581H48.0877L47.9947 41.6522L47.5046 41.6847C47.5046 41.6847 41.4517 44.0687 38.4361 46.0729C37.9303 46.4202 37.4546 46.7627 37.0249 47.0895C36.7979 47.2535 36.5951 47.4103 36.4297 47.5574C36.3718 47.6092 36.3175 47.6743 36.2655 47.7455C36.2583 47.7563 36.2499 47.7672 36.2426 47.778C36.2112 47.8227 36.181 47.8721 36.1521 47.9228C36.0012 48.0337 35.8805 48.1543 35.8104 48.2833C35.4905 48.873 35.3505 50.0174 35.5738 50.3393C35.5702 50.4201 35.5678 50.4973 35.5678 50.5685L35.6994 52.4448H35.5002V53.5349H38.0401C38.0582 53.5482 38.0739 53.5639 38.0945 53.5759C38.1705 53.623 38.278 53.6 38.4144 53.5349H39.4815V52.8114C39.4912 52.8042 39.5021 52.7969 39.5129 52.7885C39.9717 52.862 40.4026 52.9103 40.731 52.903L40.4171 53.1659L40.4618 53.2118L40.4497 53.2214L40.4618 53.2347C40.3881 53.3046 40.3193 53.3794 40.2493 53.4517L40.189 53.395L39.5733 54.127L39.6216 54.162L39.6095 54.1765L39.6216 54.1861C39.5624 54.2669 39.5105 54.3525 39.455 54.4345L39.3886 54.3911L38.9093 55.2183L38.9588 55.2425L38.9467 55.263L38.9661 55.2714C38.9226 55.3606 38.8803 55.4499 38.8393 55.5403L38.7729 55.5114L38.4458 56.4098L38.4928 56.423L38.4844 56.4459L38.5061 56.4532C38.4783 56.5472 38.4458 56.6401 38.4216 56.7353L38.3625 56.7221L38.1959 57.6627L38.2393 57.6675L38.2345 57.6928L38.2562 57.6952C38.2454 57.7929 38.2333 57.8894 38.226 57.9883L38.1681 57.9846V58.9397L38.2043 58.9373V58.9638H38.2236C38.2297 59.0603 38.2417 59.158 38.2514 59.2556L38.1959 59.2617L38.3625 60.2023L38.3914 60.1962L38.3963 60.2203L38.4132 60.2167C38.4361 60.3108 38.4675 60.406 38.4952 60.5001L38.4458 60.5146L38.7729 61.413L38.7958 61.4033L38.8031 61.425L38.826 61.4154C38.8659 61.5058 38.9009 61.5999 38.9443 61.6891L38.9093 61.706L39.3886 62.5332L39.4043 62.5224L39.4139 62.5405L39.4332 62.5284C39.4888 62.6116 39.5443 62.696 39.6023 62.7768L39.5733 62.7973L40.189 63.5305L40.1986 63.5208L40.2095 63.5329L40.2228 63.5208C40.2928 63.5944 40.3676 63.6631 40.4413 63.7331L40.4171 63.7584L41.1499 64.3722L41.1559 64.365L41.1644 64.3722L41.174 64.3589C41.2573 64.4204 41.3467 64.4747 41.4324 64.5314L41.4143 64.5579L42.2436 65.0354L42.246 65.0306L42.2521 65.033L42.2617 65.0137C42.3559 65.0608 42.4512 65.1054 42.5466 65.1476L42.537 65.1717L43.4351 65.4985V65.4961H43.4375L43.4436 65.4732C43.5462 65.5033 43.6476 65.5383 43.7514 65.5636L43.7478 65.5793H43.749V65.5829L44.6894 65.7481L44.693 65.724C44.7968 65.736 44.9019 65.7493 45.0069 65.7565V65.7746H45.0129V65.7771H45.969V65.7553C46.0704 65.7481 46.1731 65.7373 46.2757 65.7252L46.2781 65.7481L46.2902 65.7457V65.7481L47.233 65.5829L47.2281 65.5636C47.3259 65.5395 47.4225 65.5057 47.5191 65.478L47.5263 65.5009L47.5444 65.4949V65.4985L48.4438 65.1717L48.4329 65.1464C48.5235 65.1054 48.6164 65.0692 48.7058 65.0258L48.713 65.0415L48.7347 65.0294L48.7371 65.0354L49.5653 64.5579L49.5496 64.5326C49.6305 64.4783 49.7114 64.4253 49.7898 64.3674L49.8019 64.383L49.8248 64.3638L49.8309 64.3722L50.5636 63.7584L50.5419 63.7355C50.5564 63.7222 50.5685 63.709 50.5818 63.6957L50.8944 63.6402L50.8908 63.6233C50.9934 63.598 51.096 63.5643 51.1986 63.5341L51.2059 63.5582L52.1004 63.2338L52.0908 63.2121C52.1885 63.1687 52.2899 63.1289 52.3841 63.0831L52.3926 63.0988L53.2171 62.6237L53.205 62.6056C53.2943 62.5465 53.3837 62.4874 53.4694 62.4247L53.4815 62.4404L54.2106 61.8302L54.1985 61.8169C54.2758 61.7422 54.3482 61.665 54.4231 61.5878L54.4388 61.6023L55.0508 60.8751L55.0387 60.8655C55.1015 60.7787 55.157 60.6882 55.2174 60.599L55.2367 60.6123L55.5458 60.078H77.6351C77.675 60.078 77.7064 60.0467 77.7088 60.0069L78.0226 59.855L78.4512 60.5966L78.4693 60.5845C78.5285 60.6738 78.5876 60.763 78.6504 60.8486L78.6347 60.8607L79.2455 61.589L79.2588 61.577C79.3325 61.6541 79.4109 61.7277 79.4882 61.8013L79.4725 61.8169L80.2016 62.4295L80.2113 62.4163C80.297 62.479 80.3888 62.5344 80.4769 62.5947L80.4648 62.614L81.2881 63.0903L81.2978 63.071C81.3944 63.1181 81.4909 63.1639 81.5887 63.2061L81.5803 63.2266L81.9304 63.3544L82.0776 63.5305L82.097 63.5124L82.1139 63.5329L82.1271 63.5208C82.1947 63.5908 82.2672 63.6583 82.3372 63.7258L82.3058 63.7584L83.0386 64.3722L83.0506 64.3565L83.0687 64.3722L83.0784 64.3589C83.1593 64.418 83.2438 64.4699 83.3259 64.5253L83.3042 64.5579L84.1323 65.0354L84.1383 65.0234L84.1564 65.033L84.1661 65.0137C84.2554 65.0583 84.346 65.1018 84.4389 65.1428L84.4256 65.1717L85.325 65.4985L85.3274 65.4901L85.3419 65.4961L85.3479 65.4732C85.4469 65.5021 85.5423 65.5359 85.6425 65.5612L85.6365 65.5829L86.5793 65.7481V65.7445H86.5902L86.5926 65.724C86.6952 65.7348 86.799 65.7481 86.9028 65.7553V65.7771H87.8577L87.8613 65.7758V65.7565C87.9664 65.7493 88.0714 65.7373 88.1776 65.7264L88.18 65.7481L88.4336 65.7035L89.1204 65.5841H89.1192L89.1217 65.5829L89.118 65.566C89.2207 65.5419 89.3221 65.5081 89.4235 65.478L89.4307 65.5009L89.8786 65.3393L90.3252 65.1765L90.3337 65.1717L90.324 65.1512C90.4194 65.1102 90.5172 65.0716 90.6101 65.0258L90.6174 65.0415L91.4419 64.5676L91.4552 64.5579L91.4431 64.5398C91.5276 64.4831 91.6133 64.4277 91.6942 64.3674L91.7063 64.383L91.7196 64.3722L92.3545 63.8404L92.4354 63.7729L92.4523 63.7584L92.4391 63.7439C92.5115 63.6752 92.5791 63.6028 92.6479 63.5305L92.6636 63.5462L92.6793 63.5281L92.6817 63.5305L93.2962 62.7973L93.2817 62.7865C93.3384 62.7081 93.3879 62.6237 93.4422 62.5429L93.4615 62.5549L93.476 62.5296L93.4821 62.5332L93.9601 61.706L93.9348 61.6927C93.977 61.6071 94.0157 61.5203 94.0543 61.4323L94.0748 61.4419L94.0869 61.4081L94.0965 61.413L94.4237 60.5146L94.3899 60.5049C94.4164 60.4145 94.4466 60.3253 94.4684 60.2336L94.4853 60.2384L94.4913 60.1986L94.5082 60.2023L94.6736 59.2617L94.6337 59.2568C94.6434 59.1652 94.6555 59.0735 94.6615 58.9807H94.6796V58.9385H94.7026V57.9846L94.6579 57.987C94.6506 57.8954 94.641 57.805 94.6313 57.7133L94.6531 57.7109L94.6458 57.6663L94.6736 57.6627L94.5082 56.7221L94.4635 56.7317C94.4406 56.6449 94.408 56.5581 94.3826 56.47L94.4056 56.464L94.3899 56.4194L94.4237 56.4098L94.1979 55.7875L95.5367 55.4016H96.9455C97.199 55.4016 97.4043 55.1966 97.4043 54.9434V52.8862H103.002C103.029 52.8862 103.05 52.8645 103.05 52.8379V52.288H103.314C103.365 52.2868 103.409 52.2446 103.409 52.1928L103.406 50.1175H103.408ZM42.3281 51.942C42.3124 51.9492 42.2979 51.9576 42.2834 51.9649L42.2786 51.9576C42.2955 51.9395 42.3112 51.9227 42.3281 51.9034V51.942ZM59.3762 20.2079L59.4257 20.2477C58.9863 20.6071 58.5662 20.9797 58.1654 21.3632C58.5505 20.9677 58.9537 20.5818 59.3762 20.2079ZM83.0398 41.8391H82.2901V41.7185C82.2901 41.3917 82.0245 41.1264 81.6974 41.1264H81.5127C81.905 40.9998 82.0112 40.7441 81.9931 40.503C81.9654 40.1484 81.5803 39.6986 81.1288 39.355V39.0065C81.2193 38.9835 81.4064 38.8967 81.439 38.5808C81.573 37.2615 81.8978 34.4072 81.9581 33.6957C82.0185 32.9843 82.1247 30.6557 81.1638 30.5773C80.4576 30.5195 79.4001 31.8399 78.7325 33.6572C78.6999 33.7295 78.6661 33.8043 78.6323 33.8815C78.2146 34.8329 78.0697 36.3559 78.1772 36.907C78.2484 37.7439 78.4886 38.5132 78.7156 38.869C77.1112 38.6507 73.0924 38.2757 71.284 39.6721C70.7142 40.1122 71.045 41.0251 71.4555 41.1276C71.575 41.1577 72.3621 41.1698 73.4136 41.1722C73.1999 41.2627 73.0502 41.4725 73.0502 41.7185V41.8813C71.6873 42.0344 68.2902 42.7652 68.2902 46.2345V46.2996C68.289 46.4745 68.2866 46.624 68.2866 46.753C68.2854 46.7735 68.2866 46.7916 68.2866 46.8121V46.9243C68.2866 46.9593 68.289 46.9906 68.2902 47.0208C68.2914 47.0388 68.2926 47.0569 68.2938 47.0738C68.2962 47.1052 68.2998 47.1341 68.3035 47.1594C68.3059 47.1715 68.3083 47.1811 68.3107 47.192C68.3155 47.2173 68.3216 47.2426 68.3288 47.2631C68.3312 47.268 68.3336 47.2704 68.3349 47.274C68.3542 47.3198 68.3819 47.3536 68.4206 47.3729C68.4495 47.3873 68.4833 47.397 68.5256 47.397H68.6246V47.9493H68.6463V52.6679L68.6246 52.6872L58.0205 52.61L56.8978 50.6022L56.4741 47.8299C56.45 47.678 56.3075 47.573 56.1554 47.596L55.9671 47.6249C55.8162 47.6478 55.7099 47.7913 55.7341 47.942L55.8548 48.7391L55.349 47.8335V46.4902C55.349 45.9728 55.0267 45.511 54.5414 45.3313L53.7953 45.054L53.269 44.1134C53.2497 44.0929 53.2291 44.0736 53.211 44.0519C52.9515 43.7408 52.797 43.3742 52.6835 42.9919L52.6533 43.0136L52.6473 43.0027C52.4541 42.6567 52.1487 42.3926 51.7877 42.2467L51.7443 42.1647L50.3476 41.78C50.7278 36.292 52.634 25.3185 61.5661 19.4929H82.0487L83.3162 41.5726L83.0386 41.8391H83.0398ZM87.5257 40.5054C87.5704 40.3546 87.5885 40.1943 87.5728 40.0351L87.0694 34.8908H91.0966C91.1304 35.2417 91.1667 35.6071 91.2017 35.9737L91.2113 36.0641C91.2246 36.2052 91.2379 36.3451 91.2512 36.4862C91.2922 37.68 91.3779 39.0909 91.5337 40.5054H87.5257ZM93.7404 25.8418C93.6245 25.8527 93.4978 25.878 93.3698 25.9166C93.342 25.6899 93.3288 25.5524 93.3215 25.4873C93.3215 25.4765 93.3203 25.4668 93.3191 25.4596C93.3119 25.4596 93.3046 25.4596 93.2974 25.462C93.2925 25.462 93.2877 25.462 93.2841 25.4632C93.2829 25.4632 93.2829 25.462 93.2829 25.462C93.2829 25.456 93.2829 25.4523 93.2793 25.4499C93.2793 25.4475 93.2768 25.4451 93.2744 25.4427C93.2587 25.4306 93.2249 25.4234 93.2298 25.4101C93.2358 25.3993 93.2551 25.3945 93.2599 25.3824C93.4193 25.0182 93.5593 24.6987 93.7175 24.3345C93.7259 24.314 93.7344 24.3031 93.7489 24.2899C93.767 24.2742 93.8141 24.267 93.8527 24.2754C93.8575 24.2766 93.8623 24.279 93.8672 24.2814C93.9263 24.3067 94.0229 24.3043 94.1255 24.2838C94.1436 24.4237 94.1545 24.5166 94.1605 24.5672C94.1605 24.572 94.1617 24.5769 94.1617 24.5829C94.1617 24.5901 94.1617 24.601 94.1654 24.613C94.1798 24.6926 94.1955 24.8 94.2245 24.976C94.2245 24.9796 94.2245 24.9832 94.2245 24.9869C94.2245 24.9905 94.2257 24.9941 94.2257 24.9977C94.2257 25.005 94.2281 25.011 94.2293 25.0194C94.2329 25.0423 94.2378 25.0713 94.2426 25.0966C94.245 25.1111 94.2474 25.1243 94.2499 25.1388C94.2535 25.1641 94.2571 25.1834 94.2619 25.21C94.2619 25.2208 94.2643 25.2292 94.2692 25.2353C94.2716 25.2377 94.2764 25.2365 94.28 25.2365C94.2788 25.2365 94.2764 25.2365 94.2752 25.2377L94.3513 25.8744C94.1448 25.8382 93.9396 25.8225 93.7404 25.8418ZM94.7871 25.9757L94.6929 25.187H94.6893C94.6893 25.187 94.6965 25.187 94.6977 25.1822C94.7001 25.1774 94.7001 25.1738 94.6989 25.1653C94.6941 25.093 94.6893 25.0255 94.6844 24.9603C94.6844 24.9459 94.6832 24.9326 94.682 24.9181C94.6724 24.7698 94.6663 24.6432 94.6627 24.554C94.6627 24.5395 94.6603 24.531 94.6591 24.5238C94.6591 24.519 94.6579 24.5154 94.6567 24.5081C94.6446 24.4117 94.6108 24.1801 94.5794 23.939V23.9365C94.5794 23.9365 94.5794 23.9341 94.5794 23.9329C94.5794 23.9281 94.5782 23.9233 94.5782 23.9185C94.5263 23.5748 94.5372 23.5989 94.4877 23.2347C94.4732 23.131 94.4804 22.8766 94.4853 22.7705C94.4925 22.6101 94.4768 22.4509 94.4213 22.2917C94.5203 22.3291 94.6108 22.3725 94.6929 22.4316C94.7774 22.4919 94.8209 22.5956 94.8366 22.6993C94.8873 23.0394 94.8776 23.0333 94.9295 23.3746C94.9295 23.377 94.9295 23.3782 94.9295 23.3806C94.9754 23.711 94.9959 23.8847 95.0056 23.9631C95.0056 23.9691 95.0056 23.9739 95.0056 23.9787C95.0068 23.986 95.0068 23.998 95.0092 24.0089C95.0237 24.0873 95.0394 24.1934 95.0671 24.3682C95.0695 24.3815 95.072 24.396 95.0744 24.4105C95.078 24.4334 95.0828 24.4623 95.0864 24.4876C95.0889 24.5009 95.0901 24.5154 95.0925 24.5298C95.0973 24.554 95.0997 24.5732 95.1045 24.5998C95.1045 24.6094 95.107 24.6191 95.1118 24.6239C95.1142 24.6263 95.119 24.6251 95.1227 24.6251C95.1227 24.6251 95.119 24.6263 95.1166 24.6263C95.1782 25.134 95.2385 25.6417 95.3001 26.1493C95.1299 26.0854 94.9585 26.0263 94.7871 25.9757ZM95.7045 25.9805C95.7045 25.9552 95.7045 25.9311 95.7045 25.9094C95.7033 25.9021 95.7033 25.8973 95.7021 25.8925L95.7045 25.8852L95.6393 25.1123C95.6393 25.1038 95.6381 25.0954 95.6381 25.087C95.6381 25.0833 95.6381 25.0773 95.6381 25.0737C95.6381 25.0665 95.6381 25.058 95.6357 25.0496C95.6357 25.0411 95.6357 25.0315 95.6369 25.023C95.6369 25.0158 95.6369 25.0098 95.6369 25.0037C95.6369 24.9929 95.6418 24.982 95.6454 24.9712C95.6478 24.964 95.6478 24.9591 95.6514 24.9531C95.6587 24.9362 95.6695 24.9193 95.684 24.9037C95.7094 24.8783 95.742 24.8615 95.7782 24.8446C95.7902 24.8397 95.8011 24.8325 95.8144 24.8277C95.8566 24.8132 95.9025 24.8 95.9605 24.7867L96.0413 24.7674C96.0969 24.7541 96.156 24.7409 96.22 24.7264C96.2454 24.7204 96.2707 24.7143 96.2961 24.7083L96.3359 25.2039C96.3359 25.2039 96.3371 25.2196 96.3395 25.228C96.3504 25.2956 96.3612 25.386 96.3818 25.5355C96.3842 25.5476 96.3854 25.5585 96.3866 25.5717H96.3878C96.3902 25.591 96.3938 25.6151 96.3963 25.6368C96.3975 25.6429 96.3975 25.6477 96.3987 25.6537C96.1645 25.7357 95.9327 25.8515 95.7045 25.9817V25.9805ZM96.9129 25.5343C96.8659 25.5392 96.8188 25.55 96.7717 25.5572C96.7705 25.5476 96.7705 25.538 96.7705 25.5283C96.7705 25.5211 96.7705 25.5126 96.7705 25.5042C96.7645 25.374 96.7608 25.2642 96.7596 25.1858C96.7596 25.1786 96.7596 25.1738 96.7596 25.169V25.1617L96.715 24.6094C96.7451 24.6022 96.7717 24.5962 96.8007 24.5889C96.8417 24.5793 96.884 24.5684 96.9226 24.56C96.989 24.5431 97.0832 24.513 97.1846 24.4792C97.1894 24.4768 97.1954 24.4756 97.2015 24.4732C97.2147 24.4683 97.228 24.4635 97.2401 24.4587C97.2546 24.4539 97.2679 24.449 97.2811 24.4442L97.3113 24.8192C97.3125 24.8265 97.3125 24.8349 97.3149 24.8446C97.3258 24.9145 97.3379 25.0086 97.3608 25.1714C97.3608 25.1762 97.3608 25.181 97.3608 25.187C97.3644 25.2063 97.368 25.2305 97.3705 25.2522C97.3717 25.2642 97.3741 25.2763 97.3753 25.2883C97.3789 25.31 97.3801 25.3257 97.3837 25.3486C97.3849 25.3571 97.3862 25.3643 97.3898 25.3691C97.3898 25.3691 97.3946 25.3691 97.3958 25.3691C97.4031 25.4379 97.4091 25.5066 97.4163 25.5753C97.2341 25.538 97.0566 25.5199 96.9141 25.5331L96.9129 25.5343ZM99.5084 37.5063C99.4867 37.487 99.471 37.4726 99.4686 37.469C99.4662 37.4702 99.465 37.4714 99.4637 37.4726C99.4637 37.4726 99.4629 37.4718 99.4613 37.4702C99.4601 37.4557 99.4589 37.4412 99.4577 37.4255L99.4541 37.4002C99.4722 37.434 99.4927 37.4653 99.5157 37.4991C99.5133 37.5015 99.5108 37.5039 99.5084 37.5063ZM99.6835 37.5365C99.6835 37.5365 99.6774 37.5329 99.675 37.5305C99.6774 37.5268 99.681 37.5232 99.6847 37.5196C99.681 37.5172 99.6786 37.5136 99.675 37.5112C99.6605 37.4979 99.646 37.4858 99.6316 37.4726C99.6171 37.4605 99.6026 37.4472 99.5881 37.4352C99.5845 37.4328 99.5821 37.4292 99.5784 37.4267C99.5567 37.3906 99.5362 37.3496 99.5145 37.3098C99.4915 37.27 99.4674 37.2242 99.4336 37.1832C99.4191 37.03 99.4034 36.8769 99.3889 36.7237C99.5241 36.977 99.6243 37.2495 99.6943 37.528C99.6907 37.5317 99.6871 37.5341 99.6835 37.5365Z" fill="url(#paint2_linear_415_562)"/>
<path id="Vector_10" d="M99.6775 37.6572C99.6775 37.6572 99.6726 37.6523 99.6702 37.6498C99.6702 37.6498 99.6702 37.6498 99.6714 37.6498C99.6726 37.6523 99.6775 37.6559 99.6775 37.6584V37.6572Z" fill="url(#paint3_linear_415_562)"/>
<path id="Vector_11" d="M72.1786 54.8566H72.214L72.2128 54.8578H72.1773L72.1786 54.8566Z" fill="url(#paint4_linear_415_562)"/>
<path id="Vector_12" d="M90.8733 21.5766C90.8758 21.5778 90.8794 21.5803 90.8819 21.5815C90.8806 21.5815 90.8782 21.579 90.8758 21.5778C90.8758 21.5778 90.8733 21.5766 90.8733 21.5754V21.5766Z" fill="url(#paint5_linear_415_562)"/>
<path id="Vector_13" d="M93.4495 24.0993C93.4519 24.0993 93.4556 24.1018 93.458 24.103C93.458 24.103 93.4556 24.103 93.4543 24.1018C93.4519 24.1018 93.4507 24.1006 93.4495 24.0993Z" fill="url(#paint6_linear_415_562)"/>
<path id="Vector_14" d="M92.6279 26.9778C92.6144 26.9912 92.5985 27.0046 92.5851 27.018C92.5985 27.0033 92.6144 26.9912 92.6279 26.9778Z" fill="url(#paint7_linear_415_562)"/>
<path id="Vector_15" d="M92.7765 26.8511C92.7562 26.8667 92.7346 26.8798 92.7155 26.8966C92.7346 26.881 92.7562 26.8667 92.7765 26.8511Z" fill="url(#paint8_linear_415_562)"/>
<path id="Vector_16" d="M69.1956 22.674C69.1956 22.674 70.171 24.6878 70.2724 25.5151C70.3738 26.3423 70.4559 26.5811 70.4559 26.5811C70.4559 26.5811 70.078 26.2772 70.078 25.8093C70.078 26.7005 70.4004 26.9127 70.4004 27.3818C70.4004 27.8509 70.3642 28.0619 70.4559 28.0619C70.5476 28.0619 70.2627 28.0619 70.2627 27.7218C70.2627 27.3818 70.1529 27.0598 70.1529 27.0598C70.1529 27.0598 69.9875 27.8135 70.171 27.998C70.3545 28.1825 70.8519 28.9084 70.8519 29.064C70.8519 29.2195 70.8977 29.9648 70.8977 30.0842C70.8977 30.2035 70.7686 30.581 70.7686 30.581L70.2229 29.4402C70.2229 29.4402 69.4177 28.3151 69.3441 28.2452C69.2704 28.1752 68.8829 28.0715 68.6801 27.8702C68.4773 27.6676 68.1743 27.0707 68.1743 26.7764C68.1743 26.4822 68.0729 24.589 67.9908 24.0463C67.9087 23.5037 68.2745 22.6764 68.2745 22.6764H69.1968L69.1956 22.674Z" fill="#69554F"/>
<path id="Vector_17" d="M58.5481 38.2564L58.9525 37.9441L59.4124 38.2202L60.2961 38.2757C60.2961 38.2757 61.3826 38.9739 61.5298 39.121C61.6771 39.2681 62.6163 39.4333 62.6163 38.8822C62.6163 38.3311 60.9878 36.4283 60.5737 36.0134C60.1597 35.5998 57.4809 33.5679 57.0765 33.5679C56.6721 33.5679 56.5248 33.844 56.5248 34.2118C56.5248 34.5796 57.3167 35.6649 57.3167 35.6649L57.1694 35.9953L57.5738 36.345L57.8865 36.9154L57.5557 37.2097V37.7246L52.7052 42.6759C52.6738 43.5707 52.6883 44.5209 53.316 45.1769C53.3897 45.2529 53.4681 45.3228 53.5502 45.3892L53.5249 45.3361H53.7084L53.6528 44.5089C53.6528 44.5089 54.021 44.2882 54.021 44.012C54.021 43.7359 53.8919 42.8628 53.8919 42.8628L58.3283 38.4228L58.5493 38.2576L58.5481 38.2564Z" fill="url(#paint9_linear_415_562)"/>
<path id="Vector_18" d="M56.5924 33.0663C56.5924 33.0663 56.1916 32.9469 56.0407 32.9746C55.8898 33.0023 55.8753 33.1543 55.8753 33.1543L56.1795 33.3195C56.1795 33.3195 55.9912 33.797 55.9912 33.8477C55.9912 33.8983 56.0045 34.3481 56.0045 34.3807C56.0045 34.4132 56.0829 34.4952 56.1107 34.523C56.1385 34.5507 56.2351 34.5833 56.2351 34.5833C56.2351 34.5833 56.2761 34.2987 56.2761 34.2251C56.2761 34.1516 56.2894 34.0418 56.2894 34.0418C56.2894 34.0418 56.3304 34.5567 56.3582 34.5845C56.386 34.6122 56.4777 34.6858 56.4777 34.6858L56.7095 34.7171C56.7095 34.7171 56.4862 34.1395 56.5743 34.0515C56.6624 33.9634 56.9376 33.9043 56.9376 33.9043C56.9376 33.9043 57.2503 34.1021 57.2503 34.1431C57.2503 34.1841 57.6921 34.6713 58.0096 34.8329C58.3271 34.9945 58.635 35.0994 58.635 35.0994C58.635 35.0994 60.0872 35.7506 60.7934 35.9097C61.4985 36.0689 62.7938 35.9833 62.7938 35.9833C62.7938 35.9833 62.4811 35.2477 62.2964 34.8859C62.1129 34.5242 62.0019 34.1383 62.0019 34.0949C62.0019 34.0515 58.6893 34.2239 58.3139 33.8501C57.9396 33.4763 57.2467 32.9252 57.0994 32.9252C56.9521 32.9252 56.5912 33.0675 56.5912 33.0675L56.5924 33.0663Z" fill="#F6A48E"/>
<path id="Vector_19" d="M64.8798 23.5928C64.8798 23.5928 64.6468 25.4342 65.0706 26.2434C65.4943 27.0525 65.813 27.3287 65.8746 27.4878C65.9361 27.647 65.8866 28.5056 65.8866 28.5056L64.6903 29.8104L62.6779 31.858V33.3038L64.8617 33.6342L66.5059 30.5821L69.2704 28.1728C69.2704 28.1728 69.07 28.0811 68.9602 27.6036C68.8503 27.1261 69.07 25.3727 69.07 25.3727C69.07 25.3727 69.4901 25.3209 69.4901 25.146V24.7782C69.4901 24.6685 69.472 24.5756 69.3803 24.484C69.2885 24.3923 69.233 24.3743 69.1231 24.1258C69.0133 23.8774 68.8563 23.5277 68.8563 23.5277C68.8563 23.5277 68.2576 24.1439 67.8169 23.9787C67.3751 23.8135 66.3816 23.2154 65.8746 23.1515C65.3675 23.0876 64.881 23.5928 64.881 23.5928H64.8798Z" fill="#F6A48E"/>
<path id="Vector_20" d="M68.6897 24.1174C68.6897 23.9799 68.9384 23.3456 68.9384 23.3456L69.7207 23.576L69.9416 23.5856C69.9416 23.5856 70.0478 21.9167 69.2511 21.122C68.4555 20.3273 66.7474 20.056 65.6524 20.8651C64.5575 21.6743 64.741 23.1491 64.741 23.1491C64.741 23.1491 64.2352 23.7436 64.2352 23.8256V24.1198C64.2352 24.1753 65.1925 23.7617 65.1925 23.7617L67.5212 24.4876L68.6897 24.1198V24.1174Z" fill="#D6D6D6"/>
<path id="Vector_21" d="M68.8986 35.2899C68.9541 35.2344 70.0032 33.9779 70.0032 33.9779C70.0032 33.9779 71.6474 35.5588 72.1134 36.0255C72.5793 36.4922 72.8123 37.0433 72.8123 37.0433C72.8123 37.0433 71.4868 38.7713 71.2659 38.992C71.045 39.2126 69.3634 40.6103 69.3634 40.6103L69.1183 40.7936C69.1183 40.7936 69.1799 42.2623 69.1799 42.3431C69.1799 42.4239 69.1002 42.3431 69.1799 42.4239C69.2595 42.5047 71.622 41.0384 72.653 40.2171C73.6839 39.3959 75.4513 38.0104 75.4513 37.8512C75.4513 37.692 75.6106 37.6305 75.6106 37.3857C75.6106 37.1409 74.6038 35.1922 73.2916 33.8802C71.9782 32.5682 71.5617 32.0786 71.2418 31.5517C70.9219 31.0247 70.7698 30.5797 70.7698 30.5797C70.7698 30.5797 70.113 28.6334 70.0153 28.5358C69.9175 28.4381 68.4688 27.9594 68.4688 27.9594C68.4688 27.9594 65.0718 30.1492 64.6408 30.5797C64.2098 31.0102 64.0275 34.2155 64.0275 34.4651C64.0275 34.7147 66.1594 36.2462 66.1594 36.2462L68.8986 35.2899Z" fill="#F6A48E"/>
<path id="Vector_22" d="M66.6834 61.0186C66.6834 61.0186 66.4528 61.4045 66.3611 61.4962C66.2693 61.5878 66.2319 61.5142 66.2319 61.671C66.2319 61.8278 66.4069 62.0111 66.2959 62.0111C66.1848 62.0111 65.9965 61.9146 65.8818 62.0292C65.7671 62.1437 65.679 62.5995 65.5317 62.9119C65.3844 63.2242 65.3011 63.4907 65.3663 63.4907C65.4315 63.4907 65.5233 63.463 65.5233 63.2797C65.5233 63.0964 65.6331 62.9492 65.7068 62.7008C65.7804 62.4524 65.9373 62.2498 65.9373 62.2498C65.9373 62.2498 66.1945 62.1401 66.2416 62.1859C66.2886 62.2318 66.3104 62.5947 66.1957 62.7105C66.081 62.8262 65.4412 63.639 65.1188 63.768C64.7965 63.8971 64.0831 64.3059 63.9684 64.4204C63.8537 64.535 63.8585 64.705 63.8585 64.705C63.8585 64.705 62.6248 64.7967 62.533 65.0173C62.4413 65.238 62.533 65.6794 62.533 65.6794C62.533 65.6794 63.0763 66.2956 64.374 66.3776C65.6717 66.4608 66.8777 66.1846 67.9727 66.1846C69.0676 66.1846 70.2555 65.8542 70.2555 65.4949C70.2555 65.1355 69.9428 64.7967 69.9428 64.6676C69.9428 64.5386 69.6664 64.125 69.6664 64.0056C69.6664 63.8862 69.6108 63.7729 69.6108 63.7053C69.6108 63.6378 70.1951 63.3846 70.5307 63.0493C70.8663 62.7141 70.7335 62.4054 70.6684 62.1763C70.6044 61.946 69.9332 61.5552 69.7569 61.2755C69.5807 60.9957 69.361 60.6038 69.3151 60.558C69.2692 60.5122 67.9534 60.429 67.9534 60.429L66.6834 61.0174V61.0186Z" fill="#D6D6D6"/>
<path id="Vector_23" d="M62.4498 47.321L61.8606 48.387C61.8606 48.387 61.7073 49.1286 61.0687 50.5383C60.4301 51.948 59.7553 53.272 59.9026 53.8352C60.0498 54.3995 60.5267 55.0362 61.1653 55.515C61.8039 55.9925 62.0743 56.2011 62.2095 56.4954C62.3447 56.7896 63.5712 58.2608 64.3451 59.0325C65.1177 59.8043 65.7563 60.5893 66.0267 60.8595C66.2971 61.1296 66.7752 61.7663 66.7752 61.7663L66.9961 62.0605H67.217L67.3884 61.6927L67.3522 59.6704C67.3522 59.6704 66.1438 56.6003 65.1925 55.65C64.2412 54.6998 63.7572 54.3019 63.7572 54.2042C63.7572 54.1065 63.6364 53.9956 63.6364 53.9956C63.6364 53.9956 64.4078 52.2917 64.8859 51.6055C65.3639 50.9194 65.7575 50.2935 65.7575 50.2935L65.8553 50.2199C65.8553 50.2199 66.1378 51.2257 66.3333 52.1566C66.5301 53.0887 66.419 53.3215 66.6279 53.7375C66.8367 54.1547 67.0576 54.5708 67.0576 54.865C67.0576 55.1592 67.3027 55.7477 67.3027 56.1396C67.3027 56.5315 67.2786 60.4181 67.2786 60.5893C67.2786 60.7606 67.1434 62.7225 67.1434 62.8202C67.1434 62.9179 67.782 63.7705 68.0765 63.8959C68.3711 64.0213 69.2053 63.6173 69.2053 63.3231C69.2053 63.0288 69.5372 60.7811 69.9537 59.6089C70.3702 58.4368 70.2845 57.1212 70.1867 55.7718C70.0889 54.4237 69.9416 54.7914 69.9416 54.1656C69.9416 53.5397 69.6471 53.1358 69.7449 52.5473C69.8427 51.9588 70.5308 50.3972 70.5308 48.5607C70.5308 46.7241 69.3163 45.4627 69.3163 45.4627L66.8126 46.5842L62.4498 47.3198V47.321Z" fill="#F6A48E"/>
<path id="Vector_24" d="M63.1789 40.7959C63.1789 40.7959 63.3527 42.6868 63.3527 43.0727C63.3527 43.4585 63.4445 43.7709 63.4445 44.1941C63.4445 44.6174 63.4795 44.8694 63.1789 45.1685C62.8783 45.4675 62.4691 45.6834 62.2663 46.1802C62.0635 46.677 61.8618 47.081 61.8618 47.4307C61.8618 47.7804 61.9633 48.2857 61.8618 48.387C61.7604 48.4883 62.1383 47.9637 62.5065 47.9637C62.8747 47.9637 63.2429 48.276 63.832 48.276C64.4211 48.276 64.9366 48.6993 65.9857 48.5148C67.0347 48.3315 67.0721 48.4412 67.6238 48.2387C68.1755 48.0361 68.7465 47.7792 68.9312 47.5947C69.1147 47.4114 69.1521 46.8229 69.5022 46.8229C69.8523 46.8229 70.5332 47.0798 70.6805 47.0798C70.8277 47.0798 71.1585 47.2631 71.4531 47.2631C71.7476 47.2631 72.2257 46.8037 72.2257 46.8037C72.2257 46.8037 72.5202 46.8398 72.5202 46.7301C72.5202 46.6204 71.5267 43.8432 71.5267 43.8432C71.5267 43.8432 70.4595 42.1779 70.4595 41.95C70.4595 41.7221 70.1469 41.1806 70.1469 41.1806C70.1469 41.1806 68.9505 39.6335 68.8214 39.5044C68.6922 39.3754 68.3795 38.6362 68.3795 38.6362L67.9015 37.85C67.9015 37.85 66.0062 38.1997 65.9132 38.2913C65.8203 38.383 63.1813 40.7947 63.1813 40.7947L63.1789 40.7959Z" fill="#D6D6D6"/>
<path id="Vector_25" d="M65.9108 28.3464C65.9108 28.3464 63.9503 30.3325 63.5362 30.7461C63.1221 31.1597 61.8618 32.1437 61.8618 33.2556C61.8618 34.3674 62.6779 35.9893 62.7358 35.9869C62.7938 35.9845 62.9567 37.5401 62.9567 38.1743C62.9567 38.8086 63.1958 40.9503 63.1958 40.9503C63.1958 40.9503 63.2054 41.3736 63.6654 41.0793C64.1253 40.7851 66.9321 39.3416 67.4391 39.1306C67.9461 38.9196 68.0004 38.8822 68.12 38.8822C68.2395 38.8822 68.3505 38.7906 68.3505 38.7906C68.3505 38.7906 68.4242 38.4324 68.4242 38.2021C68.4242 37.9718 68.4338 37.6594 68.4338 37.6594C68.4338 37.6594 68.6644 37.1819 68.6644 36.9516C68.6644 36.7213 68.6185 36.3354 68.6185 36.3354C68.6185 36.3354 68.9964 35.5262 69.0881 35.2875C69.1799 35.0487 69.2813 34.828 69.2813 34.828C69.2813 34.828 68.0668 34.5241 67.2109 33.9731C66.355 33.422 66.0424 32.5477 66.1063 32.1799C66.1703 31.8121 66.728 30.8703 67.2568 30.3409C67.7856 29.8116 67.8556 29.5137 68.3614 29.2376C68.8672 28.9614 69.5855 28.7226 69.7509 28.8878C69.9163 29.0531 70.4595 29.8718 70.4595 29.8718C70.4595 29.8718 69.9489 28.8468 69.5203 28.4188C69.093 27.9919 69.3271 28.1426 68.7561 28.2813C68.1851 28.4188 67.689 29.0072 66.961 29.7344C66.2343 30.4603 64.9366 31.8302 64.5587 32.0051C64.1809 32.1799 63.5374 32.6213 63.1692 32.3825C62.801 32.1437 62.9024 31.5733 63.6943 30.9668C64.4863 30.3602 65.8383 28.8251 65.8383 28.8251L65.912 28.3476L65.9108 28.3464Z" fill="#CAA2C1"/>
<path id="Vector_26" d="M118.02 31.1103C117.557 31.3696 117.242 31.6011 116.889 31.8712C116.544 32.1329 116.223 32.4115 115.906 32.6936C115.276 33.2628 114.694 33.8706 114.139 34.5001C113.029 35.759 112.054 37.1156 111.158 38.5156C109.375 41.3278 107.926 44.3015 106.743 47.4102C105.571 50.5154 104.666 53.717 104.023 56.9693C103.693 58.5948 103.441 60.2348 103.234 61.8832C103.131 62.7081 103.046 63.5365 102.979 64.3698C102.909 65.2139 102.858 66.0146 102.84 66.9299L106.898 66.8454C106.868 66.1472 106.864 65.3333 106.881 64.5663C106.894 63.7885 106.925 63.0059 106.974 62.2245C107.072 60.6617 107.21 59.094 107.428 57.5384C107.841 54.4224 108.508 51.3402 109.43 48.3388C110.356 45.347 111.57 42.4022 113.08 39.6576C113.839 38.2877 114.674 36.9589 115.627 35.7313C116.103 35.1187 116.604 34.5254 117.14 33.9767C117.409 33.7054 117.682 33.4365 117.967 33.1905C118.107 33.0614 118.253 32.9505 118.396 32.8323C118.533 32.7262 118.703 32.6032 118.801 32.5381L118.022 31.1127L118.02 31.1103Z" fill="url(#paint10_linear_415_562)"/>
<path id="Vector_27" d="M117.34 49.049C117.364 48.973 117.408 48.8657 117.441 48.7801C117.528 48.5643 117.635 48.2978 117.714 47.9661C117.725 47.942 117.756 47.8926 117.778 47.8588C117.805 47.8178 117.831 47.7756 117.854 47.7346C117.944 47.5778 117.962 47.3728 117.985 47.0533C117.991 46.9701 117.999 46.8567 118.006 46.8205C118.098 46.3406 118.163 45.9366 118.21 45.5508C118.311 44.738 118.355 43.9083 118.344 43.0859C118.326 41.7703 118.073 40.5283 117.829 39.326C117.718 38.7761 117.602 38.2081 117.51 37.6414C117.414 37.0433 117.351 36.4367 117.334 35.9302C117.359 35.7469 117.557 34.933 117.613 34.787C117.569 34.8992 117.418 35.0656 117.177 35.0656L116.892 34.9727L117.463 34.1889C117.463 34.1889 117.467 34.1974 117.468 34.201C117.451 34.1359 117.517 33.9236 117.554 33.8103C117.583 33.7186 117.613 33.6234 117.635 33.5269L117.868 32.5043L116.921 32.9975C116.853 33.0325 116.734 33.0952 116.674 33.1085L115.986 32.6165L115.947 33.2049C115.592 33.3689 114.949 33.6583 114.821 33.7017C114.49 33.7898 114.142 33.8308 113.774 33.873C113.619 33.8911 113.464 33.9092 113.308 33.9309C112.115 34.0973 110.92 34.3517 109.756 34.6857C107.448 35.349 105.255 36.3233 103.236 37.5847C103.145 37.6426 103.052 37.7005 102.96 37.7583C102.675 37.9392 102.402 38.1117 102.122 38.2648C102.427 36.872 103.393 35.6685 104.329 34.5025C104.448 34.3529 104.568 34.2046 104.685 34.0575C106.396 31.8953 108.631 30.3349 110.819 29.7742L110.845 29.767L110.872 29.7573C111.343 29.5764 111.73 29.4896 112.055 29.4896C112.093 29.4896 112.133 29.4908 112.172 29.4932L113.854 29.6138L112.493 28.619C112.412 28.5599 112.306 28.4996 112.183 28.4296C112.074 28.3681 111.857 28.2439 111.782 28.1776L111.705 28.0257L111.504 27.9666C111.108 27.8484 110.747 27.6494 110.563 27.4468L110.437 27.3082L110.251 27.2901C109.974 27.2635 109.654 27.0851 109.345 26.9114C109.294 26.8825 109.243 26.8547 109.193 26.827L109.091 26.7715L108.977 26.7679C108.752 26.7595 108.424 26.6039 108.135 26.4665C107.946 26.376 107.75 26.2832 107.56 26.2192C106.936 26.0058 106.29 25.8346 105.643 25.7116C105.451 25.6754 105.13 25.6139 105.062 25.4957L104.86 25.1496L104.481 25.2823C104.279 25.3534 104.066 25.3896 103.847 25.3896C103.644 25.3896 103.445 25.3582 103.256 25.2967C103.231 25.2895 103.208 25.2811 103.184 25.2726C103.067 25.2316 102.921 25.1822 102.751 25.1689C102.722 25.1665 102.693 25.1653 102.663 25.1653C102.592 25.1653 102.525 25.1713 102.465 25.1774C102.767 24.906 103.341 24.5431 103.648 24.3972L103.711 24.367C104.366 24.0559 105.183 23.6688 105.869 23.6278L106.009 23.6194L106.123 23.5386C106.347 23.3782 106.816 23.3613 106.97 23.3553C107.377 23.3408 107.769 23.2974 108.148 23.2576C108.612 23.2082 109.05 23.1599 109.503 23.1599C109.675 23.1599 109.837 23.1672 109.998 23.1804C111.127 23.2793 112.23 23.5386 113.277 23.951C113.425 24.0101 113.619 24.1367 113.807 24.2609C114.149 24.4864 114.504 24.7203 114.887 24.7662L115.905 24.8904L115.357 24.0257C115.266 23.8835 115.182 23.7436 115.136 23.6085L115.119 23.5567L115.038 23.424C114.9 23.2009 114.759 22.9706 114.672 22.7499L114.648 22.6896L114.595 22.6197C114.338 22.2772 114.072 21.9239 113.89 21.5694L113.863 21.5175L113.825 21.4729C113.508 21.1087 113.174 20.747 112.849 20.3985C112.544 20.0692 112.227 19.728 111.932 19.3903L111.848 19.2951L111.73 19.2529C111.659 19.2275 111.57 19.1504 111.498 19.0539L111.448 18.984L111.375 18.9357C111.157 18.791 110.936 18.6174 110.723 18.4497C110.495 18.2701 110.26 18.0844 110.018 17.9276C110.044 17.9252 110.073 17.924 110.108 17.924C111.344 17.924 114.405 19.4844 114.917 19.9185L114.951 19.9475L114.99 19.9692C116.153 20.6336 117.318 21.6827 118.184 22.8476L118.191 22.8572L118.198 22.8669C118.844 23.6507 119.288 24.4285 119.595 25.316L119.602 25.3377L119.612 25.3582C119.757 25.6778 119.946 26.1505 119.917 26.5593L119.903 26.7619L120.028 26.9042C120.045 26.9452 120.054 27.0573 120.059 27.1249C120.063 27.1912 120.069 27.2539 120.078 27.3118L120.172 27.9497L120.759 27.6832C120.794 27.6675 120.829 27.6506 120.864 27.6325C120.916 27.6072 120.991 27.571 121.027 27.5614L121.226 27.6181L121.413 27.4915C121.688 27.3057 121.979 27.1948 122.188 27.1948C122.201 27.1948 122.215 27.1948 122.227 27.196L122.34 27.2045L122.445 27.161C122.737 27.0405 123.072 27.0224 123.425 27.0031C123.587 26.9946 123.755 26.985 123.924 26.9657C124.121 26.9428 124.331 26.9319 124.566 26.9319C125.067 26.9319 125.58 26.9826 126.077 27.0308C128.234 27.2418 130.301 27.9593 132.039 28.6346L132.119 28.6648C133.841 29.322 134.477 29.7416 134.707 29.9406C134.608 29.9177 134.494 29.8743 134.424 29.8477L134.247 29.7802L134.071 29.8502C133.923 29.9092 133.73 29.9406 133.512 29.9406C133.16 29.9406 132.755 29.8586 132.428 29.7199L131.639 29.3871L131.715 29.9334C131.684 29.937 131.634 29.9406 131.558 29.9406C131.508 29.9406 131.456 29.9394 131.406 29.9382C131.351 29.937 131.298 29.9358 131.248 29.9358C131.206 29.9358 131.166 29.9358 131.129 29.9382C130.84 29.9539 130.541 29.9707 130.244 29.9937C129.575 30.0455 128.9 30.1335 128.24 30.2541C128.182 30.265 128.029 30.2819 127.88 30.2987C126.908 30.4085 126.574 30.4724 126.377 30.6629L126.689 31.5818C126.644 31.5963 126.599 31.6047 126.556 31.6047C126.512 31.6047 126.483 31.5963 126.481 31.5963C126.599 31.6325 127.028 31.8941 127.401 32.1558C127.576 32.2788 127.734 32.4235 127.902 32.5767C128.054 32.7153 128.21 32.8576 128.388 32.9939C129.031 33.4823 129.662 34.2649 130.264 35.3176C131.208 36.9685 131.65 38.8822 131.51 40.7079C131.447 41.5303 131.241 42.4299 130.88 43.4585L130.872 43.4815C130.69 43.9976 130.503 44.533 130.205 44.949C130.135 45.0467 129.989 45.1745 129.86 45.2638C129.868 45.189 129.877 45.0985 129.87 44.9973C129.854 44.7754 129.768 44.5957 129.699 44.4522C129.688 44.4305 129.679 44.4076 129.668 44.3859C129.538 44.1013 129.476 43.7865 129.488 43.473V43.4477C129.493 43.3717 129.498 43.2668 129.474 43.1486C129.441 42.9834 129.367 42.8568 129.313 42.764C129.115 42.4239 128.926 42.0742 128.725 41.7052C128.161 40.6657 127.579 39.5901 126.779 38.7194C125.869 37.7282 124.743 36.5898 123.298 35.6517L122.768 36.4656C122.727 36.4391 122.71 36.4138 122.71 36.4126C122.745 36.4668 122.917 36.8286 122.892 38.6362V38.6845C122.88 39.5877 122.727 40.5283 122.436 41.4773C121.651 44.0434 119.985 46.5203 117.341 49.049C117.338 49.0478 117.335 49.0466 117.332 49.0454L117.34 49.049Z" fill="url(#paint11_linear_415_562)"/>
<path id="Vector_28" d="M16.686 31.1103C17.1483 31.3696 17.4634 31.6011 17.8171 31.8712C18.1612 32.1329 18.4823 32.4115 18.7998 32.6936C19.4299 33.2628 20.0118 33.8706 20.5671 34.5001C21.6765 35.759 22.652 37.1156 23.5477 38.5156C25.3307 41.3278 26.7794 44.3015 27.9624 47.4102C29.1346 50.5154 30.04 53.717 30.6823 56.9693C31.013 58.5948 31.2641 60.2348 31.4718 61.8832C31.5744 62.7081 31.6601 63.5365 31.7265 64.3698C31.7965 65.2139 31.8472 66.0146 31.8653 66.9299L27.8079 66.8454C27.8381 66.1472 27.8417 65.3333 27.8248 64.5663C27.8115 63.7885 27.7801 63.0059 27.7319 62.2245C27.6341 60.6617 27.4952 59.094 27.278 57.5384C26.8651 54.4224 26.1975 51.3402 25.2752 48.3388C24.3493 45.347 23.136 42.4022 21.6258 39.6576C20.8665 38.2877 20.0311 36.9589 19.0786 35.7313C18.603 35.1187 18.102 34.5254 17.566 33.9767C17.2968 33.7054 17.024 33.4365 16.7391 33.1905C16.599 33.0614 16.453 32.9505 16.3093 32.8323C16.1729 32.7262 16.0027 32.6032 15.9049 32.5381L16.6836 31.1127L16.686 31.1103Z" fill="url(#paint12_linear_415_562)"/>
<path id="Vector_29" d="M17.3668 49.049C17.3427 48.973 17.2992 48.8657 17.2654 48.7801C17.1785 48.5643 17.0722 48.2978 16.9926 47.9661C16.9817 47.942 16.9503 47.8926 16.9286 47.8588C16.902 47.8178 16.8755 47.7756 16.8525 47.7346C16.7632 47.5778 16.7451 47.3728 16.7222 47.0533C16.7161 46.9701 16.7077 46.8567 16.7004 46.8205C16.6087 46.3406 16.5435 45.9366 16.4964 45.5508C16.3962 44.738 16.3515 43.9083 16.3624 43.0859C16.3805 41.7703 16.634 40.5283 16.8779 39.326C16.9889 38.7761 17.1048 38.2081 17.1966 37.6414C17.2932 37.0433 17.3559 36.4367 17.3728 35.9302C17.3475 35.7469 17.1495 34.933 17.094 34.787C17.1374 34.8992 17.2883 35.0656 17.5298 35.0656L17.8147 34.9727L17.2437 34.1889C17.2437 34.1889 17.24 34.1974 17.2388 34.201C17.2557 34.1359 17.1893 33.9236 17.1531 33.8103C17.1242 33.7186 17.094 33.6234 17.0722 33.5269L16.8393 32.5043L17.7857 32.9975C17.8533 33.0325 17.9728 33.0952 18.0332 33.1085L18.7213 32.6165L18.7599 33.2049C19.1148 33.3689 19.7583 33.6583 19.8862 33.7017C20.217 33.7898 20.5647 33.8308 20.9329 33.873C21.0874 33.8911 21.2431 33.9092 21.3989 33.9309C22.5916 34.0973 23.7867 34.3517 24.9504 34.6857C27.2586 35.349 29.4521 36.3233 31.4705 37.5847C31.5623 37.6426 31.6552 37.7005 31.747 37.7583C32.0319 37.9392 32.3047 38.1117 32.5848 38.2648C32.2794 36.872 31.3136 35.6685 30.378 34.5025C30.2585 34.3529 30.139 34.2046 30.0219 34.0575C28.3113 31.8953 26.0756 30.3349 23.8881 29.7742L23.8615 29.767L23.835 29.7573C23.3642 29.5764 22.9767 29.4896 22.6519 29.4896C22.6133 29.4896 22.5735 29.4908 22.5348 29.4932L20.8532 29.6138L22.2137 28.619C22.2946 28.5599 22.4008 28.4996 22.524 28.4296C22.6326 28.3681 22.8499 28.2439 22.9248 28.1776L23.002 28.0257L23.2024 27.9666C23.5984 27.8484 23.9593 27.6494 24.144 27.4468L24.2696 27.3082L24.4555 27.2901C24.7331 27.2635 25.0531 27.0851 25.3621 26.9114C25.4128 26.8825 25.4635 26.8547 25.5142 26.827L25.6156 26.7715L25.7303 26.7679C25.9548 26.7595 26.2832 26.6039 26.5717 26.4665C26.7612 26.376 26.9568 26.2832 27.1463 26.2192C27.7705 26.0058 28.4163 25.8346 29.0634 25.7116C29.2553 25.6754 29.5764 25.6139 29.6452 25.4957L29.8468 25.1496L30.2259 25.2823C30.4275 25.3534 30.6412 25.3896 30.8597 25.3896C31.0625 25.3896 31.2617 25.3582 31.4512 25.2967C31.4754 25.2895 31.4983 25.2811 31.5224 25.2726C31.6395 25.2316 31.7856 25.1822 31.9558 25.1689C31.9848 25.1665 32.0138 25.1653 32.044 25.1653C32.1152 25.1653 32.1816 25.1713 32.2419 25.1774C31.9401 24.906 31.3655 24.5431 31.0589 24.3972L30.9961 24.367C30.3406 24.0559 29.5233 23.6688 28.8376 23.6278L28.6976 23.6194L28.5841 23.5386C28.3596 23.3782 27.8912 23.3613 27.7367 23.3553C27.3298 23.3408 26.9375 23.2974 26.5584 23.2576C26.0949 23.2082 25.6567 23.1599 25.204 23.1599C25.0313 23.1599 24.8696 23.1672 24.709 23.1804C23.5803 23.2793 22.4769 23.5386 21.4302 23.951C21.2818 24.0101 21.0874 24.1367 20.9003 24.2609C20.5574 24.4864 20.2025 24.7203 19.8198 24.7662L18.8022 24.8904L19.3502 24.0257C19.4408 23.8835 19.5253 23.7436 19.5712 23.6085L19.5881 23.5567L19.6689 23.424C19.8066 23.2009 19.9478 22.9706 20.0347 22.7499L20.0589 22.6896L20.112 22.6197C20.3691 22.2772 20.6347 21.9239 20.817 21.5694L20.8435 21.5175L20.8822 21.4729C21.1985 21.1087 21.5329 20.747 21.8576 20.3985C22.163 20.0692 22.4793 19.728 22.7751 19.3903L22.8584 19.2951L22.9767 19.2529C23.0479 19.2275 23.1372 19.1504 23.2085 19.0539L23.2592 18.984L23.3316 18.9357C23.5501 18.791 23.771 18.6174 23.9835 18.4497C24.2116 18.2701 24.447 18.0844 24.6885 17.9276C24.6631 17.9252 24.6342 17.924 24.5991 17.924C23.363 17.924 20.3015 19.4844 19.7897 19.9185L19.7559 19.9475L19.7172 19.9692C18.5535 20.6336 17.3885 21.6827 16.523 22.8476L16.5157 22.8572L16.5085 22.8669C15.8626 23.6507 15.4184 24.4285 15.1117 25.316L15.1045 25.3377L15.0948 25.3582C14.95 25.6778 14.7605 26.1505 14.7894 26.5593L14.8039 26.7619L14.6784 26.9042C14.6615 26.9452 14.653 27.0573 14.6482 27.1249C14.6434 27.1912 14.6373 27.2539 14.6289 27.3118L14.5347 27.9497L13.948 27.6832C13.913 27.6675 13.878 27.6506 13.843 27.6325C13.7911 27.6072 13.7162 27.571 13.68 27.5614L13.4808 27.6181L13.2937 27.4915C13.0185 27.3057 12.7275 27.1948 12.5187 27.1948C12.5054 27.1948 12.4921 27.1948 12.48 27.196L12.3666 27.2045L12.2615 27.161C11.9694 27.0405 11.635 27.0224 11.2813 27.0031C11.1195 26.9946 10.9517 26.985 10.7827 26.9657C10.586 26.9428 10.3759 26.9319 10.1405 26.9319C9.6395 26.9319 9.12644 26.9826 8.63028 27.0308C6.47301 27.2418 4.40629 27.9593 2.66792 28.6346L2.58824 28.6648C0.865564 29.322 0.229368 29.7416 0 29.9406C0.0989905 29.9177 0.212467 29.8743 0.282485 29.8477L0.459944 29.7802L0.636195 29.8502C0.783474 29.9092 0.976626 29.9406 1.19513 29.9406C1.54643 29.9406 1.95205 29.8586 2.2792 29.7199L3.0675 29.3871L2.99145 29.9334C3.02283 29.937 3.07233 29.9406 3.14838 29.9406C3.19908 29.9406 3.25099 29.9394 3.30049 29.9382C3.35602 29.937 3.40914 29.9358 3.45863 29.9358C3.50088 29.9358 3.54072 29.9358 3.57815 29.9382C3.86667 29.9539 4.16605 29.9707 4.46302 29.9937C5.13181 30.0455 5.80664 30.1335 6.46698 30.2541C6.52492 30.265 6.67824 30.2819 6.82672 30.2987C7.79852 30.4085 8.13292 30.4724 8.32969 30.6629L8.01823 31.5818C8.0629 31.5963 8.10756 31.6047 8.15102 31.6047C8.19448 31.6047 8.22346 31.5963 8.22587 31.5963C8.10757 31.6325 7.67901 31.8941 7.30598 32.1558C7.13094 32.2788 6.9728 32.4235 6.805 32.5767C6.65289 32.7153 6.49716 32.8576 6.31849 32.9939C5.67626 33.4823 5.0449 34.2649 4.4425 35.3176C3.49847 36.9685 3.05663 38.8822 3.19667 40.7079C3.25944 41.5303 3.46588 42.4299 3.82683 43.4585L3.83528 43.4815C4.01636 43.9976 4.20348 44.533 4.50165 44.949C4.57167 45.0467 4.71774 45.1745 4.84691 45.2638C4.83846 45.189 4.83001 45.0985 4.83726 44.9973C4.85295 44.7754 4.93866 44.5957 5.00747 44.4522C5.01834 44.4305 5.02799 44.4076 5.03886 44.3859C5.16924 44.1013 5.2308 43.7865 5.21873 43.473V43.4477C5.2139 43.3717 5.20907 43.2668 5.23322 43.1486C5.26581 42.9834 5.33945 42.8568 5.39378 42.764C5.59176 42.4239 5.78129 42.0742 5.98168 41.7052C6.54545 40.6657 7.12732 39.5901 7.92769 38.7194C8.83792 37.7282 9.96424 36.5898 11.4093 35.6517L11.9392 36.4656C11.9803 36.4391 11.9972 36.4138 11.9972 36.4126C11.9622 36.4668 11.7895 36.8286 11.8149 38.6362V38.6845C11.827 39.5877 11.9803 40.5283 12.2712 41.4773C13.0559 44.0434 14.7218 46.5203 17.3656 49.049C17.3692 49.0478 17.3716 49.0466 17.3753 49.0454L17.3668 49.049Z" fill="url(#paint13_linear_415_562)"/>
<path id="Vector_30" d="M64.5961 65.9434C48.6007 65.9181 33.3393 66.3462 18.8806 67.1011V69.5092H106.37C106.598 68.6965 106.829 67.8837 107.051 67.0697C93.5714 66.3763 79.4025 65.9675 64.5961 65.9446V65.9434Z" fill="url(#paint14_linear_415_562)"/>
<path id="Vector_31" d="M89.8182 63.1603L87.3688 63.2785L88.5555 56.1035L76.4315 58.3392L75.508 63.85L74.092 63.9188L74.0666 64.0912C73.7057 64.0189 73.3314 63.9815 72.9463 63.9815C72.8473 63.9815 72.7472 63.9839 72.647 63.9887C72.3065 64.0056 71.9782 64.0442 71.6607 64.1021L71.6715 64.0358L60.9214 64.5543L49.6003 65.1005C49.1367 65.021 48.6321 64.9775 48.0828 64.9775C47.9042 64.9775 47.7207 64.9824 47.5347 64.9908C43.2926 65.1958 39.665 67.7077 37.3182 72.0657C37.3013 72.0983 37.2844 72.1308 37.2675 72.1634C36.5589 71.0528 35.5364 70.2255 34.2326 69.7167L45.7903 55.0555L35.1513 55.568C34.4789 55.5934 33.5698 55.855 32.8407 56.8885C32.7888 56.9632 32.7115 57.073 32.6149 57.2141C32.4314 57.4806 32.1671 57.8652 31.8435 58.338C31.6866 58.5683 31.5164 58.8167 31.3365 59.0796L31.8604 55.8611L28.5865 55.767C28.2485 55.7574 27.8984 55.7477 27.523 55.7477C27.2296 55.7477 26.9592 55.7537 26.6948 55.767C22.7304 55.9575 18.5679 57.577 15.2735 60.2071C11.6591 63.094 9.68415 66.7731 9.85437 70.3027C9.9594 72.4733 10.6813 74.1543 11.9996 75.3011C13.1766 76.3249 14.7097 76.8374 16.6811 76.8663L13.9733 93.4303L25.8401 92.8588L26.1914 90.6942C27.1548 92.3426 28.9583 93.2929 31.3257 93.2929C31.4826 93.2929 31.6456 93.2893 31.8085 93.2808C33.1678 93.2157 34.8084 92.86 36.6844 92.2257L39.3065 91.3381C40.4593 91.9459 41.7776 92.2606 43.2069 92.2606C43.3602 92.2606 43.516 92.257 43.6705 92.2498C45.1976 92.1762 47.1497 91.7083 49.0534 90.1962C50.2244 91.2055 51.7624 91.7638 53.549 91.7638C53.6879 91.7638 53.8303 91.7602 53.9703 91.753C54.755 91.7156 55.5107 91.595 56.235 91.3936L67.3329 90.8582L69.9078 74.8477C70.6804 75.5254 71.6896 75.8908 72.8268 75.8908C72.9162 75.8908 73.0079 75.8884 73.0984 75.8848C73.2554 75.8775 73.4087 75.863 73.5596 75.845L72.9343 79.6616C72.7303 80.9458 72.6542 82.0275 72.6989 82.9717C72.9198 87.5384 75.776 90.4892 79.9759 90.4892C80.1183 90.4892 80.2632 90.4856 80.4068 90.4783C82.5327 90.3758 84.5524 89.6571 86.2461 88.4018C86.2944 88.3668 86.3414 88.3295 86.3885 88.2933C86.6251 88.4995 86.8774 88.6888 87.1418 88.8588C86.4851 90.0756 86.1917 91.4611 86.2654 93.0059C86.3644 95.045 87.2891 96.8864 88.8717 98.1912C90.2866 99.3585 92.1107 100 94.0072 100C94.14 100 94.274 99.9964 94.4068 99.9903C96.7403 99.8782 98.7478 99.1523 100.372 97.8354C102.464 96.1376 103.802 93.5461 104.348 90.1347L108.828 62.2438L89.8194 63.1603H89.8182Z" fill="url(#paint15_linear_415_562)"/>
<path id="Vector_32" d="M26.4075 71.5062C28.8618 67.7969 35.2611 58.3874 35.2635 58.4296L39.6421 58.2186L28.694 72.1067C29.236 72.0802 29.6923 72.0175 30.1511 71.9946C34.1964 71.7992 35.4144 73.6611 35.5376 76.2019C35.703 79.617 33.8765 84.215 34.0032 86.839C34.0636 88.0883 34.7432 89.1832 35.7621 89.51C34.0346 90.0949 32.6693 90.3686 31.6685 90.4168C28.9583 90.5471 28.3475 89.1579 28.2811 87.7832C28.1483 85.0338 30.1148 79.8871 29.9615 76.7216C29.8806 75.0551 29.1998 73.9192 27.3226 74.0096C26.9471 74.0277 26.451 74.135 25.9548 74.2423L23.3774 90.1069L17.3728 90.3963L22.0507 61.7807C18.4557 63.4991 16.4409 66.7695 16.6533 71.1842C16.7559 73.309 17.3137 73.6153 17.374 73.9879C14.4973 74.1266 12.8615 73.1619 12.7166 70.1628C12.4486 64.623 19.8657 58.9626 26.83 58.6274C27.4143 58.5996 27.9576 58.6141 28.502 58.6298L26.4075 71.5062Z" fill="white"/>
<path id="Vector_33" d="M57.5231 67.5858L55.2053 81.8924C55.1063 82.4399 55.0846 82.8583 55.1027 83.2334C55.1594 84.3995 55.7317 84.9988 56.899 84.9421C58.5251 84.8637 59.5621 82.9765 60.0872 80.8638L61.8389 80.7794C59.7903 87.6831 56.0817 88.7804 53.8291 88.889C51.4944 89.0011 49.9286 87.741 49.558 85.2532C48.3581 87.2321 46.4905 89.2423 43.5305 89.3846C40.6948 89.5208 37.9001 87.9026 37.661 82.9464C37.3894 77.3233 40.4183 68.2008 47.6736 67.8511C50.0506 67.7366 51.096 68.6048 51.1539 69.8131L51.1684 70.1049L51.5209 67.8753L57.5256 67.5858H57.5231ZM43.8033 82.0661C43.9578 85.2737 45.2942 85.2508 46.0451 85.2146C47.2547 85.1568 48.946 83.8218 49.3287 81.3823L50.8751 71.8728C50.8509 71.3723 50.4236 70.3075 49.0884 70.3726C45.5441 70.5439 43.6126 78.1518 43.8021 82.0673L43.8033 82.0661Z" fill="white"/>
<path id="Vector_34" d="M68.2805 67.0673L67.8628 69.6757C69.262 68.3552 70.7818 66.9468 72.7834 66.8503C74.6594 66.7598 75.735 68.2527 75.811 69.8361C75.881 71.294 74.9986 72.9231 72.956 73.0208C70.6213 73.1329 71.6558 70.328 70.404 70.3883C69.1533 70.4486 68.4326 71.1095 67.4367 72.1176L64.8653 88.1064L58.8607 88.3958L62.2747 67.3555L68.2793 67.0661L68.2805 67.0673Z" fill="white"/>
<path id="Vector_35" d="M85.0594 59.662L83.9597 66.3112L86.461 66.1906L86.2075 67.8728L83.705 67.9934L81.6394 80.6178C81.5404 81.1653 81.5187 81.5837 81.5368 81.9587C81.5936 83.1248 82.1537 83.4733 83.3211 83.4179C84.9472 83.3395 86.3717 81.6838 86.8968 79.5711L88.6485 79.4867C86.5998 86.3904 82.5159 87.5058 80.2644 87.6143C77.7619 87.7349 75.7302 86.3301 75.5612 82.8306C75.5225 82.0395 75.6034 81.117 75.764 80.1065L77.7003 68.2816L76.3241 68.3479L76.5776 66.6657L77.9538 66.5994L78.9269 60.7907L85.0582 59.6608L85.0594 59.662Z" fill="white"/>
<path id="Vector_36" d="M95.0925 65.7746L92.7746 80.0812C92.707 80.4189 92.6841 80.7951 92.6998 81.1279C92.7457 82.0854 93.0801 82.9464 94.0398 82.9006C95.6659 82.8222 96.6739 81.187 97.199 79.0743L99.3889 65.5672L105.435 65.2754L101.515 89.6801C100.551 95.6962 97.0204 96.9937 94.268 97.1264C91.7244 97.2494 89.2605 95.572 89.1301 92.8648C88.943 88.9915 92.1372 87.6264 96.0425 86.2686L96.3709 84.4164C94.676 86.5436 92.8181 87.009 91.4008 87.0778C88.8983 87.1984 86.8666 85.7935 86.6976 82.294C86.659 81.503 86.7398 80.5805 86.9004 79.5699L89.0903 66.0628L95.0949 65.7734L95.0925 65.7746ZM93.1284 93.4665C93.9625 93.4267 95.008 92.5826 95.4317 90.0985L95.8132 87.6168C93.2286 88.6177 91.285 89.9224 91.3936 92.1714C91.4214 92.7551 92.2109 93.5099 93.1284 93.4653V93.4665Z" fill="white"/>
<path id="Vector_37" d="M66.6834 61.0186C66.6834 61.0186 66.4528 61.4045 66.3611 61.4962C66.2693 61.5878 66.2319 61.5142 66.2319 61.671C66.2319 61.8278 66.4069 62.0111 66.2959 62.0111C66.1848 62.0111 65.9965 61.9146 65.8818 62.0292C65.7671 62.1437 65.679 62.5995 65.5317 62.9119C65.3844 63.2242 65.3011 63.4907 65.3663 63.4907C65.4315 63.4907 65.5233 63.463 65.5233 63.2797C65.5233 63.0964 65.6331 62.9492 65.7068 62.7008C65.7804 62.4524 65.9373 62.2498 65.9373 62.2498C65.9373 62.2498 66.1945 62.1401 66.2416 62.1859C66.2886 62.2318 66.3104 62.5947 66.1957 62.7105C66.081 62.8262 65.4412 63.639 65.1188 63.768C64.7965 63.8971 64.0831 64.3059 63.9684 64.4204C63.8537 64.535 63.8585 64.705 63.8585 64.705C63.8585 64.705 62.6248 64.7967 62.533 65.0173C62.4413 65.238 62.533 65.6794 62.533 65.6794C62.533 65.6794 63.0763 66.2956 64.374 66.3776C65.6717 66.4608 66.8777 66.1846 67.9727 66.1846C69.0676 66.1846 70.2555 65.8542 70.2555 65.4949C70.2555 65.1355 69.9428 64.7967 69.9428 64.6676C69.9428 64.5386 69.6664 64.125 69.6664 64.0056C69.6664 63.8862 69.6108 63.7729 69.6108 63.7053C69.6108 63.6378 70.1951 63.3846 70.5307 63.0493C70.8663 62.7141 70.7335 62.4054 70.6684 62.1763C70.6044 61.946 69.9332 61.5552 69.7569 61.2755C69.5807 60.9957 69.361 60.6038 69.3151 60.558C69.2692 60.5122 67.9534 60.429 67.9534 60.429L66.6834 61.0174V61.0186Z" fill="#D6D6D6"/>
<path id="Vector_38" d="M69.9416 54.1668C69.9416 53.5421 69.647 53.137 69.7448 52.5485C69.7653 52.4279 69.8112 52.2627 69.8704 52.0661H66.314C66.32 52.0963 66.3272 52.1264 66.3333 52.1566C66.5301 53.0887 66.419 53.3215 66.6278 53.7375C66.8367 54.1547 67.0576 54.5707 67.0576 54.865C67.0576 55.1592 67.3027 55.7477 67.3027 56.1396C67.3027 56.4049 67.2918 58.2704 67.2845 59.5028C67.019 58.8516 66.011 56.4676 65.1925 55.65C64.2412 54.6998 63.7571 54.3018 63.7571 54.2042C63.7571 54.1065 63.6364 53.9955 63.6364 53.9955C63.6364 53.9955 64.1519 52.8572 64.6009 52.0661H60.3757C60.0389 52.8415 59.812 53.4855 59.9037 53.8364C60.051 54.4007 60.5278 55.0374 61.1665 55.5162C61.8051 55.9937 62.0755 56.2023 62.2107 56.4965C62.3459 56.7908 63.5724 58.262 64.3462 59.0337C65.1188 59.8055 65.7574 60.5905 66.0279 60.8606C66.2983 61.1308 66.7763 61.7675 66.7763 61.7675L66.9972 62.0617H67.1904C67.165 62.4548 67.1445 62.7828 67.1445 62.8214C67.1445 62.9191 67.7831 63.7716 68.0777 63.897C68.3722 64.0225 69.2064 63.6185 69.2064 63.3243C69.2064 63.03 69.5384 60.7823 69.9549 59.6101C70.3714 58.438 70.2857 57.1224 70.1879 55.773C70.0901 54.4236 69.9428 54.7926 69.9428 54.1668H69.9416Z" fill="#F6A48E"/>
</g>
<defs>
<linearGradient id="paint0_linear_415_562" x1="-19.4625" y1="13.8228" x2="163.496" y2="132.725" gradientUnits="userSpaceOnUse">
<stop stop-color="#B53F00"/>
<stop offset="1" stop-color="#591901"/>
</linearGradient>
<linearGradient id="paint1_linear_415_562" x1="89.6924" y1="-6.35584" x2="101.282" y2="34.6592" gradientUnits="userSpaceOnUse">
<stop stop-color="#FFBF00"/>
<stop offset="1" stop-color="#FF5400"/>
</linearGradient>
<linearGradient id="paint2_linear_415_562" x1="-6.27261" y1="-6.47462" x2="176.687" y2="112.428" gradientUnits="userSpaceOnUse">
<stop stop-color="#B53F00"/>
<stop offset="1" stop-color="#591901"/>
</linearGradient>
<linearGradient id="paint3_linear_415_562" x1="3.86495" y1="-24.4022" x2="73.9196" y2="21.1794" gradientUnits="userSpaceOnUse">
<stop stop-color="#B53F00"/>
<stop offset="1" stop-color="#591901"/>
</linearGradient>
<linearGradient id="paint4_linear_415_562" x1="-12.0143" y1="0.4101" x2="172.744" y2="120.833" gradientUnits="userSpaceOnUse">
<stop stop-color="#B53F00"/>
<stop offset="1" stop-color="#591901"/>
</linearGradient>
<linearGradient id="paint5_linear_415_562" x1="8.75189" y1="-31.6274" x2="75.6381" y2="11.8819" gradientUnits="userSpaceOnUse">
<stop stop-color="#B53F00"/>
<stop offset="1" stop-color="#591901"/>
</linearGradient>
<linearGradient id="paint6_linear_415_562" x1="8.40131" y1="-31.0432" x2="70.7213" y2="9.4636" gradientUnits="userSpaceOnUse">
<stop stop-color="#B53F00"/>
<stop offset="1" stop-color="#591901"/>
</linearGradient>
<linearGradient id="paint7_linear_415_562" x1="6.74338" y1="-28.6256" x2="101.314" y2="32.8943" gradientUnits="userSpaceOnUse">
<stop stop-color="#B53F00"/>
<stop offset="1" stop-color="#591901"/>
</linearGradient>
<linearGradient id="paint8_linear_415_562" x1="8.54404" y1="-27.7286" x2="188.66" y2="89.3274" gradientUnits="userSpaceOnUse">
<stop stop-color="#B53F00"/>
<stop offset="1" stop-color="#591901"/>
</linearGradient>
<linearGradient id="paint9_linear_415_562" x1="-8.99968" y1="-2.27817" x2="173.96" y2="116.624" gradientUnits="userSpaceOnUse">
<stop stop-color="#B53F00"/>
<stop offset="1" stop-color="#591901"/>
</linearGradient>
<linearGradient id="paint10_linear_415_562" x1="8.70152" y1="-16.9477" x2="191.66" y2="101.954" gradientUnits="userSpaceOnUse">
<stop stop-color="#B53F00"/>
<stop offset="1" stop-color="#591901"/>
</linearGradient>
<linearGradient id="paint11_linear_415_562" x1="17.6855" y1="-30.772" x2="200.644" y2="88.1311" gradientUnits="userSpaceOnUse">
<stop stop-color="#B53F00"/>
<stop offset="1" stop-color="#591901"/>
</linearGradient>
<linearGradient id="paint12_linear_415_562" x1="-23.165" y1="19.5182" x2="159.794" y2="138.421" gradientUnits="userSpaceOnUse">
<stop stop-color="#B53F00"/>
<stop offset="1" stop-color="#591901"/>
</linearGradient>
<linearGradient id="paint13_linear_415_562" x1="-17.4416" y1="10.7128" x2="165.517" y2="129.615" gradientUnits="userSpaceOnUse">
<stop stop-color="#B53F00"/>
<stop offset="1" stop-color="#591901"/>
</linearGradient>
<linearGradient id="paint14_linear_415_562" x1="-19.9273" y1="14.5366" x2="163.032" y2="133.438" gradientUnits="userSpaceOnUse">
<stop stop-color="#B53F00"/>
<stop offset="1" stop-color="#591901"/>
</linearGradient>
<linearGradient id="paint15_linear_415_562" x1="-24.7561" y1="21.9673" x2="158.202" y2="140.87" gradientUnits="userSpaceOnUse">
<stop stop-color="#B53F00"/>
<stop offset="1" stop-color="#591901"/>
</linearGradient>
</defs>
</svg>
