<svg width="89" height="50" viewBox="0 0 89 50" fill="none" xmlns="http://www.w3.org/2000/svg">
<g id="header__logo">
<path id="Intersect" fill-rule="evenodd" clip-rule="evenodd" d="M88.5452 1.6195C87.9012 6.70566 85.9854 10.7853 83.4939 14.0699C79.8115 18.926 74.8434 22.1407 70.809 24.309C66.9234 26.398 63.3446 28.7306 60.6073 32.7971C58.3731 36.1203 56.7757 41.8915 56.1573 48.3772C52.3834 49.4349 48.4076 50 44.3016 50C40.1265 50 36.0862 49.4157 32.2558 48.3235C31.6335 41.8597 30.0371 36.1111 27.8091 32.7971C25.0737 28.7306 21.4949 26.398 17.6074 24.309C13.573 22.1407 8.60487 18.926 4.92255 14.0699C2.57971 10.9814 0.745987 7.18861 0 2.51909C0.0439192 1.71488 0.108699 0.916301 0.193802 0.123908C5.71585 4.02349 12.3363 4.304 19.0099 4.58451L19.012 4.5846C27.8613 4.95855 36.8195 5.3371 41.9943 16.1684L44.2082 20.8034L46.4221 16.1684C51.5973 5.33624 60.5584 4.9566 69.4065 4.58451C76.1483 4.30106 82.8375 4.0176 88.3959 0C88.4551 0.537031 88.5049 1.07692 88.5452 1.6195Z" fill="#193D78"/>
</g>
</svg>
