<svg width="80" height="80" viewBox="0 0 80 80" fill="none" xmlns="http://www.w3.org/2000/svg">
<g id="videos__play" opacity="0.8">
<mask id="mask0_83_543" style="mask-type:alpha" maskUnits="userSpaceOnUse" x="0" y="0" width="80" height="80">
<rect id="Bounding box" width="80" height="80" fill="#D9D9D9"/>
</mask>
<g mask="url(#mask0_83_543)">
<path id="play_circle" d="M31.6667 55.0001L55 40.0001L31.6667 25.0001V55.0001ZM40 73.3334C35.3889 73.3334 31.0555 72.4584 27 70.7084C22.9444 68.9584 19.4166 66.5834 16.4166 63.5834C13.4166 60.5834 11.0416 57.0556 9.29165 53.0001C7.54165 48.9445 6.66665 44.6112 6.66665 40.0001C6.66665 35.389 7.54165 31.0556 9.29165 27.0001C11.0416 22.9445 13.4166 19.4167 16.4166 16.4167C19.4166 13.4167 22.9444 11.0417 27 9.29175C31.0555 7.54175 35.3889 6.66675 40 6.66675C44.6111 6.66675 48.9444 7.54175 53 9.29175C57.0555 11.0417 60.5833 13.4167 63.5833 16.4167C66.5833 19.4167 68.9583 22.9445 70.7083 27.0001C72.4583 31.0556 73.3333 35.389 73.3333 40.0001C73.3333 44.6112 72.4583 48.9445 70.7083 53.0001C68.9583 57.0556 66.5833 60.5834 63.5833 63.5834C60.5833 66.5834 57.0555 68.9584 53 70.7084C48.9444 72.4584 44.6111 73.3334 40 73.3334Z" fill="white"/>
</g>
</g>
</svg>
