<svg width="31" height="36" viewBox="0 0 31 36" fill="none" xmlns="http://www.w3.org/2000/svg">
<path id="icon" d="M29.9922 33.3125H28.625V2.14062C28.625 1.23452 27.8905 0.5 26.9844 0.5H4.01562C3.10952 0.5 2.375 1.23452 2.375 2.14062V33.3125H1.00781C0.554795 33.3125 0.1875 33.6798 0.1875 34.1328V35.5H30.8125V34.1328C30.8125 33.6798 30.4452 33.3125 29.9922 33.3125ZM8.9375 5.69531C8.9375 5.24229 9.3048 4.875 9.75781 4.875H12.4922C12.9452 4.875 13.3125 5.24229 13.3125 5.69531V8.42969C13.3125 8.8827 12.9452 9.25 12.4922 9.25H9.75781C9.3048 9.25 8.9375 8.8827 8.9375 8.42969V5.69531ZM8.9375 12.2578C8.9375 11.8048 9.3048 11.4375 9.75781 11.4375H12.4922C12.9452 11.4375 13.3125 11.8048 13.3125 12.2578V14.9922C13.3125 15.4452 12.9452 15.8125 12.4922 15.8125H9.75781C9.3048 15.8125 8.9375 15.4452 8.9375 14.9922V12.2578ZM12.4922 22.375H9.75781C9.3048 22.375 8.9375 22.0077 8.9375 21.5547V18.8203C8.9375 18.3673 9.3048 18 9.75781 18H12.4922C12.9452 18 13.3125 18.3673 13.3125 18.8203V21.5547C13.3125 22.0077 12.9452 22.375 12.4922 22.375ZM17.6875 33.3125H13.3125V27.5703C13.3125 27.1173 13.6798 26.75 14.1328 26.75H16.8672C17.3202 26.75 17.6875 27.1173 17.6875 27.5703V33.3125ZM22.0625 21.5547C22.0625 22.0077 21.6952 22.375 21.2422 22.375H18.5078C18.0548 22.375 17.6875 22.0077 17.6875 21.5547V18.8203C17.6875 18.3673 18.0548 18 18.5078 18H21.2422C21.6952 18 22.0625 18.3673 22.0625 18.8203V21.5547ZM22.0625 14.9922C22.0625 15.4452 21.6952 15.8125 21.2422 15.8125H18.5078C18.0548 15.8125 17.6875 15.4452 17.6875 14.9922V12.2578C17.6875 11.8048 18.0548 11.4375 18.5078 11.4375H21.2422C21.6952 11.4375 22.0625 11.8048 22.0625 12.2578V14.9922ZM22.0625 8.42969C22.0625 8.8827 21.6952 9.25 21.2422 9.25H18.5078C18.0548 9.25 17.6875 8.8827 17.6875 8.42969V5.69531C17.6875 5.24229 18.0548 4.875 18.5078 4.875H21.2422C21.6952 4.875 22.0625 5.24229 22.0625 5.69531V8.42969Z" fill="#21A0A0"/>
</svg>
