<svg width="30" height="30" viewBox="0 0 30 30" fill="none" xmlns="http://www.w3.org/2000/svg">
<g id="call">
<path id="phone_in_talk" d="M28.0886 29.9999C24.7922 29.9999 21.4681 29.2312 18.1163 27.6938C14.7645 26.1564 11.6759 23.975 8.85041 21.1495C6.02493 18.324 3.84349 15.2354 2.30609 11.8836C0.768698 8.53177 0 5.20768 0 1.91128C0 1.39419 0.175443 0.960211 0.52633 0.609352C0.877188 0.258466 1.31116 0.0830231 1.82825 0.0830231H7.95012C8.33793 0.0830231 8.67496 0.219214 8.96119 0.491597C9.24745 0.764007 9.43674 1.09873 9.52907 1.49576L10.6371 6.9251C10.6925 7.33139 10.6833 7.6915 10.6094 8.00543C10.5355 8.31939 10.3878 8.58718 10.1662 8.80878L6.0526 12.9639C6.71742 14.1181 7.44457 15.2054 8.23404 16.2257C9.02351 17.246 9.89379 18.2178 10.8449 19.1412C11.8144 20.1292 12.8347 21.0364 13.9058 21.8628C14.9769 22.6892 16.1034 23.4256 17.2853 24.072L21.2188 20.0553C21.4866 19.7691 21.8075 19.5683 22.1815 19.4528C22.5554 19.3374 22.9271 19.3074 23.2964 19.3628L28.5041 20.4708C28.9104 20.5816 29.2475 20.7963 29.5152 21.1149C29.783 21.4334 29.9169 21.7912 29.9169 22.1883V28.1717C29.9169 28.6887 29.7414 29.1227 29.3906 29.4736C29.0397 29.8245 28.6057 29.9999 28.0886 29.9999Z" fill="white"/>
<g id="phone_in_talk_2">
<path d="M23.4615 6.37666C25.7707 8.68464 26.9715 11.4991 27.0638 14.82H29.8339C29.7969 12.7793 29.3837 10.8703 28.5943 9.09278C27.8048 7.31533 26.7429 5.75947 25.4087 4.42521C24.0744 3.09094 22.5185 2.02907 20.7411 1.2396C18.9636 0.450125 17.0546 0.0369252 15.0139 0V2.77621C18.3365 2.86856 21.1524 4.06871 23.4615 6.37666Z" fill="#E2A548"/>
<path d="M18.5458 11.3019C19.5153 12.2622 20.0462 13.4349 20.1386 14.82H22.9087C22.8163 12.6685 22.0153 10.8426 20.5056 9.34209C18.9959 7.84165 17.1654 7.04526 15.0139 6.95293V9.72299C16.399 9.81532 17.5762 10.3416 18.5458 11.3019Z" fill="#E2A548"/>
</g>
</g>
</svg>
