<svg width="30" height="30" viewBox="0 0 30 30" fill="none" xmlns="http://www.w3.org/2000/svg">
<path d="M23.75 0H6.25C2.8 0 0 2.8 0 6.25V23.75C0 27.2 2.8 30 6.25 30H23.75C27.2 30 30 27.2 30 23.75V6.25C30 2.8 27.2 0 23.75 0ZM7.5 6.25H15C15.6875 6.25 16.25 6.8125 16.25 7.5C16.25 8.1875 15.6875 8.75 15 8.75H7.5C6.8125 8.75 6.25 8.1875 6.25 7.5C6.25 6.8125 6.8125 6.25 7.5 6.25ZM7.5 11.25H18.75C19.4375 11.25 20 11.8125 20 12.5C20 13.1875 19.4375 13.75 18.75 13.75H7.5C6.8125 13.75 6.25 13.1875 6.25 12.5C6.25 11.8125 6.8125 11.25 7.5 11.25ZM11.25 23.75H7.5C6.8125 23.75 6.25 23.1875 6.25 22.5C6.25 21.8125 6.8125 21.25 7.5 21.25H11.25C11.9375 21.25 12.5 21.8125 12.5 22.5C12.5 23.1875 11.9375 23.75 11.25 23.75ZM22.5 18.75H7.5C6.8125 18.75 6.25 18.1875 6.25 17.5C6.25 16.8125 6.8125 16.25 7.5 16.25H22.5C23.1875 16.25 23.75 16.8125 23.75 17.5C23.75 18.1875 23.1875 18.75 22.5 18.75Z" fill="#ECDF8D"/>
</svg>
