<svg width="30" height="31" viewBox="0 0 30 31" fill="none" xmlns="http://www.w3.org/2000/svg">
<path id="Vector" d="M19.974 16.3751V13.0001C19.974 12.6686 20.1057 12.3507 20.3401 12.1163C20.5746 11.8818 20.8925 11.7501 21.224 11.7501H22.474C22.8055 11.7501 23.1235 11.6184 23.3579 11.384C23.5923 11.1496 23.724 10.8317 23.724 10.5001V9.25014C23.724 8.91862 23.8557 8.60068 24.0901 8.36626C24.3246 8.13184 24.6425 8.00014 24.974 8.00014H28.3303C28.5741 7.99896 28.8124 7.92761 29.0168 7.79461C29.2212 7.66162 29.3829 7.4726 29.4828 7.25014C29.9049 6.32036 30.0674 5.29358 29.9528 4.27889C29.8099 3.22243 29.2853 2.25479 28.4779 1.55863C27.6705 0.862472 26.6362 0.485952 25.5703 0.500143C24.0662 0.500238 22.6238 1.09781 21.5603 2.16139L11.6753 12.0439C10.0819 11.63 8.40667 11.6507 6.82402 12.1039C4.64659 12.7196 2.76533 14.1021 1.52739 15.9963C0.289454 17.8904 -0.221623 20.1684 0.0884686 22.4099C0.39856 24.6513 1.50889 26.705 3.21458 28.1919C4.92027 29.6789 7.1062 30.4987 9.36902 30.5001C9.69634 30.4998 10.0234 30.4827 10.349 30.4489C12.2117 30.2461 13.9715 29.4919 15.4029 28.2829C16.8344 27.0739 17.8724 25.4651 18.384 23.6626C18.8387 22.0806 18.859 20.4053 18.4428 18.8126L19.2553 18.0001C19.6873 17.5658 19.9434 16.987 19.974 16.3751ZM6.86277 25.5001C6.49193 25.5001 6.12941 25.3902 5.82107 25.1841C5.51273 24.9781 5.27241 24.6853 5.13049 24.3427C4.98858 24.0001 4.95145 23.6231 5.02379 23.2593C5.09614 22.8956 5.27472 22.5615 5.53694 22.2993C5.79916 22.0371 6.13326 21.8585 6.49697 21.7862C6.86069 21.7138 7.23769 21.751 7.5803 21.8929C7.92291 22.0348 8.21574 22.2751 8.42177 22.5834C8.6278 22.8918 8.73777 23.2543 8.73777 23.6251C8.73777 24.1224 8.54022 24.5993 8.18859 24.951C7.83696 25.3026 7.36005 25.5001 6.86277 25.5001Z" fill="#707070"/>
</svg>
