<svg width="30" height="30" viewBox="0 0 30 30" fill="none" xmlns="http://www.w3.org/2000/svg">
<g id="sobre-full 1" clip-path="url(#clip0_813_58)">
<path id="Vector" d="M29.9425 6.92749L19.42 17.45C18.2467 18.6203 16.6572 19.2775 15 19.2775C13.3428 19.2775 11.7533 18.6203 10.58 17.45L0.0574981 6.92749C0.0399981 7.12499 -1.90735e-06 7.30374 -1.90735e-06 7.49999V22.5C0.00198291 24.157 0.661101 25.7455 1.83277 26.9172C3.00445 28.0889 4.593 28.748 6.25 28.75H23.75C25.407 28.748 26.9956 28.0889 28.1672 26.9172C29.3389 25.7455 29.998 24.157 30 22.5V7.49999C30 7.30374 29.96 7.12499 29.9425 6.92749Z" fill="#E2A548"/>
<path id="Vector_2" d="M17.6525 15.6825L29.07 4.26375C28.5169 3.34665 27.7368 2.58755 26.805 2.05966C25.8731 1.53178 24.821 1.25293 23.75 1.25H6.25C5.17903 1.25293 4.12688 1.53178 3.19503 2.05966C2.26319 2.58755 1.4831 3.34665 0.93 4.26375L12.3475 15.6825C13.052 16.3841 14.0057 16.7781 15 16.7781C15.9943 16.7781 16.948 16.3841 17.6525 15.6825Z" fill="#E2A548"/>
</g>
<defs>
<clipPath id="clip0_813_58">
<rect width="30" height="30" fill="white"/>
</clipPath>
</defs>
</svg>
