<svg width="22" height="35" viewBox="0 0 22 35" fill="none" xmlns="http://www.w3.org/2000/svg">
<g id="location">
<path id="distance" d="M10.6458 30.1584C10.3055 30.1584 10.0041 30.0587 9.74164 29.8594C9.47914 29.6601 9.28956 29.4 9.17289 29.0792C8.48263 26.9695 7.61736 25.2146 6.57707 23.8146C5.53678 22.4146 4.52567 21.073 3.54375 19.7896C2.57151 18.5063 1.73782 17.1743 1.04269 15.7938C0.347564 14.4132 0 12.6972 0 10.6458C0 7.67082 1.03055 5.15277 3.09164 3.09168C5.15276 1.03056 7.67082 0 10.6458 0C13.6208 0 16.1389 1.03056 18.2 3.09168C20.2611 5.15277 21.2916 7.67082 21.2916 10.6458C21.2916 12.6972 20.9465 14.4132 20.2563 15.7938C19.566 17.1743 18.7298 18.5063 17.7479 19.7896C16.7757 21.073 15.767 22.4146 14.7219 23.8146C13.6767 25.2146 12.809 26.9695 12.1188 29.0792C12.0021 29.4 11.8125 29.6601 11.55 29.8594C11.2875 30.0587 10.9861 30.1584 10.6458 30.1584ZM10.6458 13.6354C11.4722 13.6354 12.1771 13.3437 12.7604 12.7604C13.3437 12.1771 13.6354 11.4722 13.6354 10.6458C13.6354 9.81944 13.3437 9.11458 12.7604 8.53125C12.1771 7.94795 11.4722 7.65629 10.6458 7.65629C9.81944 7.65629 9.11458 7.94795 8.53125 8.53125C7.94792 9.11458 7.65625 9.81944 7.65625 10.6458C7.65625 11.4722 7.94792 12.1771 8.53125 12.7604C9.11458 13.3437 9.81944 13.6354 10.6458 13.6354Z" fill="white"/>
<path id="distance_2" d="M3.077 33.6071C5.03117 34.5356 7.55409 34.9998 10.6458 34.9998C13.7374 34.9998 16.2603 34.5356 18.2145 33.6071C20.1687 32.6786 21.1458 31.4901 21.1458 30.0415C21.1458 29.1762 20.769 28.3839 20.0156 27.6644C19.2621 26.945 18.2194 26.3665 16.8874 25.929L16.0562 28.729C16.552 28.8943 16.9944 29.1009 17.3833 29.3488C17.7722 29.5967 18.0687 29.8276 18.2729 30.0415C17.8159 30.586 16.8315 31.0624 15.3197 31.4707C13.8079 31.879 12.2499 32.0832 10.6458 32.0832C9.04159 32.0832 7.49088 31.879 5.99364 31.4707C4.49643 31.0624 3.51934 30.586 3.06239 30.0415C3.26656 29.8082 3.56795 29.5676 3.96657 29.3196C4.36519 29.0717 4.80269 28.8748 5.27907 28.729L4.41864 25.929C3.08671 26.3665 2.04159 26.945 1.28325 27.6644C0.524919 28.3839 0.145752 29.1762 0.145752 30.0415C0.145752 31.4901 1.12284 32.6786 3.077 33.6071Z" fill="white"/>
</g>
</svg>
