<svg width="40" height="40" viewBox="0 0 40 40" fill="none" xmlns="http://www.w3.org/2000/svg">
<g id="golf_course">
<mask id="mask0_424_10" style="mask-type:alpha" maskUnits="userSpaceOnUse" x="0" y="0" width="40" height="40">
<rect id="Bounding box" width="40" height="40" fill="#D9D9D9"/>
</mask>
<g mask="url(#mask0_424_10)">
<g id="golf_course_2">
<path d="M32.5 35C31.8055 35 31.2153 34.757 30.7292 34.2709C30.243 33.7848 30 33.1945 30 32.5C30 31.8056 30.243 31.2153 30.7292 30.7292C31.2153 30.2431 31.8055 30 32.5 30C33.1944 30 33.7847 30.2431 34.2708 30.7292C34.7569 31.2153 35 31.8056 35 32.5C35 33.1945 34.7569 33.7848 34.2708 34.2709C33.7847 34.757 33.1944 35 32.5 35ZM16.6667 36.6667C13.8889 36.6667 11.5278 36.3403 9.58332 35.6875C7.63888 35.0348 6.66666 34.25 6.66666 33.3334C6.66666 32.6945 7.12499 32.125 8.04166 31.625C8.95832 31.125 10.1667 30.7223 11.6667 30.4167V33.3334H15V3.33337L28.3333 9.83337L18.3333 15V30.0834C20.7222 30.2223 22.7083 30.5903 24.2917 31.1875C25.875 31.7848 26.6667 32.5 26.6667 33.3334C26.6667 34.25 25.6944 35.0348 23.75 35.6875C21.8055 36.3403 19.4444 36.6667 16.6667 36.6667Z" fill="white"/>
<path d="M32.5 35C31.8055 35 31.2153 34.757 30.7292 34.2709C30.243 33.7848 30 33.1945 30 32.5C30 31.8056 30.243 31.2153 30.7292 30.7292C31.2153 30.2431 31.8055 30 32.5 30C33.1944 30 33.7847 30.2431 34.2708 30.7292C34.7569 31.2153 35 31.8056 35 32.5C35 33.1945 34.7569 33.7848 34.2708 34.2709C33.7847 34.757 33.1944 35 32.5 35ZM16.6667 36.6667C13.8889 36.6667 11.5278 36.3403 9.58332 35.6875C7.63888 35.0348 6.66666 34.25 6.66666 33.3334C6.66666 32.6945 7.12499 32.125 8.04166 31.625C8.95832 31.125 10.1667 30.7223 11.6667 30.4167V33.3334H15V3.33337L28.3333 9.83337L18.3333 15V30.0834C20.7222 30.2223 22.7083 30.5903 24.2917 31.1875C25.875 31.7848 26.6667 32.5 26.6667 33.3334C26.6667 34.25 25.6944 35.0348 23.75 35.6875C21.8055 36.3403 19.4444 36.6667 16.6667 36.6667Z" fill="url(#paint0_linear_424_10)"/>
</g>
</g>
</g>
<defs>
<linearGradient id="paint0_linear_424_10" x1="35" y1="33.3334" x2="5.18972" y2="31.2811" gradientUnits="userSpaceOnUse">
<stop stop-color="#FF5600"/>
<stop offset="1" stop-color="#FF9B00"/>
</linearGradient>
</defs>
</svg>
