<svg width="20" height="20" viewBox="0 0 20 20" fill="none" xmlns="http://www.w3.org/2000/svg">
<g clip-path="url(#clip0_83_3344)">
<rect width="20" height="20" rx="10" fill="white"/>
<g clip-path="url(#clip1_83_3344)">
<path d="M38 0H0V20H38V0Z" fill="#B22234"/>
<path d="M0 2.30768H38H0ZM38 5.3846H0H38ZM0 8.46152H38H0ZM38 11.5384H0H38ZM0 14.6154H38H0ZM38 17.6923H0H38Z" fill="black"/>
<path fill-rule="evenodd" clip-rule="evenodd" d="M38 3.07691H0V1.53845H38V3.07691ZM0 4.61538H38V6.15384H0V4.61538ZM38 9.23076H0V7.6923H38V9.23076ZM0 10.7692H38V12.3077H0V10.7692ZM38 15.3846H0V13.8461H38V15.3846ZM0 16.9231H38V18.4615H0V16.9231Z" fill="white"/>
<path d="M15.2 0H0V10.7692H15.2V0Z" fill="#3C3B6E"/>
<path d="M1.26666 0.461548L1.62838 1.57479L0.681396 0.886768H1.85193L0.904948 1.57479L1.26666 0.461548Z" fill="white"/>
<path d="M1.26666 2.61539L1.62838 3.72863L0.681396 3.04061H1.85193L0.904948 3.72863L1.26666 2.61539Z" fill="white"/>
<path d="M1.26666 4.76923L1.62838 5.88247L0.681396 5.19445H1.85193L0.904948 5.88247L1.26666 4.76923Z" fill="white"/>
<path d="M1.26666 6.9231L1.62838 8.03634L0.681396 7.34832H1.85193L0.904948 8.03634L1.26666 6.9231Z" fill="white"/>
<path d="M1.26666 9.07693L1.62838 10.1902L0.681396 9.50216H1.85193L0.904948 10.1902L1.26666 9.07693Z" fill="white"/>
<path d="M2.53332 1.53848L2.89504 2.65172L1.94806 1.9637H3.11859L2.17161 2.65172L2.53332 1.53848Z" fill="white"/>
<path d="M2.53332 3.69232L2.89504 4.80556L1.94806 4.11754H3.11859L2.17161 4.80556L2.53332 3.69232Z" fill="white"/>
<path d="M2.53332 5.84616L2.89504 6.9594L1.94806 6.27138H3.11859L2.17161 6.9594L2.53332 5.84616Z" fill="white"/>
<path d="M2.53332 8.00003L2.89504 9.11327L1.94806 8.42525H3.11859L2.17161 9.11327L2.53332 8.00003Z" fill="white"/>
<path d="M3.79999 0.461548L4.1617 1.57479L3.21472 0.886768H4.38525L3.43827 1.57479L3.79999 0.461548Z" fill="white"/>
<path d="M3.79999 2.61539L4.1617 3.72863L3.21472 3.04061H4.38525L3.43827 3.72863L3.79999 2.61539Z" fill="white"/>
<path d="M3.79999 4.76923L4.1617 5.88247L3.21472 5.19445H4.38525L3.43827 5.88247L3.79999 4.76923Z" fill="white"/>
<path d="M3.79999 6.9231L4.1617 8.03634L3.21472 7.34832H4.38525L3.43827 8.03634L3.79999 6.9231Z" fill="white"/>
<path d="M3.79999 9.07693L4.1617 10.1902L3.21472 9.50216H4.38525L3.43827 10.1902L3.79999 9.07693Z" fill="white"/>
<path d="M5.06665 1.53848L5.42836 2.65172L4.48138 1.9637H5.65192L4.70494 2.65172L5.06665 1.53848Z" fill="white"/>
<path d="M5.06665 3.69232L5.42836 4.80556L4.48138 4.11754H5.65192L4.70494 4.80556L5.06665 3.69232Z" fill="white"/>
<path d="M5.06665 5.84616L5.42836 6.9594L4.48138 6.27138H5.65192L4.70494 6.9594L5.06665 5.84616Z" fill="white"/>
<path d="M5.06665 8.00003L5.42836 9.11327L4.48138 8.42525H5.65192L4.70494 9.11327L5.06665 8.00003Z" fill="white"/>
<path d="M6.33331 0.461548L6.69503 1.57479L5.74805 0.886768H6.91858L5.9716 1.57479L6.33331 0.461548Z" fill="white"/>
<path d="M6.33331 2.61539L6.69503 3.72863L5.74805 3.04061H6.91858L5.9716 3.72863L6.33331 2.61539Z" fill="white"/>
<path d="M6.33331 4.76923L6.69503 5.88247L5.74805 5.19445H6.91858L5.9716 5.88247L6.33331 4.76923Z" fill="white"/>
<path d="M6.33331 6.9231L6.69503 8.03634L5.74805 7.34832H6.91858L5.9716 8.03634L6.33331 6.9231Z" fill="white"/>
<path d="M6.33331 9.07693L6.69503 10.1902L5.74805 9.50216H6.91858L5.9716 10.1902L6.33331 9.07693Z" fill="white"/>
<path d="M7.59997 1.53848L7.96169 2.65172L7.01471 1.9637H8.18524L7.23826 2.65172L7.59997 1.53848Z" fill="white"/>
<path d="M7.59997 3.69232L7.96169 4.80556L7.01471 4.11754H8.18524L7.23826 4.80556L7.59997 3.69232Z" fill="white"/>
<path d="M7.59997 5.84616L7.96169 6.9594L7.01471 6.27138H8.18524L7.23826 6.9594L7.59997 5.84616Z" fill="white"/>
<path d="M7.59997 8.00003L7.96169 9.11327L7.01471 8.42525H8.18524L7.23826 9.11327L7.59997 8.00003Z" fill="white"/>
<path d="M8.86664 0.461548L9.22835 1.57479L8.28137 0.886768H9.4519L8.50492 1.57479L8.86664 0.461548Z" fill="white"/>
<path d="M8.86664 2.61539L9.22835 3.72863L8.28137 3.04061H9.4519L8.50492 3.72863L8.86664 2.61539Z" fill="white"/>
<path d="M8.86664 4.76923L9.22835 5.88247L8.28137 5.19445H9.4519L8.50492 5.88247L8.86664 4.76923Z" fill="white"/>
<path d="M8.86664 6.9231L9.22835 8.03634L8.28137 7.34832H9.4519L8.50492 8.03634L8.86664 6.9231Z" fill="white"/>
<path d="M8.86664 9.07693L9.22835 10.1902L8.28137 9.50216H9.4519L8.50492 10.1902L8.86664 9.07693Z" fill="white"/>
<path d="M10.1333 1.53848L10.495 2.65172L9.54803 1.9637H10.7186L9.77159 2.65172L10.1333 1.53848Z" fill="white"/>
<path d="M10.1333 3.69232L10.495 4.80556L9.54803 4.11754H10.7186L9.77159 4.80556L10.1333 3.69232Z" fill="white"/>
<path d="M10.1333 5.84616L10.495 6.9594L9.54803 6.27138H10.7186L9.77159 6.9594L10.1333 5.84616Z" fill="white"/>
<path d="M10.1333 8.00003L10.495 9.11327L9.54803 8.42525H10.7186L9.77159 9.11327L10.1333 8.00003Z" fill="white"/>
<path d="M11.4 0.461548L11.7617 1.57479L10.8148 0.886768H11.9853L11.0383 1.57479L11.4 0.461548Z" fill="white"/>
<path d="M11.4 2.61539L11.7617 3.72863L10.8148 3.04061H11.9853L11.0383 3.72863L11.4 2.61539Z" fill="white"/>
<path d="M11.4 4.76923L11.7617 5.88247L10.8148 5.19445H11.9853L11.0383 5.88247L11.4 4.76923Z" fill="white"/>
<path d="M11.4 6.9231L11.7617 8.03634L10.8148 7.34832H11.9853L11.0383 8.03634L11.4 6.9231Z" fill="white"/>
<path d="M11.4 9.07693L11.7617 10.1902L10.8148 9.50216H11.9853L11.0383 10.1902L11.4 9.07693Z" fill="white"/>
<path d="M12.6667 1.53848L13.0284 2.65172L12.0814 1.9637H13.252L12.305 2.65172L12.6667 1.53848Z" fill="white"/>
<path d="M12.6667 3.69232L13.0284 4.80556L12.0814 4.11754H13.252L12.305 4.80556L12.6667 3.69232Z" fill="white"/>
<path d="M12.6667 5.84616L13.0284 6.9594L12.0814 6.27138H13.252L12.305 6.9594L12.6667 5.84616Z" fill="white"/>
<path d="M12.6667 8.00003L13.0284 9.11327L12.0814 8.42525H13.252L12.305 9.11327L12.6667 8.00003Z" fill="white"/>
<path d="M13.9333 0.461548L14.2951 1.57479L13.3481 0.886768H14.5186L13.5716 1.57479L13.9333 0.461548Z" fill="white"/>
<path d="M13.9333 2.61539L14.2951 3.72863L13.3481 3.04061H14.5186L13.5716 3.72863L13.9333 2.61539Z" fill="white"/>
<path d="M13.9333 4.76923L14.2951 5.88247L13.3481 5.19445H14.5186L13.5716 5.88247L13.9333 4.76923Z" fill="white"/>
<path d="M13.9333 6.9231L14.2951 8.03634L13.3481 7.34832H14.5186L13.5716 8.03634L13.9333 6.9231Z" fill="white"/>
<path d="M13.9333 9.07693L14.2951 10.1902L13.3481 9.50216H14.5186L13.5716 10.1902L13.9333 9.07693Z" fill="white"/>
</g>
</g>
<defs>
<clipPath id="clip0_83_3344">
<rect width="20" height="20" rx="10" fill="white"/>
</clipPath>
<clipPath id="clip1_83_3344">
<rect width="38" height="20" fill="white"/>
</clipPath>
</defs>
</svg>
