<svg width="20" height="20" viewBox="0 0 20 20" fill="none" xmlns="http://www.w3.org/2000/svg">
<g clip-path="url(#clip0_83_1197)">
<rect width="20" height="20" rx="10" fill="white"/>
<g clip-path="url(#clip1_83_1197)">
<path d="M-4.00006 -3.05176e-05H24.5714V20H-4.00006V-3.05176e-05Z" fill="#009B3A"/>
<path d="M-1.57141 9.99999L10.2857 17.5714L22.1429 9.99999L10.2857 2.42856L-1.57141 9.99999Z" fill="#FEDF00"/>
<path d="M10.2857 15C13.0471 15 15.2857 12.7614 15.2857 10C15.2857 7.23858 13.0471 5 10.2857 5C7.52428 5 5.28571 7.23858 5.28571 10C5.28571 12.7614 7.52428 15 10.2857 15Z" fill="#002776"/>
<mask id="mask0_83_1197" style="mask-type:luminance" maskUnits="userSpaceOnUse" x="5" y="5" width="11" height="10">
<path d="M10.2857 15C13.0471 15 15.2857 12.7614 15.2857 10C15.2857 7.23858 13.0471 5 10.2857 5C7.52428 5 5.28571 7.23858 5.28571 10C5.28571 12.7614 7.52428 15 10.2857 15Z" fill="white"/>
</mask>
<g mask="url(#mask0_83_1197)">
<path d="M-4.71429 20C-4.71429 16.7795 -3.43496 13.6909 -1.15773 11.4137C1.11949 9.13648 4.20808 7.85715 7.42856 7.85715C10.649 7.85715 13.7376 9.13648 16.0149 11.4137C18.2921 13.6909 19.5714 16.7795 19.5714 20H18.8571C18.8571 16.969 17.6531 14.0621 15.5098 11.9188C13.3665 9.77551 10.4596 8.57143 7.42856 8.57143C4.39752 8.57143 1.49062 9.77551 -0.652658 11.9188C-2.79593 14.0621 -4.00001 16.969 -4.00001 20H-4.71429Z" fill="white"/>
</g>
<path fill-rule="evenodd" clip-rule="evenodd" d="M6.02127 8.53845C6.07768 8.53152 6.12872 8.49998 6.16317 8.45076C6.19761 8.40155 6.21264 8.33869 6.20494 8.27601C6.19725 8.21333 6.16746 8.15598 6.12213 8.11655C6.0768 8.07713 6.01965 8.05888 5.96324 8.0658C5.90683 8.07273 5.85579 8.10427 5.82134 8.15349C5.7869 8.2027 5.77187 8.26556 5.77957 8.32824C5.78726 8.39092 5.81705 8.44827 5.86238 8.48769C5.90771 8.52712 5.96486 8.54537 6.02127 8.53845ZM6.01049 8.45067C6.04362 8.4466 6.07347 8.42705 6.09348 8.39632C6.11348 8.36558 6.122 8.32618 6.11717 8.28679C6.11233 8.24739 6.09453 8.21122 6.06768 8.18624C6.04084 8.16126 6.00714 8.14951 5.97402 8.15358C5.94089 8.15765 5.91104 8.1772 5.89103 8.20793C5.87103 8.23867 5.8625 8.27807 5.86734 8.31746C5.87218 8.35686 5.88998 8.39303 5.91682 8.41801C5.94367 8.44299 5.97736 8.45474 6.01049 8.45067Z" fill="#009B3A"/>
<path fill-rule="evenodd" clip-rule="evenodd" d="M6.40932 8.49545L6.49754 8.48928L6.4852 8.31284L6.67521 8.29955C6.71481 8.29678 6.75168 8.2784 6.77772 8.24844C6.80376 8.21849 6.81683 8.17941 6.81407 8.13982C6.8113 8.10022 6.79291 8.06335 6.76296 8.03731C6.733 8.01127 6.69393 7.99819 6.65433 8.00096L6.38288 8.01994L6.40932 8.49545ZM6.47903 8.22462L6.66226 8.21181C6.67845 8.21067 6.69354 8.20315 6.70419 8.1909C6.71484 8.17864 6.72019 8.16266 6.71906 8.14646C6.71793 8.13026 6.71041 8.11518 6.69815 8.10452C6.6859 8.09387 6.66991 8.08852 6.65371 8.08965L6.47049 8.10247L6.47903 8.22462Z" fill="#009B3A"/>
<path d="M6.81311 8.4672C6.80837 8.39934 6.79793 8.25004 6.69614 8.25716L6.5672 8.26617C6.7165 8.25573 6.72693 8.40503 6.73168 8.47289" fill="#009B3A"/>
<path fill-rule="evenodd" clip-rule="evenodd" d="M7.01277 8.45787L7.23722 8.45395C7.26402 8.45348 7.29046 8.44774 7.31504 8.43706C7.33962 8.42637 7.36185 8.41095 7.38046 8.39167C7.39908 8.37239 7.41372 8.34963 7.42354 8.3247C7.43336 8.29976 7.43818 8.27313 7.43771 8.24634L7.43652 8.17832C7.43606 8.15153 7.43031 8.12508 7.41963 8.10051C7.40894 8.07593 7.39352 8.0537 7.37424 8.03508C7.35496 8.01646 7.3322 8.00182 7.30727 7.992C7.28233 7.98218 7.25571 7.97736 7.22891 7.97783L7.00446 7.98175L7.01277 8.45787ZM7.09964 8.3679L7.22888 8.36565C7.26315 8.36505 7.29578 8.35086 7.3196 8.3262C7.34341 8.30154 7.35645 8.26843 7.35585 8.23416L7.35514 8.19335C7.35454 8.15908 7.34035 8.12644 7.31569 8.10263C7.29104 8.07882 7.25793 8.06577 7.22365 8.06637L7.09442 8.06863L7.09964 8.3679Z" fill="#009B3A"/>
<path d="M7.61741 8.45191L8.04572 8.46687L8.04881 8.37849L7.70208 8.36638L7.70636 8.24401L7.9783 8.2535L7.98115 8.17192L7.70921 8.16242L7.71253 8.06724L8.03886 8.07864L8.04195 7.99026L7.63403 7.97601L7.61741 8.45191Z" fill="#009B3A"/>
<path d="M8.22156 8.47764L8.30288 8.48476L8.33134 8.15947L8.39776 8.49306L8.4723 8.49958L8.59564 8.18259L8.56718 8.50788L8.6485 8.515L8.69 8.04062L8.57141 8.03024L8.44807 8.34723L8.38166 8.01364L8.26306 8.00327L8.22156 8.47764Z" fill="#009B3A"/>
<path d="M9.20818 8.58892L9.56017 8.6494L9.57399 8.56894L9.30246 8.52229L9.32089 8.41502L9.54214 8.45303L9.55597 8.37258L9.33472 8.33456L9.34739 8.26081L9.61054 8.30603L9.62437 8.22558L9.28076 8.16653L9.20818 8.58892Z" fill="#009B3A"/>
<path fill-rule="evenodd" clip-rule="evenodd" d="M10.1124 8.76653L10.198 8.78868L10.2423 8.61744L10.4267 8.66513C10.4651 8.67507 10.5059 8.66933 10.5401 8.64919C10.5743 8.62904 10.5991 8.59614 10.6091 8.55771C10.619 8.51928 10.6133 8.47848 10.5931 8.44428C10.573 8.41008 10.5401 8.38528 10.5017 8.37535L10.2382 8.30721L10.1124 8.76653ZM10.2644 8.53182L10.4423 8.57781C10.458 8.58187 10.4747 8.57953 10.4887 8.57129C10.5027 8.56305 10.5128 8.54958 10.5169 8.53386C10.5209 8.51814 10.5186 8.50145 10.5104 8.48746C10.5021 8.47347 10.4886 8.46333 10.4729 8.45926L10.2951 8.41327L10.2644 8.53182Z" fill="#009B3A"/>
<path fill-rule="evenodd" clip-rule="evenodd" d="M10.6967 8.92238L10.781 8.94898L10.8342 8.78029L11.0158 8.83757C11.0537 8.8495 11.0947 8.84591 11.1299 8.82758C11.1652 8.80926 11.1916 8.77769 11.2036 8.73984C11.2155 8.70198 11.2119 8.66094 11.1936 8.62573C11.1753 8.59052 11.1437 8.56404 11.1058 8.5521L10.8463 8.47028L10.6967 8.92238ZM10.8608 8.69595L11.0359 8.75118C11.0514 8.75606 11.0682 8.75459 11.0826 8.7471C11.097 8.7396 11.1079 8.72669 11.1127 8.7112C11.1176 8.69571 11.1162 8.67892 11.1087 8.66452C11.1012 8.65012 11.0883 8.63928 11.0728 8.6344L10.8976 8.57917L10.8608 8.69595Z" fill="#009B3A"/>
<path d="M11.0827 9.0441C11.1031 8.97922 11.1481 8.83649 11.0508 8.8058L10.9276 8.76694C11.0703 8.81194 11.0253 8.95467 11.0048 9.01955" fill="#009B3A"/>
<path fill-rule="evenodd" clip-rule="evenodd" d="M11.4726 9.18365C11.5258 9.20355 11.5857 9.19914 11.639 9.17139C11.6922 9.14364 11.7346 9.09482 11.7567 9.03567C11.7788 8.97653 11.7789 8.91189 11.7569 8.856C11.7349 8.8001 11.6926 8.75751 11.6394 8.73761C11.5861 8.71771 11.5263 8.72212 11.473 8.74987C11.4197 8.77762 11.3774 8.82644 11.3553 8.88558C11.3332 8.94473 11.3331 9.00936 11.3551 9.06526C11.3771 9.12116 11.4194 9.16374 11.4726 9.18365ZM11.5036 9.10081C11.5348 9.1125 11.5703 9.10894 11.6023 9.09092C11.6342 9.07289 11.66 9.04188 11.6739 9.0047C11.6878 8.96752 11.6887 8.92722 11.6764 8.89267C11.6641 8.85812 11.6397 8.83214 11.6084 8.82045C11.5771 8.80876 11.5416 8.81232 11.5097 8.83034C11.4778 8.84836 11.452 8.87938 11.4381 8.91656C11.4242 8.95373 11.4233 8.99403 11.4356 9.02859C11.4479 9.06314 11.4723 9.08912 11.5036 9.10081Z" fill="#009B3A"/>
<mask id="mask1_83_1197" style="mask-type:luminance" maskUnits="userSpaceOnUse" x="11" y="8" width="2" height="2">
<path d="M11.8367 9.3247L12.0266 8.888L12.4196 9.05889L12.2297 9.49559L11.8367 9.3247ZM12.1607 9.11693L12.1281 9.19179L12.3246 9.27724L12.3572 9.20238L12.1607 9.11693Z" fill="white"/>
</mask>
<g mask="url(#mask1_83_1197)">
<path fill-rule="evenodd" clip-rule="evenodd" d="M12.0332 9.41014C12.0853 9.4328 12.1453 9.43153 12.1999 9.40661C12.2546 9.38169 12.2995 9.33515 12.3246 9.27724C12.3498 9.21933 12.3533 9.15479 12.3342 9.09782C12.3152 9.04085 12.2752 8.99611 12.2231 8.97345C12.1709 8.95078 12.111 8.95206 12.0563 8.97698C12.0016 9.0019 11.9568 9.04844 11.9316 9.10635C11.9064 9.16426 11.903 9.2288 11.922 9.28577C11.9411 9.34274 11.9811 9.38748 12.0332 9.41014ZM12.0684 9.32904C12.0991 9.34235 12.1347 9.34066 12.1675 9.32433C12.2004 9.308 12.2277 9.27838 12.2435 9.24198C12.2594 9.20558 12.2624 9.16538 12.2519 9.13023C12.2415 9.09508 12.2184 9.06786 12.1878 9.05455C12.1572 9.04124 12.1215 9.04293 12.0887 9.05926C12.0559 9.07559 12.0285 9.10521 12.0127 9.14161C11.9969 9.17801 11.9939 9.21821 12.0043 9.25336C12.0148 9.28851 12.0378 9.31573 12.0684 9.32904Z" fill="#009B3A"/>
</g>
<path d="M12.1593 9.20535L12.3246 9.27724L12.2975 9.33962L12.1322 9.26774L12.1593 9.20535Z" fill="#009B3A"/>
<path d="M12.2623 9.25012L12.3247 9.27725L12.2297 9.4956L12.1673 9.46847L12.2623 9.25012Z" fill="#009B3A"/>
<path fill-rule="evenodd" clip-rule="evenodd" d="M12.3893 9.57002L12.4685 9.60948L12.5474 9.45119L12.7179 9.53618C12.7534 9.55389 12.7945 9.55677 12.8321 9.54417C12.8698 9.53158 12.9009 9.50455 12.9186 9.46902C12.9363 9.4335 12.9392 9.3924 12.9266 9.35476C12.914 9.31712 12.8869 9.28602 12.8514 9.26831L12.6079 9.1469L12.3893 9.57002ZM12.5869 9.37205L12.7512 9.454C12.7658 9.46125 12.7826 9.46242 12.798 9.45727C12.8134 9.45212 12.8261 9.44106 12.8333 9.42653C12.8406 9.412 12.8418 9.39518 12.8366 9.37978C12.8315 9.36438 12.8204 9.35166 12.8059 9.34442L12.6415 9.26246L12.5869 9.37205Z" fill="#009B3A"/>
<path d="M12.7516 9.75062C12.7819 9.68974 12.8487 9.55581 12.7574 9.51028L12.6417 9.45261C12.7757 9.51938 12.7089 9.65332 12.6785 9.7142" fill="#009B3A"/>
<path d="M12.9284 9.84393L13.3014 10.055L13.345 9.978L13.043 9.80716L13.1033 9.70058L13.3401 9.83458L13.3803 9.76353L13.1435 9.62953L13.1904 9.54664L13.4746 9.70743L13.5182 9.63046L13.1629 9.42947L12.9284 9.84393Z" fill="#009B3A"/>
<path d="M13.6231 10.0771C13.5976 10.1172 13.6235 10.162 13.6809 10.1985C13.7382 10.2351 13.7773 10.2337 13.7938 10.208C13.8459 10.1262 13.5448 10.007 13.6376 9.86445C13.7176 9.74201 13.8545 9.8373 13.9062 9.87019C13.9578 9.90309 14.0407 9.98817 13.9762 10.0862L13.8887 10.0305C13.9161 9.98746 13.886 9.9461 13.8401 9.91685C13.7957 9.88853 13.7596 9.8756 13.7331 9.91719C13.6887 9.98369 13.9838 10.1092 13.8933 10.2512C13.8266 10.3559 13.7106 10.3102 13.6331 10.2608C13.5671 10.2188 13.4685 10.1197 13.5328 10.0195L13.6231 10.0771Z" fill="#009B3A"/>
<path d="M14.134 10.4148C14.1063 10.4536 14.1299 10.4996 14.1853 10.5391C14.2406 10.5786 14.2797 10.5794 14.2976 10.5545C14.3539 10.4756 14.0594 10.3407 14.1595 10.2033C14.2458 10.0852 14.3776 10.1875 14.4274 10.2231C14.4773 10.2586 14.5556 10.3479 14.4861 10.4425L14.4016 10.3822C14.4313 10.3407 14.4034 10.2978 14.3591 10.2662C14.3161 10.2356 14.2807 10.2208 14.2521 10.2609C14.2043 10.325 14.4924 10.4658 14.3947 10.6029C14.3226 10.7039 14.2091 10.6522 14.1343 10.5989C14.0706 10.5535 13.9773 10.4493 14.0467 10.3526L14.134 10.4148Z" fill="#009B3A"/>
<path fill-rule="evenodd" clip-rule="evenodd" d="M14.6171 10.9627C14.6616 10.9981 14.7199 11.0124 14.7791 11.0025C14.8384 10.9926 14.8937 10.9592 14.933 10.9098C14.9723 10.8604 14.9924 10.7989 14.9887 10.739C14.9851 10.679 14.958 10.6254 14.9136 10.5901C14.8691 10.5547 14.8108 10.5404 14.7516 10.5503C14.6923 10.5602 14.6369 10.5936 14.5976 10.643C14.5583 10.6924 14.5383 10.7539 14.5419 10.8138C14.5456 10.8738 14.5726 10.9274 14.6171 10.9627ZM14.6722 10.8935C14.6983 10.9143 14.7332 10.9219 14.7691 10.9146C14.805 10.9073 14.8391 10.8858 14.8638 10.8547C14.8885 10.8237 14.9019 10.7856 14.9009 10.749C14.8999 10.7123 14.8846 10.68 14.8585 10.6593C14.8324 10.6385 14.7975 10.6309 14.7616 10.6382C14.7256 10.6455 14.6916 10.667 14.6668 10.6981C14.6421 10.7291 14.6288 10.7672 14.6298 10.8038C14.6308 10.8405 14.646 10.8727 14.6722 10.8935Z" fill="#009B3A"/>
<path d="M6.2041 8.88776L6.13788 9.09155L6.23978 9.12466" fill="white"/>
<path d="M6.2041 8.88776L6.27032 9.09155L6.16842 9.12466" fill="white"/>
<path d="M6.4079 9.03583H6.19361V9.14297" fill="white"/>
<path d="M6.4079 9.03583L6.23454 9.16178L6.17156 9.0751" fill="white"/>
<path d="M6.00031 9.0358L6.17367 9.16175L6.23664 9.07507" fill="white"/>
<path d="M6.00031 9.0358H6.21459V9.14294" fill="white"/>
<path d="M6.33002 9.27542L6.2638 9.07162L6.1619 9.10473" fill="white"/>
<path d="M6.33002 9.27542L6.15666 9.14947L6.21963 9.06279" fill="white"/>
<path d="M6.07812 9.27539L6.25149 9.14944L6.18851 9.06276" fill="white"/>
<path d="M6.07812 9.27539L6.14434 9.07159L6.24624 9.1047" fill="white"/>
<path d="M6.64624 10.9898L6.58002 11.1936L6.68192 11.2267" fill="white"/>
<path d="M6.64624 10.9898L6.71246 11.1936L6.61056 11.2267" fill="white"/>
<path d="M6.85004 11.1379H6.63575V11.245" fill="white"/>
<path d="M6.85004 11.1379L6.67668 11.2638L6.6137 11.1772" fill="white"/>
<path d="M6.44244 11.1378L6.6158 11.2638L6.67878 11.1771" fill="white"/>
<path d="M6.44244 11.1378H6.65673V11.245" fill="white"/>
<path d="M6.77216 11.3775L6.70594 11.1737L6.60404 11.2068" fill="white"/>
<path d="M6.77216 11.3775L6.59879 11.2515L6.66177 11.1648" fill="white"/>
<path d="M6.52026 11.3774L6.69362 11.2515L6.63065 11.1648" fill="white"/>
<path d="M6.52026 11.3774L6.58648 11.1736L6.68838 11.2068" fill="white"/>
<path d="M6.034 11.4745L5.97881 11.6443L6.06373 11.6719" fill="white"/>
<path d="M6.034 11.4745L6.08918 11.6443L6.00426 11.6719" fill="white"/>
<path d="M6.20386 11.5979H6.02529V11.6872" fill="white"/>
<path d="M6.20386 11.5979L6.05939 11.7028L6.00691 11.6306" fill="white"/>
<path d="M5.8642 11.5979L6.00866 11.7029L6.06114 11.6306" fill="white"/>
<path d="M5.8642 11.5979H6.04277V11.6872" fill="white"/>
<path d="M6.13898 11.7975L6.0838 11.6277L5.99888 11.6553" fill="white"/>
<path d="M6.13898 11.7975L5.99451 11.6926L6.04699 11.6204" fill="white"/>
<path d="M5.92902 11.7975L6.07348 11.6926L6.021 11.6203" fill="white"/>
<path d="M5.92902 11.7975L5.9842 11.6277L6.06911 11.6553" fill="white"/>
<path d="M7.13605 10.7959L7.10452 10.893L7.15304 10.9087" fill="white"/>
<path d="M7.13605 10.7959L7.16758 10.893L7.11906 10.9087" fill="white"/>
<path d="M7.23309 10.8664H7.13105V10.9174" fill="white"/>
<path d="M7.23309 10.8664L7.15054 10.9264L7.12055 10.8851" fill="white"/>
<path d="M7.039 10.8665L7.12155 10.9264L7.15154 10.8852" fill="white"/>
<path d="M7.039 10.8665H7.14104V10.9175" fill="white"/>
<path d="M7.19604 10.9805L7.16451 10.8835L7.11599 10.8992" fill="white"/>
<path d="M7.19604 10.9805L7.11349 10.9206L7.14348 10.8793" fill="white"/>
<path d="M7.07605 10.9805L7.1586 10.9205L7.12861 10.8792" fill="white"/>
<path d="M7.07605 10.9805L7.10758 10.8835L7.15611 10.8992" fill="white"/>
<path d="M7.68707 11.5221L7.63189 11.6919L7.71681 11.7195" fill="white"/>
<path d="M7.68707 11.5221L7.74225 11.6919L7.65734 11.7195" fill="white"/>
<path d="M7.85693 11.6455H7.67836V11.7348" fill="white"/>
<path d="M7.85693 11.6455L7.71247 11.7504L7.65999 11.6782" fill="white"/>
<path d="M7.51727 11.6455L7.66174 11.7505L7.71422 11.6782" fill="white"/>
<path d="M7.51727 11.6455H7.69584V11.7348" fill="white"/>
<path d="M7.79205 11.8452L7.73687 11.6753L7.65196 11.7029" fill="white"/>
<path d="M7.79205 11.8452L7.64759 11.7402L7.70007 11.668" fill="white"/>
<path d="M7.58209 11.8451L7.72656 11.7402L7.67408 11.6679" fill="white"/>
<path d="M7.58209 11.8451L7.63727 11.6753L7.72219 11.7029" fill="white"/>
<path d="M7.53741 12.0544L7.49327 12.1903L7.5612 12.2124" fill="white"/>
<path d="M7.53741 12.0544L7.58156 12.1903L7.51363 12.2124" fill="white"/>
<path d="M7.67328 12.1531H7.53042V12.2245" fill="white"/>
<path d="M7.67328 12.1531L7.5577 12.2371L7.51572 12.1793" fill="white"/>
<path d="M7.40155 12.1531L7.51712 12.2371L7.55911 12.1793" fill="white"/>
<path d="M7.40155 12.1531H7.54441V12.2246" fill="white"/>
<path d="M7.6214 12.3128L7.57725 12.177L7.50932 12.199" fill="white"/>
<path d="M7.6214 12.3128L7.50583 12.2289L7.54781 12.1711" fill="white"/>
<path d="M7.45349 12.3129L7.56907 12.2289L7.52708 12.1711" fill="white"/>
<path d="M7.45349 12.3129L7.49764 12.177L7.56557 12.1991" fill="white"/>
<path d="M11.8367 8.23468L11.7705 8.43848L11.8724 8.47159" fill="white"/>
<path d="M11.8367 8.23468L11.9029 8.43848L11.801 8.47159" fill="white"/>
<path d="M12.0405 8.38275H11.8262V8.48989" fill="white"/>
<path d="M12.0405 8.38275L11.8672 8.50871L11.8042 8.42203" fill="white"/>
<path d="M11.6329 8.38272L11.8063 8.50867L11.8693 8.42199" fill="white"/>
<path d="M11.6329 8.38272H11.8472V8.48986" fill="white"/>
<path d="M11.9626 8.62234L11.8964 8.41855L11.7945 8.45166" fill="white"/>
<path d="M11.9626 8.62234L11.7893 8.49639L11.8523 8.40971" fill="white"/>
<path d="M11.7108 8.62231L11.8841 8.49636L11.8211 8.40968" fill="white"/>
<path d="M11.7108 8.62231L11.777 8.41852L11.8789 8.45163" fill="white"/>
<path d="M13.7891 11.5408L13.7229 11.7446L13.8248 11.7777" fill="white"/>
<path d="M13.7891 11.5408L13.8553 11.7446L13.7534 11.7777" fill="white"/>
<path d="M13.9929 11.6889H13.7786V11.796" fill="white"/>
<path d="M13.9929 11.6889L13.8196 11.8148L13.7566 11.7281" fill="white"/>
<path d="M13.5853 11.6888L13.7587 11.8148L13.8217 11.7281" fill="white"/>
<path d="M13.5853 11.6888H13.7996V11.796" fill="white"/>
<path d="M13.915 11.9285L13.8488 11.7247L13.7469 11.7578" fill="white"/>
<path d="M13.915 11.9285L13.7417 11.8025L13.8047 11.7158" fill="white"/>
<path d="M13.6631 11.9284L13.8365 11.8025L13.7735 11.7158" fill="white"/>
<path d="M13.6631 11.9284L13.7294 11.7246L13.8313 11.7577" fill="white"/>
<path d="M14.483 11.6599L14.4388 11.7957L14.5068 11.8178" fill="white"/>
<path d="M14.483 11.6599L14.5271 11.7957L14.4592 11.8178" fill="white"/>
<path d="M14.6188 11.7586H14.476V11.83" fill="white"/>
<path d="M14.6188 11.7586L14.5033 11.8425L14.4613 11.7848" fill="white"/>
<path d="M14.3471 11.7586L14.4627 11.8425L14.5047 11.7848" fill="white"/>
<path d="M14.3471 11.7586H14.49V11.83" fill="white"/>
<path d="M14.567 11.9183L14.5228 11.7824L14.4549 11.8045" fill="white"/>
<path d="M14.567 11.9183L14.4514 11.8343L14.4934 11.7765" fill="white"/>
<path d="M14.399 11.9183L14.5146 11.8343L14.4726 11.7765" fill="white"/>
<path d="M14.399 11.9183L14.4432 11.7824L14.5111 11.8045" fill="white"/>
<path d="M13.9932 12.0187L13.938 12.1885L14.0229 12.2161" fill="white"/>
<path d="M13.9932 12.0187L14.0483 12.1885L13.9634 12.2161" fill="white"/>
<path d="M14.163 12.1421H13.9845V12.2314" fill="white"/>
<path d="M14.163 12.1421L14.0186 12.2471L13.9661 12.1748" fill="white"/>
<path d="M13.8234 12.1421L13.9678 12.2471L14.0203 12.1748" fill="white"/>
<path d="M13.8234 12.1421H14.0019V12.2314" fill="white"/>
<path d="M14.0981 12.3418L14.043 12.1719L13.958 12.1995" fill="white"/>
<path d="M14.0981 12.3418L13.9537 12.2368L14.0062 12.1646" fill="white"/>
<path d="M13.8882 12.3417L14.0327 12.2368L13.9802 12.1645" fill="white"/>
<path d="M13.8882 12.3417L13.9434 12.1719L14.0283 12.1995" fill="white"/>
<path d="M12.7891 13.0663L12.7339 13.2361L12.8188 13.2637" fill="white"/>
<path d="M12.7891 13.0663L12.8442 13.2361L12.7593 13.2637" fill="white"/>
<path d="M12.9589 13.1897H12.7804V13.279" fill="white"/>
<path d="M12.9589 13.1897L12.8145 13.2947L12.762 13.2224" fill="white"/>
<path d="M12.6193 13.1897L12.7637 13.2947L12.8162 13.2225" fill="white"/>
<path d="M12.6193 13.1897H12.7978V13.279" fill="white"/>
<path d="M12.894 13.3894L12.8389 13.2195L12.7539 13.2471" fill="white"/>
<path d="M12.894 13.3894L12.7496 13.2844L12.8021 13.2122" fill="white"/>
<path d="M12.6841 13.3893L12.8285 13.2844L12.7761 13.2121" fill="white"/>
<path d="M12.6841 13.3893L12.7393 13.2195L12.8242 13.2471" fill="white"/>
<path d="M12.7823 13.6054L12.7381 13.7413L12.8061 13.7634" fill="white"/>
<path d="M12.7823 13.6054L12.8264 13.7413L12.7585 13.7634" fill="white"/>
<path d="M12.9182 13.7042H12.7753V13.7756" fill="white"/>
<path d="M12.9182 13.7042L12.8026 13.7881L12.7606 13.7303" fill="white"/>
<path d="M12.6464 13.7042L12.762 13.7881L12.804 13.7303" fill="white"/>
<path d="M12.6464 13.7042H12.7893V13.7756" fill="white"/>
<path d="M12.8663 13.8639L12.8221 13.728L12.7542 13.7501" fill="white"/>
<path d="M12.8663 13.8639L12.7507 13.7799L12.7927 13.7221" fill="white"/>
<path d="M12.6984 13.8639L12.8139 13.7799L12.772 13.7221" fill="white"/>
<path d="M12.6984 13.8639L12.7425 13.728L12.8104 13.7501" fill="white"/>
<path d="M13.2857 12.7075L13.2416 12.8434L13.3095 12.8654" fill="white"/>
<path d="M13.2857 12.7075L13.3299 12.8434L13.2619 12.8654" fill="white"/>
<path d="M13.4216 12.8062H13.2787V12.8776" fill="white"/>
<path d="M13.4216 12.8062L13.306 12.8902L13.264 12.8324" fill="white"/>
<path d="M13.1498 12.8062L13.2654 12.8902L13.3074 12.8324" fill="white"/>
<path d="M13.1498 12.8062H13.2927V12.8776" fill="white"/>
<path d="M13.3697 12.9659L13.3255 12.83L13.2576 12.8521" fill="white"/>
<path d="M13.3697 12.9659L13.2541 12.8819L13.2961 12.8242" fill="white"/>
<path d="M13.2018 12.9659L13.3174 12.882L13.2754 12.8242" fill="white"/>
<path d="M13.2018 12.9659L13.2459 12.8301L13.3139 12.8521" fill="white"/>
<path d="M13.6871 12.4201L13.6319 12.5899L13.7168 12.6175" fill="white"/>
<path d="M13.6871 12.4201L13.7423 12.5899L13.6573 12.6175" fill="white"/>
<path d="M13.8569 12.5435H13.6784V12.6327" fill="white"/>
<path d="M13.8569 12.5435L13.7125 12.6484L13.66 12.5762" fill="white"/>
<path d="M13.5173 12.5435L13.6617 12.6484L13.7142 12.5762" fill="white"/>
<path d="M13.5173 12.5435H13.6958V12.6328" fill="white"/>
<path d="M13.7921 12.7431L13.7369 12.5733L13.652 12.6009" fill="white"/>
<path d="M13.7921 12.7431L13.6476 12.6382L13.7001 12.5659" fill="white"/>
<path d="M13.5821 12.7431L13.7266 12.6381L13.6741 12.5659" fill="white"/>
<path d="M13.5821 12.7431L13.6373 12.5733L13.7222 12.6009" fill="white"/>
<path d="M12.7687 12.6122L12.7246 12.7481L12.7925 12.7702" fill="white"/>
<path d="M12.7687 12.6122L12.8129 12.7481L12.745 12.7702" fill="white"/>
<path d="M12.9046 12.7109H12.7617V12.7824" fill="white"/>
<path d="M12.9046 12.7109L12.789 12.7949L12.747 12.7371" fill="white"/>
<path d="M12.6329 12.711L12.7484 12.7949L12.7904 12.7372" fill="white"/>
<path d="M12.6329 12.711H12.7757V12.7824" fill="white"/>
<path d="M12.8527 12.8707L12.8086 12.7348L12.7406 12.7569" fill="white"/>
<path d="M12.8527 12.8707L12.7371 12.7867L12.7791 12.7289" fill="white"/>
<path d="M12.6848 12.8707L12.8004 12.7867L12.7584 12.7289" fill="white"/>
<path d="M12.6848 12.8707L12.729 12.7348L12.7969 12.7569" fill="white"/>
<path d="M8.38092 10.0255L8.32574 10.1953L8.41065 10.2229" fill="white"/>
<path d="M8.38092 10.0255L8.4361 10.1953L8.35119 10.2229" fill="white"/>
<path d="M8.55078 10.1489H8.37221V10.2382" fill="white"/>
<path d="M8.55078 10.1489L8.40631 10.2539L8.35383 10.1816" fill="white"/>
<path d="M8.21112 10.1489L8.35559 10.2539L8.40807 10.1817" fill="white"/>
<path d="M8.21112 10.1489H8.38969V10.2382" fill="white"/>
<path d="M8.4859 10.3486L8.43072 10.1787L8.3458 10.2063" fill="white"/>
<path d="M8.4859 10.3486L8.34143 10.2436L8.39391 10.1714" fill="white"/>
<path d="M8.27594 10.3485L8.42041 10.2436L8.36793 10.1713" fill="white"/>
<path d="M8.27594 10.3485L8.33112 10.1787L8.41604 10.2063" fill="white"/>
<path d="M11.6462 9.60544L11.6021 9.7413L11.67 9.76338" fill="white"/>
<path d="M11.6462 9.60544L11.6904 9.7413L11.6225 9.76338" fill="white"/>
<path d="M11.7821 9.70416H11.6392V9.77559" fill="white"/>
<path d="M11.7821 9.70416L11.6665 9.78813L11.6245 9.73034" fill="white"/>
<path d="M11.5104 9.70416L11.6259 9.78813L11.6679 9.73034" fill="white"/>
<path d="M11.5104 9.70416H11.6532V9.77559" fill="white"/>
<path d="M11.7302 9.86386L11.6861 9.728L11.6181 9.75007" fill="white"/>
<path d="M11.7302 9.86386L11.6147 9.77989L11.6566 9.7221" fill="white"/>
<path d="M11.5623 9.86389L11.6779 9.77992L11.6359 9.72214" fill="white"/>
<path d="M11.5623 9.86389L11.6065 9.72803L11.6744 9.7501" fill="white"/>
<path d="M10.2857 12.0306L10.2195 12.2344L10.3214 12.2675" fill="white"/>
<path d="M10.2857 12.0306L10.3519 12.2344L10.25 12.2675" fill="white"/>
<path d="M10.4895 12.1787H10.2752V12.2858" fill="white"/>
<path d="M10.4895 12.1787L10.3161 12.3046L10.2532 12.218" fill="white"/>
<path d="M10.0819 12.1786L10.2553 12.3046L10.3182 12.2179" fill="white"/>
<path d="M10.0819 12.1786H10.2962V12.2858" fill="white"/>
<path d="M10.4116 12.4183L10.3454 12.2145L10.2435 12.2476" fill="white"/>
<path d="M10.4116 12.4183L10.2383 12.2923L10.3012 12.2056" fill="white"/>
<path d="M10.1597 12.4182L10.3331 12.2923L10.2701 12.2056" fill="white"/>
<path d="M10.1597 12.4182L10.2259 12.2144L10.3278 12.2476" fill="white"/>
<path d="M10.8639 11.0731L10.8087 11.243L10.8936 11.2705" fill="white"/>
<path d="M10.8639 11.0731L10.9191 11.243L10.8342 11.2705" fill="white"/>
<path d="M11.0338 11.1965H10.8552V11.2858" fill="white"/>
<path d="M11.0338 11.1965L10.8893 11.3015L10.8368 11.2292" fill="white"/>
<path d="M10.6941 11.1965L10.8386 11.3015L10.891 11.2293" fill="white"/>
<path d="M10.6941 11.1965H10.8727V11.2858" fill="white"/>
<path d="M10.9689 11.3962L10.9137 11.2263L10.8288 11.2539" fill="white"/>
<path d="M10.9689 11.3962L10.8244 11.2912L10.8769 11.219" fill="white"/>
<path d="M10.7589 11.3961L10.9034 11.2912L10.8509 11.219" fill="white"/>
<path d="M10.7589 11.3961L10.8141 11.2263L10.899 11.2539" fill="white"/>
<path d="M10.2857 10.6241L10.2305 10.794L10.3154 10.8216" fill="white"/>
<path d="M10.2857 10.6241L10.3409 10.794L10.256 10.8216" fill="white"/>
<path d="M10.4556 10.7475H10.277V10.8368" fill="white"/>
<path d="M10.4556 10.7475L10.3111 10.8525L10.2586 10.7803" fill="white"/>
<path d="M10.1159 10.7476L10.2604 10.8525L10.3129 10.7803" fill="white"/>
<path d="M10.1159 10.7476H10.2945V10.8368" fill="white"/>
<path d="M10.3907 10.9472L10.3355 10.7774L10.2506 10.805" fill="white"/>
<path d="M10.3907 10.9472L10.2462 10.8422L10.2987 10.77" fill="white"/>
<path d="M10.1807 10.9472L10.3252 10.8422L10.2727 10.77" fill="white"/>
<path d="M10.1807 10.9472L10.2359 10.7773L10.3208 10.8049" fill="white"/>
<path d="M9.78229 11.1089L9.73814 11.2447L9.80607 11.2668" fill="white"/>
<path d="M9.78229 11.1089L9.82643 11.2447L9.7585 11.2668" fill="white"/>
<path d="M9.91815 11.2076H9.77529V11.279" fill="white"/>
<path d="M9.91815 11.2076L9.80258 11.2915L9.76059 11.2338" fill="white"/>
<path d="M9.64642 11.2076L9.762 11.2915L9.80398 11.2338" fill="white"/>
<path d="M9.64642 11.2076H9.78928V11.279" fill="white"/>
<path d="M9.86627 11.3673L9.82213 11.2314L9.75419 11.2535" fill="white"/>
<path d="M9.86627 11.3673L9.7507 11.2833L9.79268 11.2255" fill="white"/>
<path d="M9.69836 11.3673L9.81394 11.2833L9.77195 11.2256" fill="white"/>
<path d="M9.69836 11.3673L9.74251 11.2314L9.81044 11.2535" fill="white"/>
<path d="M10.0341 11.4966L10.0025 11.5937L10.051 11.6094" fill="white"/>
<path d="M10.0341 11.4966L10.0656 11.5937L10.0171 11.6094" fill="white"/>
<path d="M10.1311 11.5671H10.0291V11.6181" fill="white"/>
<path d="M10.1311 11.5671L10.0486 11.6271L10.0186 11.5858" fill="white"/>
<path d="M9.93701 11.5671L10.0196 11.6271L10.0496 11.5858" fill="white"/>
<path d="M9.93701 11.5671H10.0391V11.6182" fill="white"/>
<path d="M10.0941 11.6812L10.0625 11.5842L10.014 11.5999" fill="white"/>
<path d="M10.0941 11.6812L10.0115 11.6212L10.0415 11.58" fill="white"/>
<path d="M9.97406 11.6812L10.0566 11.6212L10.0266 11.5799" fill="white"/>
<path d="M9.97406 11.6812L10.0056 11.5841L10.0541 11.5999" fill="white"/>
<path d="M11.7823 13.1888L11.7271 13.3586L11.812 13.3862" fill="white"/>
<path d="M11.7823 13.1888L11.8375 13.3586L11.7526 13.3862" fill="white"/>
<path d="M11.9521 13.3122H11.7736V13.4015" fill="white"/>
<path d="M11.9521 13.3122L11.8077 13.4171L11.7552 13.3449" fill="white"/>
<path d="M11.6125 13.3122L11.757 13.4172L11.8094 13.3449" fill="white"/>
<path d="M11.6125 13.3122H11.7911V13.4015" fill="white"/>
<path d="M11.8873 13.5118L11.8321 13.342L11.7472 13.3696" fill="white"/>
<path d="M11.8873 13.5118L11.7428 13.4069L11.7953 13.3346" fill="white"/>
<path d="M11.6773 13.5118L11.8218 13.4068L11.7693 13.3346" fill="white"/>
<path d="M11.6773 13.5118L11.7325 13.342L11.8174 13.3696" fill="white"/>
<path d="M12.2109 12.7823L12.1667 12.9182L12.2347 12.9403" fill="white"/>
<path d="M12.2109 12.7823L12.255 12.9182L12.1871 12.9403" fill="white"/>
<path d="M12.3467 12.881H12.2039V12.9525" fill="white"/>
<path d="M12.3467 12.881L12.2312 12.965L12.1892 12.9072" fill="white"/>
<path d="M12.075 12.881L12.1906 12.965L12.2326 12.9072" fill="white"/>
<path d="M12.075 12.881H12.2179V12.9525" fill="white"/>
<path d="M12.2949 13.0407L12.2507 12.9049L12.1828 12.9269" fill="white"/>
<path d="M12.2949 13.0407L12.1793 12.9568L12.2213 12.899" fill="white"/>
<path d="M12.127 13.0408L12.2425 12.9568L12.2005 12.899" fill="white"/>
<path d="M12.127 13.0408L12.1711 12.9049L12.239 12.927" fill="white"/>
<path d="M11.3878 12.6599L11.3436 12.7957L11.4115 12.8178" fill="white"/>
<path d="M11.3878 12.6599L11.4319 12.7957L11.364 12.8178" fill="white"/>
<path d="M11.5236 12.7586H11.3808V12.83" fill="white"/>
<path d="M11.5236 12.7586L11.408 12.8425L11.3661 12.7848" fill="white"/>
<path d="M11.2519 12.7586L11.3675 12.8425L11.4095 12.7848" fill="white"/>
<path d="M11.2519 12.7586H11.3947V12.83" fill="white"/>
<path d="M11.4717 12.9183L11.4276 12.7824L11.3597 12.8045" fill="white"/>
<path d="M11.4717 12.9183L11.3562 12.8343L11.3982 12.7765" fill="white"/>
<path d="M11.3038 12.9183L11.4194 12.8343L11.3774 12.7765" fill="white"/>
<path d="M11.3038 12.9183L11.348 12.7824L11.4159 12.8045" fill="white"/>
<path d="M8.27893 12.4388L8.21271 12.6426L8.31461 12.6757" fill="white"/>
<path d="M8.27893 12.4388L8.34515 12.6426L8.24325 12.6757" fill="white"/>
<path d="M8.48273 12.5869H8.26844V12.694" fill="white"/>
<path d="M8.48273 12.5869L8.30937 12.7128L8.24639 12.6261" fill="white"/>
<path d="M8.07513 12.5868L8.2485 12.7128L8.31147 12.6261" fill="white"/>
<path d="M8.07513 12.5868H8.28942V12.694" fill="white"/>
<path d="M8.40485 12.8264L8.33863 12.6226L8.23673 12.6558" fill="white"/>
<path d="M8.40485 12.8264L8.23149 12.7005L8.29446 12.6138" fill="white"/>
<path d="M8.15295 12.8264L8.32631 12.7005L8.26334 12.6138" fill="white"/>
<path d="M8.15295 12.8264L8.21917 12.6226L8.32107 12.6557" fill="white"/>
<path d="M10.2857 13.8401L10.2636 13.9081L10.2976 13.9191" fill="white"/>
<path d="M10.2857 13.8401L10.3078 13.9081L10.2738 13.9191" fill="white"/>
<path d="M10.3536 13.8895H10.2822V13.9252" fill="white"/>
<path d="M10.3536 13.8895L10.2959 13.9315L10.2749 13.9026" fill="white"/>
<path d="M10.2178 13.8895L10.2756 13.9315L10.2966 13.9026" fill="white"/>
<path d="M10.2178 13.8895H10.2892V13.9252" fill="white"/>
<path d="M10.3277 13.9694L10.3056 13.9014L10.2717 13.9125" fill="white"/>
<path d="M10.3277 13.9694L10.2699 13.9274L10.2909 13.8985" fill="white"/>
<path d="M10.2437 13.9694L10.3015 13.9274L10.2805 13.8985" fill="white"/>
<path d="M10.2437 13.9694L10.2658 13.9014L10.2998 13.9125" fill="white"/>
</g>
</g>
<defs>
<clipPath id="clip0_83_1197">
<rect width="20" height="20" rx="10" fill="white"/>
</clipPath>
<clipPath id="clip1_83_1197">
<rect width="28.5714" height="20" fill="white" transform="translate(-4)"/>
</clipPath>
</defs>
</svg>
