<svg width="60" height="60" viewBox="0 0 60 60" fill="none" xmlns="http://www.w3.org/2000/svg">
<g id="check">
<path id="Vector" fill-rule="evenodd" clip-rule="evenodd" d="M50.3032 16.8467C49.7945 17.0918 48.5873 18.2944 48.3468 18.8031C49.1053 20.681 49.2533 20.7272 49.9795 22.9473C50.4697 24.4366 50.7334 26.06 50.9461 27.7066C51.4225 31.3466 50.5391 35.3289 49.7066 37.845C46.9407 46.2026 39.7023 52.0997 31.1134 53.7509C24.9342 54.9396 18.0057 53.2838 13.0197 49.6808C5.44372 44.2046 1.4707 35.1254 3.18201 25.6808C3.86191 21.9066 5.29571 18.706 7.48342 15.6673C8.95885 13.6276 11.2899 11.4029 13.4036 9.99683C14.0142 9.58981 14.5414 9.28455 15.1797 8.90991C17.6495 7.44373 20.8224 6.50482 23.7871 6.06081C25.813 5.76017 27.3346 5.90818 29.305 5.98681C31.229 6.07006 34.425 6.92109 36.1687 7.71199C39.3462 9.15505 39.1704 6.53258 38.7264 5.97293C38.0512 5.12652 33.4769 3.84998 32.3391 3.6326C25.1146 2.24505 18.1999 3.84073 13.51 6.69446C12.2566 7.45761 11.2252 8.10513 10.1105 9.02092C8.07081 10.686 6.78964 12.0134 5.22634 14.0901C4.98583 14.4092 4.82395 14.6867 4.62506 14.9874C1.21169 20.1074 -0.666129 26.7214 0.217278 33.1643C0.485538 35.1161 0.758423 36.2493 1.21169 37.8958C1.57245 39.2048 2.2801 40.8513 2.849 41.9845C3.57978 43.4368 4.58806 45.0787 5.59635 46.3321C7.40941 48.5846 7.09028 48.1961 9.08835 50.0647C10.1706 51.0776 11.1604 51.8083 12.4231 52.5946L16.1232 54.6204C22.5938 57.6407 31.0348 57.5112 37.5239 54.7083C38.8883 54.1209 40.0307 53.441 41.261 52.7149C41.6079 52.5114 41.7698 52.4096 42.0843 52.1737C45.3173 49.7316 47.6761 47.6457 49.85 43.9872C53.1708 38.4092 54.5769 32.0866 53.4021 25.3894C53.0552 23.3959 51.5058 18.0261 50.3032 16.8467Z" fill="#54B3B5"/>
<path id="Vector_2" fill-rule="evenodd" clip-rule="evenodd" d="M42.4034 14.9873C42.2091 15.51 40.928 16.7079 40.4839 17.0085L29.0644 28.5206C27.3855 27.3735 22.2793 21.2776 20.8686 20.6948C18.1768 19.5801 15.3647 22.013 16.3267 24.9638C16.7013 26.1062 21.3774 30.4447 22.5198 31.5871C23.4957 32.563 28.4215 37.6229 29.032 38.0299L44.2905 22.8964C44.4662 22.4015 45.8538 21.0139 46.3487 20.8336L48.3467 18.8031C48.5872 18.2943 49.7944 17.0918 50.3032 16.8467C51.4918 15.4915 55.5157 11.6156 57.0883 10.043C58.3972 8.73412 61.51 6.39841 59.128 3.56781C57.9069 2.12013 55.6545 1.99062 54.4242 3.15617C53.8229 3.72044 53.3142 4.27083 52.7221 4.86285L44.2026 13.387C43.7354 13.8542 43.0278 14.8162 42.4034 14.9873Z" fill="#ECDF8D"/>
<path id="Vector_3" fill-rule="evenodd" clip-rule="evenodd" d="M40.4838 17.0086C40.9279 16.708 42.209 15.5101 42.4033 14.9874C41.839 14.6266 41.5291 14.1179 40.9741 13.6785C36.8068 10.427 32.6812 8.43817 26.9876 8.43817C18.4727 8.4428 10.189 13.8126 7.15489 21.4719C4.44916 28.294 4.81455 34.945 8.60256 41.2769C9.92074 43.4877 11.8217 45.5181 13.8475 47.0768C14.4534 47.5393 15.2813 47.6318 15.8225 47.0491C16.7845 46.0223 15.8502 45.1435 15.0454 44.5191L12.3166 41.7949C8.90782 37.4102 7.17801 31.5455 8.63031 25.8149C9.60622 21.9622 10.9753 19.5571 13.6347 16.7727C14.4904 15.8847 15.4293 15.103 16.4561 14.4139C18.7594 12.8645 21.1275 11.9024 24.49 11.3983C27.7461 10.908 31.3491 11.5555 33.9022 12.5684C38.3331 14.3353 39.7669 16.6062 40.4838 17.0086Z" fill="#54B3B5"/>
<path id="Vector_4" fill-rule="evenodd" clip-rule="evenodd" d="M44.2905 22.8964C44.4061 23.3173 44.5819 23.6503 44.7299 24.1036C46.8806 30.5372 45.1924 38.1734 40.521 42.8402C37.4915 45.8604 34.1382 47.9094 29.7073 48.5245C28.8378 48.6448 27.4225 48.6078 26.6917 48.7789C24.9434 49.1905 24.9341 51.961 28.1533 51.4754C30.4612 51.1238 30.7711 51.3875 33.6526 50.4254C43.9112 46.9889 50.2847 36.2031 48.0369 25.8427C47.6853 24.2054 47.0702 21.9945 46.3487 20.8336C45.8538 21.014 44.4662 22.4015 44.2905 22.8964Z" fill="#54B3B5"/>
<path id="Vector_5" fill-rule="evenodd" clip-rule="evenodd" d="M53.5734 55.4854C57.0376 55.4854 57.292 51.3412 54.8083 50.3006C52.6622 49.3986 50.3728 51.4661 51.2145 53.7556C51.5429 54.6528 52.4078 55.4854 53.5734 55.4854Z" fill="#54B3B5"/>
<path id="Vector_6" fill-rule="evenodd" clip-rule="evenodd" d="M9.39355 2.44391C9.39355 5.04326 13.4868 5.28839 13.4868 2.44391C13.4868 -0.31731 9.39355 -0.132304 9.39355 2.44391Z" fill="#54B3B5"/>
<path id="Vector_7" fill-rule="evenodd" clip-rule="evenodd" d="M1.35034 57.3955C1.35034 60.0735 5.43899 60.5267 5.43899 57.2567C5.43899 55.7212 3.25129 54.8609 2.00249 56.0033C1.74811 56.2346 1.35034 56.9469 1.35034 57.3955Z" fill="#54B3B5"/>
</g>
</svg>
