<svg width="467" height="70" viewBox="0 0 467 70" fill="none" xmlns="http://www.w3.org/2000/svg">
<line x1="377" y1="57" x2="1.74846e-07" y2="57" stroke="#54B3B5" stroke-width="4"/>
<mask id="path-2-inside-1_744_73" fill="white">
<path d="M417.381 0H425.619L428.241 0.561497L431.237 1.87166L433.484 3.55615L435.169 5.24064L436.479 7.1123L437.977 9.91979L439.101 13.6631L439.663 17.5936V23.2086L439.101 27.8877L437.977 32.754L436.854 36.4973L436.667 36.8717L440.224 37.0588L444.905 37.8075L449.586 39.1176L452.957 40.4278L457.263 42.4866L459.51 43.984L461.383 45.4813L463.63 47.7273L465.315 50.3476L466.251 52.4064L466.813 54.4652L467 55.7754V58.0214L466.438 60.6417L465.689 62.5134L464.379 64.7594L462.506 66.8182L460.634 68.1283L458.387 69.2513L456.327 69.8128L455.204 70H446.029L443.033 69.4385L438.539 67.9412L434.794 66.2567L430.862 64.1979L426.368 61.2032L423.934 59.3316L421.874 57.6471H421.126L418.13 60.0802L414.946 62.3262L411.014 64.7594L408.206 66.2567L403.337 68.3155L399.78 69.4385L396.222 70H388.171L385.175 69.4385L382.553 68.3155L380.307 66.631L378.996 65.3209L377.685 63.4492L376.562 61.016L376 58.3957V55.2139L376.749 52.2193L378.247 49.2246L379.745 47.3529L382.179 44.9198L384.613 43.2353L387.235 41.738L390.792 40.0535L395.848 38.369L399.967 37.4332L406.146 36.6845L404.835 32.3797L403.899 27.7005L403.525 24.5187L403.337 21.3369V18.7166L403.712 14.7861L404.648 11.0428L405.584 8.79679L406.708 6.73797L408.019 5.05348L410.265 2.80749L412.887 1.31016L415.321 0.374332L417.381 0ZM420.564 2.62032L418.317 3.55615L416.257 4.86631L414.198 6.92513L412.887 8.98396L411.576 11.9786L410.827 15.1604L410.64 16.4706V23.9572L411.389 29.385L412.512 33.877L413.636 36.8717H429.364L430.862 32.3797L431.798 27.8877L432.36 23.5829V17.0321L431.798 13.4759L430.862 10.4813L429.551 7.86096L428.053 5.98931L426.368 4.49198L424.309 3.36898L422.436 2.62032H420.564ZM427.679 2.80749L428.615 3.74332L430.488 5.80214L431.798 7.86096L432.922 10.107L434.045 13.8503L434.42 16.2834L434.607 18.5294V22.0856L434.233 26.2032L433.296 31.0695L431.986 35.7487L431.798 36.8717H434.233L434.981 35L436.105 31.0695L436.854 27.139L437.228 24.1444L437.416 21.1497V19.0909L437.041 15.1604L436.292 11.7914L435.169 8.98396L433.671 6.73797L431.611 4.67914L428.99 3.18182L427.679 2.80749ZM414.572 2.99465L412.325 4.11765L409.891 6.17647L408.206 8.42246L406.895 11.2299L405.959 14.7861L405.584 17.9679V22.0856L406.146 27.5134L407.082 32.0053L408.206 35.7487L408.767 36.8717H411.202L410.64 34.8128L409.516 30.3209L408.767 25.6417L408.58 23.5829V16.8449L409.142 13.2888L410.078 10.107L411.576 7.1123L413.261 4.86631L415.134 2.99465H414.572ZM409.704 39.1176L410.078 40.2406L411.763 43.4225L413.261 45.6684L415.134 48.1016L417.193 50.3476L418.691 51.8449L419.44 51.6578L419.815 50.9091L418.504 49.5989L416.257 46.6043L414.01 42.861L412.325 39.3048L412.138 39.1176H409.704ZM414.572 39.1176L416.257 42.6738L417.942 45.2941L419.628 47.5401L421.126 49.4118L421.874 49.2246L423.372 47.5401L425.619 44.3583L427.492 41.1765L428.241 39.6791V39.1176H414.572ZM430.862 39.1176L428.99 42.6738L427.305 45.6684L425.245 48.4759L423.185 50.9091L423.372 51.6578L424.121 51.8449L425.619 50.5348L427.866 48.1016L430.113 45.107L432.173 41.5508L433.109 39.6791V39.1176H430.862ZM406.146 39.492L401.652 40.4278L396.597 42.1123L391.916 44.3583L389.107 46.2299L386.86 48.2888L385.362 49.9733L384.239 51.8449L383.302 54.6524L383.115 55.7754V57.8342L383.677 60.4545L384.8 62.7005L386.486 64.7594L388.171 66.0695L390.418 67.1925L391.728 67.5668H393.226L396.222 66.8182L399.967 65.3209L404.274 63.262L407.457 61.3904L411.202 58.7701L413.074 57.2727L415.508 55.2139L417.193 53.7166L416.819 52.9679L414.385 50.5348L412.325 47.9144L410.453 45.2941L408.206 41.1765L407.457 39.492H406.146ZM435.543 39.492L433.671 43.2353L431.611 46.6043L429.739 49.0374L428.053 50.9091L426.743 52.4064L425.807 53.1551L425.994 53.9037L427.305 55.2139L429.364 56.8984L431.986 58.9572L434.981 61.016L437.79 62.7005L441.722 64.7594L446.403 66.631L449.961 67.5668H451.272L453.519 66.8182L455.578 65.508L457.638 63.4492L458.761 61.5775L459.51 59.5187L459.698 58.5829V55.0267L458.949 52.5936L457.825 50.3476L456.14 48.2888L454.829 46.9786L452.021 44.9198L447.714 42.6738L443.22 40.9893L438.914 39.8663L436.854 39.492H435.543ZM389.107 43.2353L385.737 45.107L383.302 46.9786L381.992 48.1016L379.932 50.7219L378.809 53.1551L378.247 55.2139V58.3957L378.809 60.4545L380.119 63.0749L381.805 64.9465L383.49 66.2567L385.549 67.1925L385.924 67.0053L384.239 65.508L382.553 62.8877L381.617 60.6417L381.243 59.3316L381.056 57.8342V55.9626L381.617 52.9679L382.553 50.7219L383.864 48.4759L386.111 46.0428L388.358 44.1711L389.481 43.4225L389.107 43.2353ZM454.08 43.6096L455.016 44.5455L456.889 46.0428L458.761 48.1016L460.072 50.1604L461.195 52.5936L461.757 54.8396V58.9572L460.821 62.139L459.51 64.385L457.825 66.2567L457.076 67.1925L458.761 66.631L460.821 65.3209L462.132 64.0107L463.63 61.7647L464.566 58.9572L464.753 57.6471V55.9626L464.191 53.3422L463.442 51.6578L462.319 49.7861L460.634 47.9144L459.323 46.6043L456.889 44.9198L454.455 43.6096H454.08ZM421.313 52.7808L420.751 53.5294L421.126 54.0909L421.874 53.9037L422.062 53.1551L421.313 52.7808ZM418.879 55.0267L416.444 57.2727L414.385 58.9572L411.389 61.2032L408.58 63.0749L408.019 63.6364L409.142 63.262L413.261 60.8289L416.632 58.3957L418.691 56.7112L419.628 55.9626L419.253 55.2139L418.879 55.0267ZM423.934 55.0267L423.185 55.7754L425.058 57.4599L428.615 60.0802L432.173 62.3262L434.233 63.4492L434.607 63.262L431.049 60.8289L428.615 58.9572L426.181 56.8984L424.309 55.2139L423.934 55.0267Z"/>
</mask>
<path d="M417.381 0H425.619L428.241 0.561497L431.237 1.87166L433.484 3.55615L435.169 5.24064L436.479 7.1123L437.977 9.91979L439.101 13.6631L439.663 17.5936V23.2086L439.101 27.8877L437.977 32.754L436.854 36.4973L436.667 36.8717L440.224 37.0588L444.905 37.8075L449.586 39.1176L452.957 40.4278L457.263 42.4866L459.51 43.984L461.383 45.4813L463.63 47.7273L465.315 50.3476L466.251 52.4064L466.813 54.4652L467 55.7754V58.0214L466.438 60.6417L465.689 62.5134L464.379 64.7594L462.506 66.8182L460.634 68.1283L458.387 69.2513L456.327 69.8128L455.204 70H446.029L443.033 69.4385L438.539 67.9412L434.794 66.2567L430.862 64.1979L426.368 61.2032L423.934 59.3316L421.874 57.6471H421.126L418.13 60.0802L414.946 62.3262L411.014 64.7594L408.206 66.2567L403.337 68.3155L399.78 69.4385L396.222 70H388.171L385.175 69.4385L382.553 68.3155L380.307 66.631L378.996 65.3209L377.685 63.4492L376.562 61.016L376 58.3957V55.2139L376.749 52.2193L378.247 49.2246L379.745 47.3529L382.179 44.9198L384.613 43.2353L387.235 41.738L390.792 40.0535L395.848 38.369L399.967 37.4332L406.146 36.6845L404.835 32.3797L403.899 27.7005L403.525 24.5187L403.337 21.3369V18.7166L403.712 14.7861L404.648 11.0428L405.584 8.79679L406.708 6.73797L408.019 5.05348L410.265 2.80749L412.887 1.31016L415.321 0.374332L417.381 0ZM420.564 2.62032L418.317 3.55615L416.257 4.86631L414.198 6.92513L412.887 8.98396L411.576 11.9786L410.827 15.1604L410.64 16.4706V23.9572L411.389 29.385L412.512 33.877L413.636 36.8717H429.364L430.862 32.3797L431.798 27.8877L432.36 23.5829V17.0321L431.798 13.4759L430.862 10.4813L429.551 7.86096L428.053 5.98931L426.368 4.49198L424.309 3.36898L422.436 2.62032H420.564ZM427.679 2.80749L428.615 3.74332L430.488 5.80214L431.798 7.86096L432.922 10.107L434.045 13.8503L434.42 16.2834L434.607 18.5294V22.0856L434.233 26.2032L433.296 31.0695L431.986 35.7487L431.798 36.8717H434.233L434.981 35L436.105 31.0695L436.854 27.139L437.228 24.1444L437.416 21.1497V19.0909L437.041 15.1604L436.292 11.7914L435.169 8.98396L433.671 6.73797L431.611 4.67914L428.99 3.18182L427.679 2.80749ZM414.572 2.99465L412.325 4.11765L409.891 6.17647L408.206 8.42246L406.895 11.2299L405.959 14.7861L405.584 17.9679V22.0856L406.146 27.5134L407.082 32.0053L408.206 35.7487L408.767 36.8717H411.202L410.64 34.8128L409.516 30.3209L408.767 25.6417L408.58 23.5829V16.8449L409.142 13.2888L410.078 10.107L411.576 7.1123L413.261 4.86631L415.134 2.99465H414.572ZM409.704 39.1176L410.078 40.2406L411.763 43.4225L413.261 45.6684L415.134 48.1016L417.193 50.3476L418.691 51.8449L419.44 51.6578L419.815 50.9091L418.504 49.5989L416.257 46.6043L414.01 42.861L412.325 39.3048L412.138 39.1176H409.704ZM414.572 39.1176L416.257 42.6738L417.942 45.2941L419.628 47.5401L421.126 49.4118L421.874 49.2246L423.372 47.5401L425.619 44.3583L427.492 41.1765L428.241 39.6791V39.1176H414.572ZM430.862 39.1176L428.99 42.6738L427.305 45.6684L425.245 48.4759L423.185 50.9091L423.372 51.6578L424.121 51.8449L425.619 50.5348L427.866 48.1016L430.113 45.107L432.173 41.5508L433.109 39.6791V39.1176H430.862ZM406.146 39.492L401.652 40.4278L396.597 42.1123L391.916 44.3583L389.107 46.2299L386.86 48.2888L385.362 49.9733L384.239 51.8449L383.302 54.6524L383.115 55.7754V57.8342L383.677 60.4545L384.8 62.7005L386.486 64.7594L388.171 66.0695L390.418 67.1925L391.728 67.5668H393.226L396.222 66.8182L399.967 65.3209L404.274 63.262L407.457 61.3904L411.202 58.7701L413.074 57.2727L415.508 55.2139L417.193 53.7166L416.819 52.9679L414.385 50.5348L412.325 47.9144L410.453 45.2941L408.206 41.1765L407.457 39.492H406.146ZM435.543 39.492L433.671 43.2353L431.611 46.6043L429.739 49.0374L428.053 50.9091L426.743 52.4064L425.807 53.1551L425.994 53.9037L427.305 55.2139L429.364 56.8984L431.986 58.9572L434.981 61.016L437.79 62.7005L441.722 64.7594L446.403 66.631L449.961 67.5668H451.272L453.519 66.8182L455.578 65.508L457.638 63.4492L458.761 61.5775L459.51 59.5187L459.698 58.5829V55.0267L458.949 52.5936L457.825 50.3476L456.14 48.2888L454.829 46.9786L452.021 44.9198L447.714 42.6738L443.22 40.9893L438.914 39.8663L436.854 39.492H435.543ZM389.107 43.2353L385.737 45.107L383.302 46.9786L381.992 48.1016L379.932 50.7219L378.809 53.1551L378.247 55.2139V58.3957L378.809 60.4545L380.119 63.0749L381.805 64.9465L383.49 66.2567L385.549 67.1925L385.924 67.0053L384.239 65.508L382.553 62.8877L381.617 60.6417L381.243 59.3316L381.056 57.8342V55.9626L381.617 52.9679L382.553 50.7219L383.864 48.4759L386.111 46.0428L388.358 44.1711L389.481 43.4225L389.107 43.2353ZM454.08 43.6096L455.016 44.5455L456.889 46.0428L458.761 48.1016L460.072 50.1604L461.195 52.5936L461.757 54.8396V58.9572L460.821 62.139L459.51 64.385L457.825 66.2567L457.076 67.1925L458.761 66.631L460.821 65.3209L462.132 64.0107L463.63 61.7647L464.566 58.9572L464.753 57.6471V55.9626L464.191 53.3422L463.442 51.6578L462.319 49.7861L460.634 47.9144L459.323 46.6043L456.889 44.9198L454.455 43.6096H454.08ZM421.313 52.7808L420.751 53.5294L421.126 54.0909L421.874 53.9037L422.062 53.1551L421.313 52.7808ZM418.879 55.0267L416.444 57.2727L414.385 58.9572L411.389 61.2032L408.58 63.0749L408.019 63.6364L409.142 63.262L413.261 60.8289L416.632 58.3957L418.691 56.7112L419.628 55.9626L419.253 55.2139L418.879 55.0267ZM423.934 55.0267L423.185 55.7754L425.058 57.4599L428.615 60.0802L432.173 62.3262L434.233 63.4492L434.607 63.262L431.049 60.8289L428.615 58.9572L426.181 56.8984L424.309 55.2139L423.934 55.0267Z" fill="#54B3B5" stroke="#54B3B5" stroke-width="1.25" mask="url(#path-2-inside-1_744_73)"/>
</svg>
