<svg width="30" height="30" viewBox="0 0 30 30" fill="none" xmlns="http://www.w3.org/2000/svg">
<g id="facebook" clip-path="url(#clip0_441_126)">
<ellipse id="Ellipse 1" cx="15" cy="15.5" rx="15" ry="14.5" fill="#0D6FED"/>
<path id="facebook_2" d="M30 15.0912C30 22.5775 24.5075 28.7837 17.3375 29.91V19.4562H20.8237L21.4875 15.1312H17.3375V12.325C17.3375 11.1412 17.9175 9.98875 19.775 9.98875H21.6613V6.30625C21.6613 6.30625 19.9487 6.01375 18.3125 6.01375C14.895 6.01375 12.6625 8.085 12.6625 11.8337V15.13H8.86375V19.455H12.6625V29.9087C5.49375 28.7812 0 22.5762 0 15.0912C0 6.8075 6.71625 0.0912476 15 0.0912476C23.2838 0.0912476 30 6.80625 30 15.0912Z" fill="white"/>
</g>
<defs>
<clipPath id="clip0_441_126">
<rect width="30" height="30" fill="white"/>
</clipPath>
</defs>
</svg>
