<svg width="35" height="35" viewBox="0 0 35 35" fill="none" xmlns="http://www.w3.org/2000/svg">
<g id="call">
<path id="phone_in_talk" d="M32.7701 35C28.9243 35 25.0462 34.1031 21.1357 32.3095C17.2253 30.5159 13.6219 27.9709 10.3255 24.6745C7.02908 21.3781 4.48407 17.7747 2.69044 13.8642C0.896814 9.9538 0 6.07569 0 2.22989C0 1.62661 0.204684 1.12031 0.614051 0.710975C1.02339 0.301607 1.52969 0.0969238 2.13296 0.0969238H9.27514C9.72759 0.0969238 10.1208 0.255814 10.4547 0.573593C10.7887 0.891405 11.0095 1.28191 11.1172 1.74512L12.41 8.07935C12.4746 8.55335 12.4638 8.97348 12.3776 9.33973C12.2914 9.70602 12.1191 10.0184 11.8605 10.277L7.06137 15.1246C7.83699 16.4712 8.68533 17.7397 9.60638 18.93C10.5274 20.1204 11.5428 21.2542 12.6524 22.3315C13.7835 23.4841 14.9738 24.5425 16.2235 25.5067C17.4731 26.4708 18.7873 27.3299 20.1662 28.084L24.7553 23.3979C25.0677 23.064 25.4421 22.8297 25.8784 22.695C26.3147 22.5604 26.7482 22.5254 27.1791 22.59L33.2548 23.8827C33.7288 24.012 34.122 24.2624 34.4344 24.6341C34.7468 25.0058 34.903 25.4232 34.903 25.8864V32.867C34.903 33.4703 34.6984 33.9766 34.289 34.3859C33.8797 34.7953 33.3733 35 32.7701 35Z" fill="white"/>
<g id="phone_in_talk_2">
<path d="M27.3717 7.43944C30.0657 10.1321 31.4666 13.4156 31.5743 17.2899H34.8061C34.763 14.9092 34.2809 12.682 33.3599 10.6082C32.4388 8.53455 31.2 6.71938 29.6433 5.16274C28.0867 3.6061 26.2715 2.36725 24.1978 1.4462C22.1241 0.525146 19.8969 0.0430794 17.5161 0V3.23891C21.3925 3.34665 24.6777 4.74683 27.3717 7.43944Z" fill="#ECDF8D"/>
<path d="M21.6366 13.1856C22.7677 14.3059 23.3872 15.6741 23.4949 17.2899H26.7266C26.6189 14.7799 25.6844 12.6497 23.9231 10.8991C22.1618 9.14859 20.0261 8.21947 17.5161 8.11176V11.3435C19.132 11.4512 20.5055 12.0652 21.6366 13.1856Z" fill="#ECDF8D"/>
</g>
</g>
</svg>
