<svg width="35" height="35" viewBox="0 0 35 35" fill="none" xmlns="http://www.w3.org/2000/svg">
<g id="clock" clip-path="url(#clip0_702_651)">
<path id="Vector" d="M17.5 0C7.85021 0 0 7.85021 0 17.5C0 27.1498 7.85021 35 17.5 35C27.1498 35 35 27.1498 35 17.5C35 7.85021 27.1498 0 17.5 0ZM23.3333 18.9583H17.5C16.695 18.9583 16.0417 18.3065 16.0417 17.5V8.75C16.0417 7.94354 16.695 7.29167 17.5 7.29167C18.305 7.29167 18.9583 7.94354 18.9583 8.75V16.0417H23.3333C24.1398 16.0417 24.7917 16.6935 24.7917 17.5C24.7917 18.3065 24.1398 18.9583 23.3333 18.9583Z" fill="white"/>
</g>
<defs>
<clipPath id="clip0_702_651">
<rect width="35" height="35" fill="white"/>
</clipPath>
</defs>
</svg>
