<svg width="35" height="35" viewBox="0 0 35 35" fill="none" xmlns="http://www.w3.org/2000/svg">
<g id="linkedin 1" clip-path="url(#clip0_702_668)">
<g id="Group">
<path id="Path_2525" d="M33.5445 31.4767H33.8756L33.2412 30.5171C33.6291 30.5171 33.8348 30.2707 33.8377 29.9688C33.8377 29.9571 33.8377 29.944 33.8362 29.9323C33.8362 29.5211 33.5883 29.3242 33.0793 29.3242H32.2568V31.4767H32.566V30.539H32.9466L33.5445 31.4767ZM32.9248 30.2955H32.566V29.5678H33.021C33.2558 29.5678 33.5241 29.6057 33.5241 29.9134C33.5241 30.2663 33.2543 30.2955 32.9248 30.2955Z" fill="white"/>
<path id="Path_2520" d="M25.216 27.8149H20.8308V20.9476C20.8308 19.3099 20.8017 17.2026 18.55 17.2026C16.2663 17.2026 15.9163 18.9861 15.9163 20.8295V27.8149H11.5325V13.6924H15.7427V15.6217H15.801C16.66 14.1547 18.2554 13.2782 19.9544 13.3409C24.3994 13.3409 25.2175 16.2649 25.2175 20.0667L25.216 27.8149ZM6.58437 11.7615C5.17854 11.7615 4.03958 10.6226 4.03958 9.21675C4.03958 7.81092 5.17854 6.67196 6.58437 6.67196C7.99021 6.67196 9.12917 7.81092 9.12917 9.21675C9.12917 10.6226 7.99021 11.7615 6.58437 11.7615ZM8.77625 27.8149H4.38667V13.6924H8.77625V27.8149ZM27.4021 2.60029H2.18313C0.991667 2.58717 0.0145833 3.54237 0 4.73383V30.0563C0.0145833 31.2492 0.991667 32.2045 2.18313 32.1913H27.4021C28.5965 32.2059 29.5779 31.2507 29.594 30.0563V4.73237C29.5765 3.538 28.595 2.58279 27.4021 2.59883" fill="white"/>
<path id="Path_2526" d="M32.9626 28.3662C31.8485 28.3764 30.953 29.2893 30.9647 30.4035C30.9749 31.5177 31.8878 32.4131 33.002 32.4014C34.1162 32.3912 35.0116 31.4783 34.9999 30.3641C34.9897 29.2645 34.1001 28.3764 33.002 28.3662H32.9626ZM33.0093 32.1695C32.0322 32.1856 31.1805 31.4083 31.1645 30.4312C31.1485 29.4541 31.9272 28.6491 32.9043 28.6331C33.8814 28.617 34.6864 29.3958 34.7024 30.3729C34.7024 30.3831 34.7024 30.3918 34.7024 30.402C34.7228 31.3573 33.9645 32.1491 33.0093 32.1695H32.9641H33.0093Z" fill="white"/>
</g>
</g>
<defs>
<clipPath id="clip0_702_668">
<rect width="35" height="35" fill="white"/>
</clipPath>
</defs>
</svg>
