<svg width="31" height="45" viewBox="0 0 31 45" fill="none" xmlns="http://www.w3.org/2000/svg">
<g id="location">
<path id="distance" d="M15.1458 38.7751C14.6617 38.7751 14.2329 38.6469 13.8594 38.3907C13.486 38.1344 13.2163 37.8001 13.0503 37.3876C12.0682 34.6751 10.8372 32.4188 9.3572 30.6188C7.87719 28.8188 6.43868 27.0938 5.0417 25.4438C3.65849 23.7938 2.4724 22.0813 1.48344 20.3063C0.49448 18.5313 0 16.325 0 13.6875C0 9.86249 1.46616 6.625 4.39848 3.97502C7.33084 1.32501 10.9133 0 15.1458 0C19.3784 0 22.9608 1.32501 25.8932 3.97502C28.8255 6.625 30.2916 9.86249 30.2916 13.6875C30.2916 16.325 29.8006 18.5313 28.8186 20.3063C27.8365 22.0813 26.647 23.7938 25.2499 25.4438C23.8668 27.0938 22.4317 28.8188 20.9448 30.6188C19.4579 32.4188 18.2234 34.6751 17.2414 37.3876C17.0754 37.8001 16.8057 38.1344 16.4322 38.3907C16.0587 38.6469 15.6299 38.7751 15.1458 38.7751ZM15.1458 17.5312C16.3215 17.5312 17.3243 17.1563 18.1542 16.4063C18.9841 15.6563 19.3991 14.75 19.3991 13.6875C19.3991 12.625 18.9841 11.7188 18.1542 10.9688C17.3243 10.2188 16.3215 9.84382 15.1458 9.84382C13.9701 9.84382 12.9673 10.2188 12.1374 10.9688C11.3075 11.7188 10.8926 12.625 10.8926 13.6875C10.8926 14.75 11.3075 15.6563 12.1374 16.4063C12.9673 17.1563 13.9701 17.5312 15.1458 17.5312Z" fill="white"/>
<path id="distance_2" d="M4.37781 43.209C7.15801 44.4028 10.7474 44.9997 15.1459 44.9997C19.5444 44.9997 23.1338 44.4028 25.914 43.209C28.6942 42.0153 30.0842 40.4871 30.0842 38.6247C30.0842 37.5121 29.5483 36.4934 28.4763 35.5684C27.4043 34.6434 25.9209 33.8997 24.0259 33.3372L22.8433 36.9372C23.5487 37.1496 24.1781 37.4152 24.7313 37.734C25.2846 38.0528 25.7065 38.3496 25.997 38.6247C25.3469 39.3247 23.9464 39.9372 21.7956 40.4622C19.6447 40.9872 17.4281 41.2497 15.1459 41.2497C12.8636 41.2497 10.6574 40.9872 8.52732 40.4622C6.39723 39.9372 5.00713 39.3247 4.35702 38.6247C4.64749 38.3247 5.07628 38.0153 5.6434 37.6965C6.21052 37.3778 6.83295 37.1247 7.5107 36.9372L6.28656 33.3372C4.39163 33.8997 2.90472 34.6434 1.82584 35.5684C0.74696 36.4934 0.20752 37.5121 0.20752 38.6247C0.20752 40.4871 1.59762 42.0153 4.37781 43.209Z" fill="#ECDF8D"/>
</g>
</svg>
