<svg width="92" height="70" viewBox="0 0 92 70" fill="none" xmlns="http://www.w3.org/2000/svg">
<g id="Vector">
<mask id="path-1-inside-1_702_830" fill="white">
<path d="M41.5876 0H49.8674L52.5019 0.561497L55.5128 1.87166L57.771 3.55615L59.4646 5.24064L60.7818 7.1123L62.2873 9.91979L63.4163 13.6631L63.9809 17.5936V23.2086L63.4163 27.8877L62.2873 32.754L61.1582 36.4973L60.97 36.8717L64.5454 37.0588L69.2499 37.8075L73.9544 39.1176L77.3416 40.4278L81.6697 42.4866L83.9278 43.984L85.8096 45.4813L88.0678 47.7273L89.7614 50.3476L90.7023 52.4064L91.2668 54.4652L91.455 55.7754V58.0214L90.8905 60.6417L90.1377 62.5134L88.8205 64.7594L86.9387 66.8182L85.0569 68.1283L82.7988 69.2513L80.7288 69.8128L79.5997 70H70.379L67.3681 69.4385L62.8518 67.9412L59.0882 66.2567L55.1365 64.1979L50.6202 61.2032L48.1738 59.3316L46.1039 57.6471H45.3511L42.3403 60.0802L39.1412 62.3262L35.1895 64.7594L32.3668 66.2567L27.4741 68.3155L23.8987 69.4385L20.3233 70H12.2316L9.22077 69.4385L6.58627 68.3155L4.32812 66.631L3.01086 65.3209L1.69361 63.4492L0.564537 61.016L0 58.3957V55.2139L0.752716 52.2193L2.25815 49.2246L3.76358 47.3529L6.20991 44.9198L8.65623 43.2353L11.2907 41.738L14.8661 40.0535L19.947 38.369L24.0869 37.4332L30.2968 36.6845L28.9796 32.3797L28.0387 27.7005L27.6623 24.5187L27.4741 21.3369V18.7166L27.8505 14.7861L28.7914 11.0428L29.7323 8.79679L30.8614 6.73797L32.1786 5.05348L34.4368 2.80749L37.0713 1.31016L39.5176 0.374332L41.5876 0ZM44.7866 2.62032L42.5285 3.55615L40.4585 4.86631L38.3885 6.92513L37.0713 8.98396L35.754 11.9786L35.0013 15.1604L34.8131 16.4706V23.9572L35.5658 29.385L36.6949 33.877L37.824 36.8717H53.631L55.1365 32.3797L56.0773 27.8877L56.6419 23.5829V17.0321L56.0773 13.4759L55.1365 10.4813L53.8192 7.86096L52.3138 5.98931L50.6202 4.49198L48.5502 3.36898L46.6684 2.62032H44.7866ZM51.9374 2.80749L52.8783 3.74332L54.7601 5.80214L56.0773 7.86096L57.2064 10.107L58.3355 13.8503L58.7119 16.2834L58.9 18.5294V22.0856L58.5237 26.2032L57.5828 31.0695L56.2655 35.7487L56.0773 36.8717H58.5237L59.2764 35L60.4055 31.0695L61.1582 27.139L61.5345 24.1444L61.7227 21.1497V19.0909L61.3464 15.1604L60.5936 11.7914L59.4646 8.98396L57.9591 6.73797L55.8892 4.67914L53.2547 3.18182L51.9374 2.80749ZM38.7649 2.99465L36.5067 4.11765L34.0604 6.17647L32.3668 8.42246L31.0495 11.2299L30.1086 14.7861L29.7323 17.9679V22.0856L30.2968 27.5134L31.2377 32.0053L32.3668 35.7487L32.9313 36.8717H35.3777L34.8131 34.8128L33.684 30.3209L32.9313 25.6417L32.7431 23.5829V16.8449L33.3077 13.2888L34.2486 10.107L35.754 7.1123L37.4476 4.86631L39.3294 2.99465H38.7649ZM33.8722 39.1176L34.2486 40.2406L35.9422 43.4225L37.4476 45.6684L39.3294 48.1016L41.3994 50.3476L42.9048 51.8449L43.6575 51.6578L44.0339 50.9091L42.7166 49.5989L40.4585 46.6043L38.2003 42.861L36.5067 39.3048L36.3186 39.1176H33.8722ZM38.7649 39.1176L40.4585 42.6738L42.1521 45.2941L43.8457 47.5401L45.3511 49.4118L46.1039 49.2246L47.6093 47.5401L49.8674 44.3583L51.7492 41.1765L52.5019 39.6791V39.1176H38.7649ZM55.1365 39.1176L53.2547 42.6738L51.5611 45.6684L49.4911 48.4759L47.4211 50.9091L47.6093 51.6578L48.362 51.8449L49.8674 50.5348L52.1256 48.1016L54.3837 45.107L56.4537 41.5508L57.3946 39.6791V39.1176H55.1365ZM30.2968 39.492L25.7805 40.4278L20.6997 42.1123L15.9952 44.3583L13.1725 46.2299L10.9144 48.2888L9.40895 49.9733L8.27988 51.8449L7.33898 54.6524L7.1508 55.7754V57.8342L7.71534 60.4545L8.84441 62.7005L10.538 64.7594L12.2316 66.0695L14.4898 67.1925L15.807 67.5668H17.3125L20.3233 66.8182L24.0869 65.3209L28.415 63.262L31.6141 61.3904L35.3777 58.7701L37.2594 57.2727L39.7058 55.2139L41.3994 53.7166L41.023 52.9679L38.5767 50.5348L36.5067 47.9144L34.6249 45.2941L32.3668 41.1765L31.6141 39.492H30.2968ZM59.8409 39.492L57.9591 43.2353L55.8892 46.6043L54.0074 49.0374L52.3138 50.9091L50.9965 52.4064L50.0556 53.1551L50.2438 53.9037L51.5611 55.2139L53.631 56.8984L56.2655 58.9572L59.2764 61.016L62.0991 62.7005L66.0508 64.7594L70.7553 66.631L74.3307 67.5668H75.648L77.9061 66.8182L79.9761 65.508L82.0461 63.4492L83.1751 61.5775L83.9278 59.5187L84.116 58.5829V55.0267L83.3633 52.5936L82.2342 50.3476L80.5406 48.2888L79.2234 46.9786L76.4007 44.9198L72.0726 42.6738L67.5563 40.9893L63.2281 39.8663L61.1582 39.492H59.8409ZM13.1725 43.2353L9.78531 45.107L7.33898 46.9786L6.02173 48.1016L3.95176 50.7219L2.82269 53.1551L2.25815 55.2139V58.3957L2.82269 60.4545L4.13994 63.0749L5.83355 64.9465L7.52716 66.2567L9.59713 67.1925L9.97349 67.0053L8.27988 65.508L6.58627 62.8877L5.64537 60.6417L5.26901 59.3316L5.08083 57.8342V55.9626L5.64537 52.9679L6.58627 50.7219L7.90352 48.4759L10.1617 46.0428L12.4198 44.1711L13.5489 43.4225L13.1725 43.2353ZM78.4706 43.6096L79.4115 44.5455L81.2933 46.0428L83.1751 48.1016L84.4924 50.1604L85.6215 52.5936L86.186 54.8396V58.9572L85.2451 62.139L83.9278 64.385L82.2342 66.2567L81.4815 67.1925L83.1751 66.631L85.2451 65.3209L86.5623 64.0107L88.0678 61.7647L89.0087 58.9572L89.1969 57.6471V55.9626L88.6323 53.3422L87.8796 51.6578L86.7505 49.7861L85.0569 47.9144L83.7397 46.6043L81.2933 44.9198L78.847 43.6096H78.4706ZM45.5393 52.7808L44.9748 53.5294L45.3511 54.0909L46.1039 53.9037L46.292 53.1551L45.5393 52.7808ZM43.093 55.0267L40.6467 57.2727L38.5767 58.9572L35.5658 61.2032L32.7431 63.0749L32.1786 63.6364L33.3077 63.262L37.4476 60.8289L40.8348 58.3957L42.9048 56.7112L43.8457 55.9626L43.4694 55.2139L43.093 55.0267ZM48.1738 55.0267L47.4211 55.7754L49.3029 57.4599L52.8783 60.0802L56.4537 62.3262L58.5237 63.4492L58.9 63.262L55.3246 60.8289L52.8783 58.9572L50.432 56.8984L48.5502 55.2139L48.1738 55.0267Z"/>
</mask>
<path d="M41.5876 0H49.8674L52.5019 0.561497L55.5128 1.87166L57.771 3.55615L59.4646 5.24064L60.7818 7.1123L62.2873 9.91979L63.4163 13.6631L63.9809 17.5936V23.2086L63.4163 27.8877L62.2873 32.754L61.1582 36.4973L60.97 36.8717L64.5454 37.0588L69.2499 37.8075L73.9544 39.1176L77.3416 40.4278L81.6697 42.4866L83.9278 43.984L85.8096 45.4813L88.0678 47.7273L89.7614 50.3476L90.7023 52.4064L91.2668 54.4652L91.455 55.7754V58.0214L90.8905 60.6417L90.1377 62.5134L88.8205 64.7594L86.9387 66.8182L85.0569 68.1283L82.7988 69.2513L80.7288 69.8128L79.5997 70H70.379L67.3681 69.4385L62.8518 67.9412L59.0882 66.2567L55.1365 64.1979L50.6202 61.2032L48.1738 59.3316L46.1039 57.6471H45.3511L42.3403 60.0802L39.1412 62.3262L35.1895 64.7594L32.3668 66.2567L27.4741 68.3155L23.8987 69.4385L20.3233 70H12.2316L9.22077 69.4385L6.58627 68.3155L4.32812 66.631L3.01086 65.3209L1.69361 63.4492L0.564537 61.016L0 58.3957V55.2139L0.752716 52.2193L2.25815 49.2246L3.76358 47.3529L6.20991 44.9198L8.65623 43.2353L11.2907 41.738L14.8661 40.0535L19.947 38.369L24.0869 37.4332L30.2968 36.6845L28.9796 32.3797L28.0387 27.7005L27.6623 24.5187L27.4741 21.3369V18.7166L27.8505 14.7861L28.7914 11.0428L29.7323 8.79679L30.8614 6.73797L32.1786 5.05348L34.4368 2.80749L37.0713 1.31016L39.5176 0.374332L41.5876 0ZM44.7866 2.62032L42.5285 3.55615L40.4585 4.86631L38.3885 6.92513L37.0713 8.98396L35.754 11.9786L35.0013 15.1604L34.8131 16.4706V23.9572L35.5658 29.385L36.6949 33.877L37.824 36.8717H53.631L55.1365 32.3797L56.0773 27.8877L56.6419 23.5829V17.0321L56.0773 13.4759L55.1365 10.4813L53.8192 7.86096L52.3138 5.98931L50.6202 4.49198L48.5502 3.36898L46.6684 2.62032H44.7866ZM51.9374 2.80749L52.8783 3.74332L54.7601 5.80214L56.0773 7.86096L57.2064 10.107L58.3355 13.8503L58.7119 16.2834L58.9 18.5294V22.0856L58.5237 26.2032L57.5828 31.0695L56.2655 35.7487L56.0773 36.8717H58.5237L59.2764 35L60.4055 31.0695L61.1582 27.139L61.5345 24.1444L61.7227 21.1497V19.0909L61.3464 15.1604L60.5936 11.7914L59.4646 8.98396L57.9591 6.73797L55.8892 4.67914L53.2547 3.18182L51.9374 2.80749ZM38.7649 2.99465L36.5067 4.11765L34.0604 6.17647L32.3668 8.42246L31.0495 11.2299L30.1086 14.7861L29.7323 17.9679V22.0856L30.2968 27.5134L31.2377 32.0053L32.3668 35.7487L32.9313 36.8717H35.3777L34.8131 34.8128L33.684 30.3209L32.9313 25.6417L32.7431 23.5829V16.8449L33.3077 13.2888L34.2486 10.107L35.754 7.1123L37.4476 4.86631L39.3294 2.99465H38.7649ZM33.8722 39.1176L34.2486 40.2406L35.9422 43.4225L37.4476 45.6684L39.3294 48.1016L41.3994 50.3476L42.9048 51.8449L43.6575 51.6578L44.0339 50.9091L42.7166 49.5989L40.4585 46.6043L38.2003 42.861L36.5067 39.3048L36.3186 39.1176H33.8722ZM38.7649 39.1176L40.4585 42.6738L42.1521 45.2941L43.8457 47.5401L45.3511 49.4118L46.1039 49.2246L47.6093 47.5401L49.8674 44.3583L51.7492 41.1765L52.5019 39.6791V39.1176H38.7649ZM55.1365 39.1176L53.2547 42.6738L51.5611 45.6684L49.4911 48.4759L47.4211 50.9091L47.6093 51.6578L48.362 51.8449L49.8674 50.5348L52.1256 48.1016L54.3837 45.107L56.4537 41.5508L57.3946 39.6791V39.1176H55.1365ZM30.2968 39.492L25.7805 40.4278L20.6997 42.1123L15.9952 44.3583L13.1725 46.2299L10.9144 48.2888L9.40895 49.9733L8.27988 51.8449L7.33898 54.6524L7.1508 55.7754V57.8342L7.71534 60.4545L8.84441 62.7005L10.538 64.7594L12.2316 66.0695L14.4898 67.1925L15.807 67.5668H17.3125L20.3233 66.8182L24.0869 65.3209L28.415 63.262L31.6141 61.3904L35.3777 58.7701L37.2594 57.2727L39.7058 55.2139L41.3994 53.7166L41.023 52.9679L38.5767 50.5348L36.5067 47.9144L34.6249 45.2941L32.3668 41.1765L31.6141 39.492H30.2968ZM59.8409 39.492L57.9591 43.2353L55.8892 46.6043L54.0074 49.0374L52.3138 50.9091L50.9965 52.4064L50.0556 53.1551L50.2438 53.9037L51.5611 55.2139L53.631 56.8984L56.2655 58.9572L59.2764 61.016L62.0991 62.7005L66.0508 64.7594L70.7553 66.631L74.3307 67.5668H75.648L77.9061 66.8182L79.9761 65.508L82.0461 63.4492L83.1751 61.5775L83.9278 59.5187L84.116 58.5829V55.0267L83.3633 52.5936L82.2342 50.3476L80.5406 48.2888L79.2234 46.9786L76.4007 44.9198L72.0726 42.6738L67.5563 40.9893L63.2281 39.8663L61.1582 39.492H59.8409ZM13.1725 43.2353L9.78531 45.107L7.33898 46.9786L6.02173 48.1016L3.95176 50.7219L2.82269 53.1551L2.25815 55.2139V58.3957L2.82269 60.4545L4.13994 63.0749L5.83355 64.9465L7.52716 66.2567L9.59713 67.1925L9.97349 67.0053L8.27988 65.508L6.58627 62.8877L5.64537 60.6417L5.26901 59.3316L5.08083 57.8342V55.9626L5.64537 52.9679L6.58627 50.7219L7.90352 48.4759L10.1617 46.0428L12.4198 44.1711L13.5489 43.4225L13.1725 43.2353ZM78.4706 43.6096L79.4115 44.5455L81.2933 46.0428L83.1751 48.1016L84.4924 50.1604L85.6215 52.5936L86.186 54.8396V58.9572L85.2451 62.139L83.9278 64.385L82.2342 66.2567L81.4815 67.1925L83.1751 66.631L85.2451 65.3209L86.5623 64.0107L88.0678 61.7647L89.0087 58.9572L89.1969 57.6471V55.9626L88.6323 53.3422L87.8796 51.6578L86.7505 49.7861L85.0569 47.9144L83.7397 46.6043L81.2933 44.9198L78.847 43.6096H78.4706ZM45.5393 52.7808L44.9748 53.5294L45.3511 54.0909L46.1039 53.9037L46.292 53.1551L45.5393 52.7808ZM43.093 55.0267L40.6467 57.2727L38.5767 58.9572L35.5658 61.2032L32.7431 63.0749L32.1786 63.6364L33.3077 63.262L37.4476 60.8289L40.8348 58.3957L42.9048 56.7112L43.8457 55.9626L43.4694 55.2139L43.093 55.0267ZM48.1738 55.0267L47.4211 55.7754L49.3029 57.4599L52.8783 60.0802L56.4537 62.3262L58.5237 63.4492L58.9 63.262L55.3246 60.8289L52.8783 58.9572L50.432 56.8984L48.5502 55.2139L48.1738 55.0267Z" fill="#ECDF8D" stroke="#ECDF8D" stroke-width="1.25" mask="url(#path-1-inside-1_702_830)"/>
</g>
</svg>
