<svg width="35" height="34" viewBox="0 0 35 34" fill="none" xmlns="http://www.w3.org/2000/svg">
<g id="mail">
<path id="mark_as_unread" d="M7.29168 33.2501C6.48473 33.2501 5.79688 32.9657 5.22813 32.397C4.65938 31.8282 4.375 31.1404 4.375 30.3334V13.2125C4.375 12.4056 4.65938 11.7178 5.22813 11.149C5.79688 10.5803 6.48473 10.2959 7.29168 10.2959H32.0834C32.8903 10.2959 33.5782 10.5803 34.1469 11.149C34.7157 11.7178 35 12.4056 35 13.2125V30.3334C35 31.1404 34.7157 31.8282 34.1469 32.397C33.5782 32.9657 32.8903 33.2501 32.0834 33.2501H7.29168ZM19.6875 22.4292L32.0834 16.2459V13.2125L19.6875 19.3084L7.29168 13.2125V16.2459L19.6875 22.4292Z" fill="white"/>
<path id="mark_as_unread_2" d="M0.882306 25.3239C1.47048 25.8635 2.14859 26.1819 2.91664 26.2792V9.26039L14.9917 3.26664L25.8271 8.8375H29.6917C29.6042 8.4875 29.4316 8.11806 29.1739 7.72918C28.9163 7.34027 28.6417 7.04861 28.35 6.85418L14.9917 0L1.16668 6.85418C0.748606 7.06806 0.449648 7.34756 0.269806 7.69269C0.0899354 8.03785 0 8.40001 0 8.77918V23.3625C0 24.1306 0.294102 24.7844 0.882306 25.3239Z" fill="#ECDF8D"/>
</g>
</svg>
