<svg width="35" height="35" viewBox="0 0 35 35" fill="none" xmlns="http://www.w3.org/2000/svg">
<g id="twitter 1" clip-path="url(#clip0_702_660)">
<path id="Logo" d="M31.4169 10.36C31.4373 10.6677 31.4373 10.9769 31.4373 11.2875C31.4373 20.7769 24.2127 31.7188 11.006 31.7188V31.7129C7.105 31.7188 3.28417 30.6017 0 28.4944C0.567292 28.5629 1.1375 28.5965 1.70917 28.5979C4.94375 28.6008 8.085 27.5158 10.6269 25.5179C7.55417 25.4596 4.85917 23.4558 3.91854 20.5304C4.99479 20.7375 6.10313 20.6952 7.16042 20.4079C3.80917 19.7313 1.4 16.7869 1.4 13.3686C1.4 13.3379 1.4 13.3073 1.4 13.2781C2.39896 13.8352 3.51604 14.1429 4.65938 14.1765C1.50354 12.0692 0.529375 7.87209 2.43542 4.59084C6.08125 9.07668 11.461 11.8038 17.2346 12.094C16.6556 9.60022 17.4475 6.98688 19.3113 5.23251C22.2031 2.51272 26.7517 2.65272 29.4715 5.54459C31.08 5.22813 32.6215 4.63751 34.0317 3.80188C33.495 5.46438 32.3735 6.87605 30.8744 7.77438C32.2992 7.60376 33.689 7.22313 35 6.64272C34.036 8.08501 32.8227 9.34355 31.4169 10.36Z" fill="white"/>
</g>
<defs>
<clipPath id="clip0_702_660">
<rect width="35" height="35" fill="white"/>
</clipPath>
</defs>
</svg>
