<svg width="35" height="35" viewBox="0 0 35 35" fill="none" xmlns="http://www.w3.org/2000/svg">
<g id="whatsapp 1" clip-path="url(#clip0_702_633)">
<g id="WA_Logo">
<g id="Group">
<path id="Vector" fill-rule="evenodd" clip-rule="evenodd" d="M29.8418 5.08667C26.5663 1.80833 22.2118 0.00145833 17.5728 0C8.01342 0 0.233216 7.77875 0.228841 17.3425C0.227383 20.3992 1.02655 23.3829 2.54467 26.0138L0.0830078 35L9.27634 32.5879C11.8095 33.9704 14.662 34.6981 17.564 34.6996H17.5713C27.1293 34.6996 34.9109 26.9194 34.9153 17.3556C34.9182 12.7225 33.1157 8.36354 29.8418 5.08667ZM17.5728 31.7698H17.567C14.9799 31.7698 12.4438 31.0742 10.2301 29.7602L9.70363 29.4481L4.24801 30.8787L5.70488 25.5588L5.36217 25.0133C3.91842 22.7179 3.15717 20.0652 3.15863 17.3425C3.16155 9.39458 9.62926 2.92833 17.5801 2.92833C21.4301 2.92833 25.0497 4.43042 27.7709 7.15458C30.4922 9.88021 31.9899 13.5013 31.9884 17.3527C31.9841 25.3035 25.5178 31.7698 17.5728 31.7698ZM25.4799 20.9738C25.0468 20.7565 22.9161 19.7079 22.518 19.5635C22.1213 19.4192 21.8326 19.3463 21.5424 19.7794C21.2522 20.2125 20.4238 21.1896 20.1701 21.4798C19.9178 21.7685 19.6641 21.805 19.2309 21.5877C18.7978 21.3704 17.4007 20.914 15.7455 19.4367C14.4578 18.2875 13.5872 16.8685 13.3349 16.434C13.0826 15.9994 13.3086 15.766 13.5245 15.5502C13.7199 15.3563 13.9576 15.0442 14.1749 14.7904C14.3936 14.5396 14.4651 14.3588 14.6109 14.0685C14.7553 13.7798 14.6838 13.526 14.5745 13.3088C14.4651 13.0929 13.5988 10.9594 13.2386 10.0917C12.8872 9.24583 12.5299 9.36104 12.263 9.34792C12.0107 9.33479 11.722 9.33333 11.4318 9.33333C11.143 9.33333 10.6734 9.44125 10.2768 9.87583C9.88009 10.3104 8.76009 11.359 8.76009 13.491C8.76009 15.6246 10.3132 17.6852 10.529 17.974C10.7449 18.2627 13.5843 22.6406 17.9315 24.5175C18.9655 24.9638 19.7734 25.2306 20.402 25.4304C21.4403 25.76 22.3853 25.7133 23.132 25.6025C23.9647 25.4785 25.6957 24.554 26.0574 23.5419C26.4191 22.5298 26.4191 21.6606 26.3097 21.4813C26.2018 21.299 25.913 21.191 25.4799 20.9738Z" fill="white"/>
</g>
</g>
</g>
<defs>
<clipPath id="clip0_702_633">
<rect width="35" height="35" fill="white"/>
</clipPath>
</defs>
</svg>
