<svg width="30" height="30" viewBox="0 0 30 30" fill="none" xmlns="http://www.w3.org/2000/svg">
<g id="sobre-full 1" clip-path="url(#clip0_745_8)">
<path id="Vector" d="M29.9425 6.92749L19.42 17.45C18.2467 18.6203 16.6572 19.2775 15 19.2775C13.3428 19.2775 11.7533 18.6203 10.58 17.45L0.0575 6.92749C0.04 7.12499 0 7.30374 0 7.49999V22.5C0.00198482 24.157 0.661102 25.7455 1.83277 26.9172C3.00445 28.0889 4.59301 28.748 6.25 28.75H23.75C25.407 28.748 26.9956 28.0889 28.1672 26.9172C29.3389 25.7455 29.998 24.157 30 22.5V7.49999C30 7.30374 29.96 7.12499 29.9425 6.92749Z" fill="#54B3B5"/>
<path id="Vector_2" d="M17.6526 15.6825L29.0701 4.26375C28.517 3.34665 27.7369 2.58755 26.805 2.05966C25.8732 1.53178 24.821 1.25293 23.7501 1.25H6.25005C5.17908 1.25293 4.12693 1.53178 3.19509 2.05966C2.26324 2.58755 1.48315 3.34665 0.930054 4.26375L12.3476 15.6825C13.052 16.3841 14.0058 16.7781 15.0001 16.7781C15.9943 16.7781 16.9481 16.3841 17.6526 15.6825Z" fill="#54B3B5"/>
</g>
<defs>
<clipPath id="clip0_745_8">
<rect width="30" height="30" fill="white"/>
</clipPath>
</defs>
</svg>
